G75*
%MOIN*%
%OFA0B0*%
%FSLAX25Y25*%
%IPPOS*%
%LPD*%
%AMOC8*
5,1,8,0,0,1.08239X$1,22.5*
%
%ADD10R,0.04331X0.03937*%
%ADD11R,0.04724X0.07874*%
%ADD12R,0.02362X0.05315*%
%ADD13R,0.02362X0.06102*%
%ADD14R,0.03150X0.03543*%
D10*
X0052904Y0103750D03*
X0059596Y0103750D03*
X0067904Y0103750D03*
X0074596Y0103750D03*
X0074596Y0123750D03*
X0067904Y0123750D03*
X0059596Y0123750D03*
X0052904Y0123750D03*
X0124904Y0123750D03*
X0131596Y0123750D03*
X0139904Y0123750D03*
X0146596Y0123750D03*
X0146596Y0103750D03*
X0139904Y0103750D03*
X0131596Y0103750D03*
X0124904Y0103750D03*
X0196904Y0103750D03*
X0203596Y0103750D03*
X0211904Y0103750D03*
X0218596Y0103750D03*
X0218596Y0123750D03*
X0211904Y0123750D03*
X0203596Y0123750D03*
X0196904Y0123750D03*
X0268904Y0123750D03*
X0275596Y0123750D03*
X0283904Y0123750D03*
X0290596Y0123750D03*
X0290596Y0103750D03*
X0283904Y0103750D03*
X0275596Y0103750D03*
X0268904Y0103750D03*
X0340904Y0103750D03*
X0347596Y0103750D03*
X0355904Y0103750D03*
X0362596Y0103750D03*
X0362596Y0123750D03*
X0355904Y0123750D03*
X0347596Y0123750D03*
X0340904Y0123750D03*
X0412904Y0123750D03*
X0419596Y0123750D03*
X0427904Y0123750D03*
X0434596Y0123750D03*
X0434596Y0103750D03*
X0427904Y0103750D03*
X0419596Y0103750D03*
X0412904Y0103750D03*
X0484904Y0103750D03*
X0491596Y0103750D03*
X0499904Y0103750D03*
X0506596Y0103750D03*
X0506596Y0123750D03*
X0499904Y0123750D03*
X0491596Y0123750D03*
X0484904Y0123750D03*
X0484904Y0275750D03*
X0491596Y0275750D03*
X0499904Y0275750D03*
X0506596Y0275750D03*
X0506596Y0295750D03*
X0499904Y0295750D03*
X0491596Y0295750D03*
X0484904Y0295750D03*
X0434596Y0295750D03*
X0427904Y0295750D03*
X0419596Y0295750D03*
X0412904Y0295750D03*
X0412904Y0275750D03*
X0419596Y0275750D03*
X0427904Y0275750D03*
X0434596Y0275750D03*
X0362596Y0275750D03*
X0355904Y0275750D03*
X0347596Y0275750D03*
X0340904Y0275750D03*
X0340904Y0295750D03*
X0347596Y0295750D03*
X0355904Y0295750D03*
X0362596Y0295750D03*
X0290596Y0295750D03*
X0283904Y0295750D03*
X0275596Y0295750D03*
X0268904Y0295750D03*
X0268904Y0275750D03*
X0275596Y0275750D03*
X0283904Y0275750D03*
X0290596Y0275750D03*
X0218596Y0275750D03*
X0211904Y0275750D03*
X0203596Y0275750D03*
X0196904Y0275750D03*
X0196904Y0295750D03*
X0203596Y0295750D03*
X0211904Y0295750D03*
X0218596Y0295750D03*
X0146596Y0295750D03*
X0139904Y0295750D03*
X0131596Y0295750D03*
X0124904Y0295750D03*
X0124904Y0275750D03*
X0131596Y0275750D03*
X0139904Y0275750D03*
X0146596Y0275750D03*
X0074596Y0275750D03*
X0067904Y0275750D03*
X0059596Y0275750D03*
X0052904Y0275750D03*
X0052904Y0295750D03*
X0059596Y0295750D03*
X0067904Y0295750D03*
X0074596Y0295750D03*
X0074596Y0447750D03*
X0067904Y0447750D03*
X0059596Y0447750D03*
X0052904Y0447750D03*
X0052904Y0467750D03*
X0059596Y0467750D03*
X0067904Y0467750D03*
X0074596Y0467750D03*
X0124904Y0467750D03*
X0131596Y0467750D03*
X0139904Y0467750D03*
X0146596Y0467750D03*
X0146596Y0447750D03*
X0139904Y0447750D03*
X0131596Y0447750D03*
X0124904Y0447750D03*
X0196904Y0447750D03*
X0203596Y0447750D03*
X0211904Y0447750D03*
X0218596Y0447750D03*
X0218596Y0467750D03*
X0211904Y0467750D03*
X0203596Y0467750D03*
X0196904Y0467750D03*
X0268904Y0467750D03*
X0275596Y0467750D03*
X0283904Y0467750D03*
X0290596Y0467750D03*
X0290596Y0447750D03*
X0283904Y0447750D03*
X0275596Y0447750D03*
X0268904Y0447750D03*
X0340904Y0447750D03*
X0347596Y0447750D03*
X0355904Y0447750D03*
X0362596Y0447750D03*
X0362596Y0467750D03*
X0355904Y0467750D03*
X0347596Y0467750D03*
X0340904Y0467750D03*
X0412904Y0467750D03*
X0419596Y0467750D03*
X0427904Y0467750D03*
X0434596Y0467750D03*
X0434596Y0447750D03*
X0427904Y0447750D03*
X0419596Y0447750D03*
X0412904Y0447750D03*
X0484904Y0447750D03*
X0491596Y0447750D03*
X0499904Y0447750D03*
X0506596Y0447750D03*
X0506596Y0467750D03*
X0499904Y0467750D03*
X0491596Y0467750D03*
X0484904Y0467750D03*
X0484904Y0619750D03*
X0491596Y0619750D03*
X0499904Y0619750D03*
X0506596Y0619750D03*
X0506596Y0639750D03*
X0499904Y0639750D03*
X0491596Y0639750D03*
X0484904Y0639750D03*
X0434596Y0639750D03*
X0427904Y0639750D03*
X0419596Y0639750D03*
X0412904Y0639750D03*
X0412904Y0619750D03*
X0419596Y0619750D03*
X0427904Y0619750D03*
X0434596Y0619750D03*
X0362596Y0619750D03*
X0355904Y0619750D03*
X0347596Y0619750D03*
X0340904Y0619750D03*
X0340904Y0639750D03*
X0347596Y0639750D03*
X0355904Y0639750D03*
X0362596Y0639750D03*
X0290596Y0639750D03*
X0283904Y0639750D03*
X0275596Y0639750D03*
X0268904Y0639750D03*
X0268904Y0619750D03*
X0275596Y0619750D03*
X0283904Y0619750D03*
X0290596Y0619750D03*
X0218596Y0619750D03*
X0211904Y0619750D03*
X0203596Y0619750D03*
X0196904Y0619750D03*
X0196904Y0639750D03*
X0203596Y0639750D03*
X0211904Y0639750D03*
X0218596Y0639750D03*
X0146596Y0639750D03*
X0139904Y0639750D03*
X0131596Y0639750D03*
X0124904Y0639750D03*
X0124904Y0619750D03*
X0131596Y0619750D03*
X0139904Y0619750D03*
X0146596Y0619750D03*
X0074596Y0619750D03*
X0067904Y0619750D03*
X0059596Y0619750D03*
X0052904Y0619750D03*
X0052904Y0639750D03*
X0059596Y0639750D03*
X0067904Y0639750D03*
X0074596Y0639750D03*
D11*
X0052726Y0034281D03*
X0074774Y0034281D03*
X0074860Y0086348D03*
X0052813Y0086348D03*
X0052640Y0141152D03*
X0074687Y0141152D03*
X0074774Y0193219D03*
X0074774Y0206281D03*
X0052726Y0206281D03*
X0052726Y0193219D03*
X0052813Y0258348D03*
X0074860Y0258348D03*
X0074687Y0313152D03*
X0052640Y0313152D03*
X0052726Y0365219D03*
X0052726Y0378281D03*
X0074774Y0378281D03*
X0074774Y0365219D03*
X0124726Y0365219D03*
X0124726Y0378281D03*
X0146774Y0378281D03*
X0146774Y0365219D03*
X0146687Y0313152D03*
X0124640Y0313152D03*
X0124813Y0258348D03*
X0146860Y0258348D03*
X0146774Y0206281D03*
X0146774Y0193219D03*
X0124726Y0193219D03*
X0124726Y0206281D03*
X0124640Y0141152D03*
X0146687Y0141152D03*
X0146860Y0086348D03*
X0124813Y0086348D03*
X0124726Y0034281D03*
X0146774Y0034281D03*
X0196726Y0034281D03*
X0218774Y0034281D03*
X0218860Y0086348D03*
X0196813Y0086348D03*
X0196640Y0141152D03*
X0218687Y0141152D03*
X0218774Y0193219D03*
X0218774Y0206281D03*
X0196726Y0206281D03*
X0196726Y0193219D03*
X0196813Y0258348D03*
X0218860Y0258348D03*
X0218687Y0313152D03*
X0196640Y0313152D03*
X0196726Y0365219D03*
X0196726Y0378281D03*
X0218774Y0378281D03*
X0218774Y0365219D03*
X0268726Y0365219D03*
X0268726Y0378281D03*
X0290774Y0378281D03*
X0290774Y0365219D03*
X0290687Y0313152D03*
X0268640Y0313152D03*
X0268813Y0258348D03*
X0290860Y0258348D03*
X0290774Y0206281D03*
X0290774Y0193219D03*
X0268726Y0193219D03*
X0268726Y0206281D03*
X0268640Y0141152D03*
X0290687Y0141152D03*
X0290860Y0086348D03*
X0268813Y0086348D03*
X0268726Y0034281D03*
X0290774Y0034281D03*
X0340726Y0034281D03*
X0362774Y0034281D03*
X0362860Y0086348D03*
X0340813Y0086348D03*
X0340640Y0141152D03*
X0362687Y0141152D03*
X0362774Y0193219D03*
X0362774Y0206281D03*
X0340726Y0206281D03*
X0340726Y0193219D03*
X0340813Y0258348D03*
X0362860Y0258348D03*
X0362687Y0313152D03*
X0340640Y0313152D03*
X0340726Y0365219D03*
X0340726Y0378281D03*
X0362774Y0378281D03*
X0362774Y0365219D03*
X0412726Y0365219D03*
X0412726Y0378281D03*
X0434774Y0378281D03*
X0434774Y0365219D03*
X0434687Y0313152D03*
X0412640Y0313152D03*
X0412813Y0258348D03*
X0434860Y0258348D03*
X0434774Y0206281D03*
X0434774Y0193219D03*
X0412726Y0193219D03*
X0412726Y0206281D03*
X0412640Y0141152D03*
X0434687Y0141152D03*
X0434860Y0086348D03*
X0412813Y0086348D03*
X0412726Y0034281D03*
X0434774Y0034281D03*
X0484726Y0034281D03*
X0506774Y0034281D03*
X0506860Y0086348D03*
X0484813Y0086348D03*
X0484640Y0141152D03*
X0506687Y0141152D03*
X0506774Y0193219D03*
X0506774Y0206281D03*
X0484726Y0206281D03*
X0484726Y0193219D03*
X0484813Y0258348D03*
X0506860Y0258348D03*
X0506687Y0313152D03*
X0484640Y0313152D03*
X0484726Y0365219D03*
X0484726Y0378281D03*
X0506774Y0378281D03*
X0506774Y0365219D03*
X0506860Y0430348D03*
X0484813Y0430348D03*
X0484640Y0485152D03*
X0506687Y0485152D03*
X0506774Y0537219D03*
X0506774Y0550281D03*
X0484726Y0550281D03*
X0484726Y0537219D03*
X0434774Y0537219D03*
X0434774Y0550281D03*
X0412726Y0550281D03*
X0412726Y0537219D03*
X0412640Y0485152D03*
X0434687Y0485152D03*
X0434860Y0430348D03*
X0412813Y0430348D03*
X0362860Y0430348D03*
X0340813Y0430348D03*
X0340640Y0485152D03*
X0362687Y0485152D03*
X0362774Y0537219D03*
X0362774Y0550281D03*
X0340726Y0550281D03*
X0340726Y0537219D03*
X0290774Y0537219D03*
X0290774Y0550281D03*
X0268726Y0550281D03*
X0268726Y0537219D03*
X0268640Y0485152D03*
X0290687Y0485152D03*
X0290860Y0430348D03*
X0268813Y0430348D03*
X0218860Y0430348D03*
X0196813Y0430348D03*
X0196640Y0485152D03*
X0218687Y0485152D03*
X0218774Y0537219D03*
X0218774Y0550281D03*
X0196726Y0550281D03*
X0196726Y0537219D03*
X0146774Y0537219D03*
X0146774Y0550281D03*
X0124726Y0550281D03*
X0124726Y0537219D03*
X0124640Y0485152D03*
X0146687Y0485152D03*
X0146860Y0430348D03*
X0124813Y0430348D03*
X0074860Y0430348D03*
X0052813Y0430348D03*
X0052640Y0485152D03*
X0074687Y0485152D03*
X0074774Y0537219D03*
X0074774Y0550281D03*
X0052726Y0550281D03*
X0052726Y0537219D03*
X0052813Y0602348D03*
X0074860Y0602348D03*
X0074687Y0657152D03*
X0052640Y0657152D03*
X0052726Y0709219D03*
X0074774Y0709219D03*
X0124726Y0709219D03*
X0146774Y0709219D03*
X0146687Y0657152D03*
X0124640Y0657152D03*
X0124813Y0602348D03*
X0146860Y0602348D03*
X0196813Y0602348D03*
X0218860Y0602348D03*
X0218687Y0657152D03*
X0196640Y0657152D03*
X0196726Y0709219D03*
X0218774Y0709219D03*
X0268726Y0709219D03*
X0290774Y0709219D03*
X0290687Y0657152D03*
X0268640Y0657152D03*
X0268813Y0602348D03*
X0290860Y0602348D03*
X0340813Y0602348D03*
X0362860Y0602348D03*
X0362687Y0657152D03*
X0340640Y0657152D03*
X0340726Y0709219D03*
X0362774Y0709219D03*
X0412726Y0709219D03*
X0434774Y0709219D03*
X0434687Y0657152D03*
X0412640Y0657152D03*
X0412813Y0602348D03*
X0434860Y0602348D03*
X0484813Y0602348D03*
X0506860Y0602348D03*
X0506687Y0657152D03*
X0484640Y0657152D03*
X0484726Y0709219D03*
X0506774Y0709219D03*
D12*
X0501656Y0694750D03*
X0497719Y0694750D03*
X0493781Y0694750D03*
X0489844Y0694750D03*
X0429656Y0694750D03*
X0425719Y0694750D03*
X0421781Y0694750D03*
X0417844Y0694750D03*
X0357656Y0694750D03*
X0353719Y0694750D03*
X0349781Y0694750D03*
X0345844Y0694750D03*
X0285656Y0694750D03*
X0281719Y0694750D03*
X0277781Y0694750D03*
X0273844Y0694750D03*
X0213656Y0694750D03*
X0209719Y0694750D03*
X0205781Y0694750D03*
X0201844Y0694750D03*
X0141656Y0694750D03*
X0137719Y0694750D03*
X0133781Y0694750D03*
X0129844Y0694750D03*
X0069656Y0694750D03*
X0065719Y0694750D03*
X0061781Y0694750D03*
X0057844Y0694750D03*
X0057844Y0564750D03*
X0061781Y0564750D03*
X0065719Y0564750D03*
X0069656Y0564750D03*
X0069656Y0522750D03*
X0065719Y0522750D03*
X0061781Y0522750D03*
X0057844Y0522750D03*
X0129844Y0522750D03*
X0133781Y0522750D03*
X0137719Y0522750D03*
X0141656Y0522750D03*
X0141656Y0564750D03*
X0137719Y0564750D03*
X0133781Y0564750D03*
X0129844Y0564750D03*
X0201844Y0564750D03*
X0205781Y0564750D03*
X0209719Y0564750D03*
X0213656Y0564750D03*
X0213656Y0522750D03*
X0209719Y0522750D03*
X0205781Y0522750D03*
X0201844Y0522750D03*
X0273844Y0522750D03*
X0277781Y0522750D03*
X0281719Y0522750D03*
X0285656Y0522750D03*
X0285656Y0564750D03*
X0281719Y0564750D03*
X0277781Y0564750D03*
X0273844Y0564750D03*
X0345844Y0564750D03*
X0349781Y0564750D03*
X0353719Y0564750D03*
X0357656Y0564750D03*
X0357656Y0522750D03*
X0353719Y0522750D03*
X0349781Y0522750D03*
X0345844Y0522750D03*
X0417844Y0522750D03*
X0421781Y0522750D03*
X0425719Y0522750D03*
X0429656Y0522750D03*
X0429656Y0564750D03*
X0425719Y0564750D03*
X0421781Y0564750D03*
X0417844Y0564750D03*
X0489844Y0564750D03*
X0493781Y0564750D03*
X0497719Y0564750D03*
X0501656Y0564750D03*
X0501656Y0522750D03*
X0497719Y0522750D03*
X0493781Y0522750D03*
X0489844Y0522750D03*
X0489844Y0392750D03*
X0493781Y0392750D03*
X0497719Y0392750D03*
X0501656Y0392750D03*
X0501656Y0350750D03*
X0497719Y0350750D03*
X0493781Y0350750D03*
X0489844Y0350750D03*
X0429656Y0350750D03*
X0425719Y0350750D03*
X0421781Y0350750D03*
X0417844Y0350750D03*
X0417844Y0392750D03*
X0421781Y0392750D03*
X0425719Y0392750D03*
X0429656Y0392750D03*
X0357656Y0392750D03*
X0353719Y0392750D03*
X0349781Y0392750D03*
X0345844Y0392750D03*
X0345844Y0350750D03*
X0349781Y0350750D03*
X0353719Y0350750D03*
X0357656Y0350750D03*
X0285656Y0350750D03*
X0281719Y0350750D03*
X0277781Y0350750D03*
X0273844Y0350750D03*
X0273844Y0392750D03*
X0277781Y0392750D03*
X0281719Y0392750D03*
X0285656Y0392750D03*
X0213656Y0392750D03*
X0209719Y0392750D03*
X0205781Y0392750D03*
X0201844Y0392750D03*
X0201844Y0350750D03*
X0205781Y0350750D03*
X0209719Y0350750D03*
X0213656Y0350750D03*
X0141656Y0350750D03*
X0137719Y0350750D03*
X0133781Y0350750D03*
X0129844Y0350750D03*
X0129844Y0392750D03*
X0133781Y0392750D03*
X0137719Y0392750D03*
X0141656Y0392750D03*
X0069656Y0392750D03*
X0065719Y0392750D03*
X0061781Y0392750D03*
X0057844Y0392750D03*
X0057844Y0350750D03*
X0061781Y0350750D03*
X0065719Y0350750D03*
X0069656Y0350750D03*
X0069656Y0220750D03*
X0065719Y0220750D03*
X0061781Y0220750D03*
X0057844Y0220750D03*
X0057844Y0178750D03*
X0061781Y0178750D03*
X0065719Y0178750D03*
X0069656Y0178750D03*
X0129844Y0178750D03*
X0133781Y0178750D03*
X0137719Y0178750D03*
X0141656Y0178750D03*
X0141656Y0220750D03*
X0137719Y0220750D03*
X0133781Y0220750D03*
X0129844Y0220750D03*
X0201844Y0220750D03*
X0205781Y0220750D03*
X0209719Y0220750D03*
X0213656Y0220750D03*
X0213656Y0178750D03*
X0209719Y0178750D03*
X0205781Y0178750D03*
X0201844Y0178750D03*
X0273844Y0178750D03*
X0277781Y0178750D03*
X0281719Y0178750D03*
X0285656Y0178750D03*
X0285656Y0220750D03*
X0281719Y0220750D03*
X0277781Y0220750D03*
X0273844Y0220750D03*
X0345844Y0220750D03*
X0349781Y0220750D03*
X0353719Y0220750D03*
X0357656Y0220750D03*
X0357656Y0178750D03*
X0353719Y0178750D03*
X0349781Y0178750D03*
X0345844Y0178750D03*
X0417844Y0178750D03*
X0421781Y0178750D03*
X0425719Y0178750D03*
X0429656Y0178750D03*
X0429656Y0220750D03*
X0425719Y0220750D03*
X0421781Y0220750D03*
X0417844Y0220750D03*
X0489844Y0220750D03*
X0493781Y0220750D03*
X0497719Y0220750D03*
X0501656Y0220750D03*
X0501656Y0178750D03*
X0497719Y0178750D03*
X0493781Y0178750D03*
X0489844Y0178750D03*
X0489844Y0048750D03*
X0493781Y0048750D03*
X0497719Y0048750D03*
X0501656Y0048750D03*
X0429656Y0048750D03*
X0425719Y0048750D03*
X0421781Y0048750D03*
X0417844Y0048750D03*
X0357656Y0048750D03*
X0353719Y0048750D03*
X0349781Y0048750D03*
X0345844Y0048750D03*
X0285656Y0048750D03*
X0281719Y0048750D03*
X0277781Y0048750D03*
X0273844Y0048750D03*
X0213656Y0048750D03*
X0209719Y0048750D03*
X0205781Y0048750D03*
X0201844Y0048750D03*
X0141656Y0048750D03*
X0137719Y0048750D03*
X0133781Y0048750D03*
X0129844Y0048750D03*
X0069656Y0048750D03*
X0065719Y0048750D03*
X0061781Y0048750D03*
X0057844Y0048750D03*
D13*
X0057931Y0076801D03*
X0061868Y0076801D03*
X0065805Y0076801D03*
X0069742Y0076801D03*
X0129931Y0076801D03*
X0133868Y0076801D03*
X0137805Y0076801D03*
X0141742Y0076801D03*
X0201931Y0076801D03*
X0205868Y0076801D03*
X0209805Y0076801D03*
X0213742Y0076801D03*
X0273931Y0076801D03*
X0277868Y0076801D03*
X0281805Y0076801D03*
X0285742Y0076801D03*
X0345931Y0076801D03*
X0349868Y0076801D03*
X0353805Y0076801D03*
X0357742Y0076801D03*
X0417931Y0076801D03*
X0421868Y0076801D03*
X0425805Y0076801D03*
X0429742Y0076801D03*
X0489931Y0076801D03*
X0493868Y0076801D03*
X0497805Y0076801D03*
X0501742Y0076801D03*
X0501569Y0150699D03*
X0497632Y0150699D03*
X0493695Y0150699D03*
X0489758Y0150699D03*
X0429569Y0150699D03*
X0425632Y0150699D03*
X0421695Y0150699D03*
X0417758Y0150699D03*
X0357569Y0150699D03*
X0353632Y0150699D03*
X0349695Y0150699D03*
X0345758Y0150699D03*
X0285569Y0150699D03*
X0281632Y0150699D03*
X0277695Y0150699D03*
X0273758Y0150699D03*
X0213569Y0150699D03*
X0209632Y0150699D03*
X0205695Y0150699D03*
X0201758Y0150699D03*
X0141569Y0150699D03*
X0137632Y0150699D03*
X0133695Y0150699D03*
X0129758Y0150699D03*
X0069569Y0150699D03*
X0065632Y0150699D03*
X0061695Y0150699D03*
X0057758Y0150699D03*
X0057931Y0248801D03*
X0061868Y0248801D03*
X0065805Y0248801D03*
X0069742Y0248801D03*
X0129931Y0248801D03*
X0133868Y0248801D03*
X0137805Y0248801D03*
X0141742Y0248801D03*
X0201931Y0248801D03*
X0205868Y0248801D03*
X0209805Y0248801D03*
X0213742Y0248801D03*
X0273931Y0248801D03*
X0277868Y0248801D03*
X0281805Y0248801D03*
X0285742Y0248801D03*
X0345931Y0248801D03*
X0349868Y0248801D03*
X0353805Y0248801D03*
X0357742Y0248801D03*
X0417931Y0248801D03*
X0421868Y0248801D03*
X0425805Y0248801D03*
X0429742Y0248801D03*
X0489931Y0248801D03*
X0493868Y0248801D03*
X0497805Y0248801D03*
X0501742Y0248801D03*
X0501569Y0322699D03*
X0497632Y0322699D03*
X0493695Y0322699D03*
X0489758Y0322699D03*
X0429569Y0322699D03*
X0425632Y0322699D03*
X0421695Y0322699D03*
X0417758Y0322699D03*
X0357569Y0322699D03*
X0353632Y0322699D03*
X0349695Y0322699D03*
X0345758Y0322699D03*
X0285569Y0322699D03*
X0281632Y0322699D03*
X0277695Y0322699D03*
X0273758Y0322699D03*
X0213569Y0322699D03*
X0209632Y0322699D03*
X0205695Y0322699D03*
X0201758Y0322699D03*
X0141569Y0322699D03*
X0137632Y0322699D03*
X0133695Y0322699D03*
X0129758Y0322699D03*
X0069569Y0322699D03*
X0065632Y0322699D03*
X0061695Y0322699D03*
X0057758Y0322699D03*
X0057931Y0420801D03*
X0061868Y0420801D03*
X0065805Y0420801D03*
X0069742Y0420801D03*
X0129931Y0420801D03*
X0133868Y0420801D03*
X0137805Y0420801D03*
X0141742Y0420801D03*
X0201931Y0420801D03*
X0205868Y0420801D03*
X0209805Y0420801D03*
X0213742Y0420801D03*
X0273931Y0420801D03*
X0277868Y0420801D03*
X0281805Y0420801D03*
X0285742Y0420801D03*
X0345931Y0420801D03*
X0349868Y0420801D03*
X0353805Y0420801D03*
X0357742Y0420801D03*
X0417931Y0420801D03*
X0421868Y0420801D03*
X0425805Y0420801D03*
X0429742Y0420801D03*
X0489931Y0420801D03*
X0493868Y0420801D03*
X0497805Y0420801D03*
X0501742Y0420801D03*
X0501569Y0494699D03*
X0497632Y0494699D03*
X0493695Y0494699D03*
X0489758Y0494699D03*
X0429569Y0494699D03*
X0425632Y0494699D03*
X0421695Y0494699D03*
X0417758Y0494699D03*
X0357569Y0494699D03*
X0353632Y0494699D03*
X0349695Y0494699D03*
X0345758Y0494699D03*
X0285569Y0494699D03*
X0281632Y0494699D03*
X0277695Y0494699D03*
X0273758Y0494699D03*
X0213569Y0494699D03*
X0209632Y0494699D03*
X0205695Y0494699D03*
X0201758Y0494699D03*
X0141569Y0494699D03*
X0137632Y0494699D03*
X0133695Y0494699D03*
X0129758Y0494699D03*
X0069569Y0494699D03*
X0065632Y0494699D03*
X0061695Y0494699D03*
X0057758Y0494699D03*
X0057931Y0592801D03*
X0061868Y0592801D03*
X0065805Y0592801D03*
X0069742Y0592801D03*
X0129931Y0592801D03*
X0133868Y0592801D03*
X0137805Y0592801D03*
X0141742Y0592801D03*
X0201931Y0592801D03*
X0205868Y0592801D03*
X0209805Y0592801D03*
X0213742Y0592801D03*
X0273931Y0592801D03*
X0277868Y0592801D03*
X0281805Y0592801D03*
X0285742Y0592801D03*
X0345931Y0592801D03*
X0349868Y0592801D03*
X0353805Y0592801D03*
X0357742Y0592801D03*
X0417931Y0592801D03*
X0421868Y0592801D03*
X0425805Y0592801D03*
X0429742Y0592801D03*
X0489931Y0592801D03*
X0493868Y0592801D03*
X0497805Y0592801D03*
X0501742Y0592801D03*
X0501569Y0666699D03*
X0497632Y0666699D03*
X0493695Y0666699D03*
X0489758Y0666699D03*
X0429569Y0666699D03*
X0425632Y0666699D03*
X0421695Y0666699D03*
X0417758Y0666699D03*
X0357569Y0666699D03*
X0353632Y0666699D03*
X0349695Y0666699D03*
X0345758Y0666699D03*
X0285569Y0666699D03*
X0281632Y0666699D03*
X0277695Y0666699D03*
X0273758Y0666699D03*
X0213569Y0666699D03*
X0209632Y0666699D03*
X0205695Y0666699D03*
X0201758Y0666699D03*
X0141569Y0666699D03*
X0137632Y0666699D03*
X0133695Y0666699D03*
X0129758Y0666699D03*
X0069569Y0666699D03*
X0065632Y0666699D03*
X0061695Y0666699D03*
X0057758Y0666699D03*
D14*
X0056250Y0634081D03*
X0052510Y0625813D03*
X0059990Y0625813D03*
X0067510Y0625813D03*
X0074990Y0625813D03*
X0071250Y0634081D03*
X0124510Y0625813D03*
X0131990Y0625813D03*
X0128250Y0634081D03*
X0139510Y0625813D03*
X0146990Y0625813D03*
X0143250Y0634081D03*
X0196510Y0625813D03*
X0203990Y0625813D03*
X0211510Y0625813D03*
X0218990Y0625813D03*
X0215250Y0634081D03*
X0200250Y0634081D03*
X0268510Y0625813D03*
X0275990Y0625813D03*
X0283510Y0625813D03*
X0290990Y0625813D03*
X0287250Y0634081D03*
X0272250Y0634081D03*
X0340510Y0625813D03*
X0347990Y0625813D03*
X0344250Y0634081D03*
X0355510Y0625813D03*
X0362990Y0625813D03*
X0359250Y0634081D03*
X0412510Y0625813D03*
X0419990Y0625813D03*
X0427510Y0625813D03*
X0434990Y0625813D03*
X0431250Y0634081D03*
X0416250Y0634081D03*
X0484510Y0625813D03*
X0491990Y0625813D03*
X0499510Y0625813D03*
X0506990Y0625813D03*
X0503250Y0634081D03*
X0488250Y0634081D03*
X0488250Y0462081D03*
X0484510Y0453813D03*
X0491990Y0453813D03*
X0499510Y0453813D03*
X0506990Y0453813D03*
X0503250Y0462081D03*
X0434990Y0453813D03*
X0427510Y0453813D03*
X0419990Y0453813D03*
X0412510Y0453813D03*
X0416250Y0462081D03*
X0431250Y0462081D03*
X0362990Y0453813D03*
X0355510Y0453813D03*
X0359250Y0462081D03*
X0347990Y0453813D03*
X0340510Y0453813D03*
X0344250Y0462081D03*
X0290990Y0453813D03*
X0283510Y0453813D03*
X0275990Y0453813D03*
X0268510Y0453813D03*
X0272250Y0462081D03*
X0287250Y0462081D03*
X0218990Y0453813D03*
X0211510Y0453813D03*
X0203990Y0453813D03*
X0196510Y0453813D03*
X0200250Y0462081D03*
X0215250Y0462081D03*
X0146990Y0453813D03*
X0139510Y0453813D03*
X0143250Y0462081D03*
X0131990Y0453813D03*
X0124510Y0453813D03*
X0128250Y0462081D03*
X0074990Y0453813D03*
X0067510Y0453813D03*
X0059990Y0453813D03*
X0052510Y0453813D03*
X0056250Y0462081D03*
X0071250Y0462081D03*
X0071250Y0290081D03*
X0067510Y0281813D03*
X0074990Y0281813D03*
X0059990Y0281813D03*
X0052510Y0281813D03*
X0056250Y0290081D03*
X0124510Y0281813D03*
X0131990Y0281813D03*
X0139510Y0281813D03*
X0146990Y0281813D03*
X0143250Y0290081D03*
X0128250Y0290081D03*
X0196510Y0281813D03*
X0203990Y0281813D03*
X0211510Y0281813D03*
X0218990Y0281813D03*
X0215250Y0290081D03*
X0200250Y0290081D03*
X0268510Y0281813D03*
X0275990Y0281813D03*
X0283510Y0281813D03*
X0290990Y0281813D03*
X0287250Y0290081D03*
X0272250Y0290081D03*
X0340510Y0281813D03*
X0347990Y0281813D03*
X0355510Y0281813D03*
X0362990Y0281813D03*
X0359250Y0290081D03*
X0344250Y0290081D03*
X0412510Y0281813D03*
X0419990Y0281813D03*
X0427510Y0281813D03*
X0434990Y0281813D03*
X0431250Y0290081D03*
X0416250Y0290081D03*
X0484510Y0281813D03*
X0491990Y0281813D03*
X0499510Y0281813D03*
X0506990Y0281813D03*
X0503250Y0290081D03*
X0488250Y0290081D03*
X0488250Y0118081D03*
X0484510Y0109813D03*
X0491990Y0109813D03*
X0499510Y0109813D03*
X0506990Y0109813D03*
X0503250Y0118081D03*
X0434990Y0109813D03*
X0427510Y0109813D03*
X0419990Y0109813D03*
X0412510Y0109813D03*
X0416250Y0118081D03*
X0431250Y0118081D03*
X0362990Y0109813D03*
X0355510Y0109813D03*
X0359250Y0118081D03*
X0347990Y0109813D03*
X0340510Y0109813D03*
X0344250Y0118081D03*
X0290990Y0109813D03*
X0283510Y0109813D03*
X0275990Y0109813D03*
X0268510Y0109813D03*
X0272250Y0118081D03*
X0287250Y0118081D03*
X0218990Y0109813D03*
X0211510Y0109813D03*
X0203990Y0109813D03*
X0196510Y0109813D03*
X0200250Y0118081D03*
X0215250Y0118081D03*
X0146990Y0109813D03*
X0139510Y0109813D03*
X0143250Y0118081D03*
X0131990Y0109813D03*
X0124510Y0109813D03*
X0128250Y0118081D03*
X0074990Y0109813D03*
X0067510Y0109813D03*
X0059990Y0109813D03*
X0052510Y0109813D03*
X0056250Y0118081D03*
X0071250Y0118081D03*
M02*
