%
M48
M72
T01C0.0150
T02C0.0400
T03C0.0700
%
T01
X5375Y5375
X5375Y6875
X6975Y8475
X8375Y10375
X7875Y10875
X6075Y11875
X6375Y12725
X6563Y14037
X5375Y14875
X5375Y12875
X5275Y11375
X4830Y10999
X4575Y10675
X5623Y10759
X8375Y13375
X7375Y15375
X7375Y17375
X5375Y22575
X5375Y24075
X6975Y25675
X8375Y27575
X7875Y28075
X6075Y29075
X6375Y29925
X6563Y31237
X5375Y32075
X5375Y30075
X5275Y28575
X4830Y28199
X4575Y27875
X5623Y27959
X8375Y30575
X7375Y32575
X7375Y34575
X5375Y39775
X5375Y41275
X6975Y42875
X8375Y44775
X7875Y45275
X6075Y46275
X6375Y47125
X6563Y48437
X5375Y49275
X5375Y47275
X5275Y45775
X4830Y45399
X4575Y45075
X5623Y45159
X8375Y47775
X7375Y49775
X7375Y51775
X5375Y56975
X5375Y58475
X6975Y60075
X8375Y61975
X7875Y62475
X6075Y63475
X6375Y64325
X6563Y65637
X5375Y66475
X5375Y64475
X5275Y62975
X4830Y62599
X4575Y62275
X5623Y62359
X8375Y64975
X7375Y66975
X7375Y68975
X12575Y66475
X13763Y65637
X13575Y64325
X13275Y63475
X12475Y62975
X12030Y62599
X11775Y62275
X12823Y62359
X12575Y64475
X14575Y66975
X14575Y68975
X15575Y64975
X15075Y62475
X15575Y61975
X14175Y60075
X12575Y58475
X12575Y56975
X14575Y51775
X14575Y49775
X13763Y48437
X13575Y47125
X13275Y46275
X12475Y45775
X12030Y45399
X11775Y45075
X12823Y45159
X12575Y47275
X12575Y49275
X15575Y47775
X15075Y45275
X15575Y44775
X14175Y42875
X12575Y41275
X12575Y39775
X14575Y34575
X14575Y32575
X13763Y31237
X13575Y29925
X13275Y29075
X12475Y28575
X12030Y28199
X11775Y27875
X12823Y27959
X12575Y30075
X12575Y32075
X15575Y30575
X15075Y28075
X15575Y27575
X14175Y25675
X12575Y24075
X12575Y22575
X14575Y17375
X14575Y15375
X13763Y14037
X13575Y12725
X13275Y11875
X12475Y11375
X12030Y10999
X11775Y10675
X12823Y10759
X12575Y12875
X12575Y14875
X15575Y13375
X15075Y10875
X15575Y10375
X14175Y8475
X12575Y6875
X12575Y5375
X18975Y10675
X19230Y10999
X19675Y11375
X20023Y10759
X20475Y11875
X20775Y12725
X19775Y12875
X20963Y14037
X19775Y14875
X21775Y15375
X22775Y13375
X22275Y10875
X22775Y10375
X21375Y8475
X19775Y6875
X19775Y5375
X26175Y10675
X26430Y10999
X26875Y11375
X27223Y10759
X27675Y11875
X27975Y12725
X28163Y14037
X26975Y14875
X26975Y12875
X28975Y15375
X29975Y13375
X29475Y10875
X29975Y10375
X28575Y8475
X26975Y6875
X26975Y5375
X33375Y10675
X33630Y10999
X34075Y11375
X34423Y10759
X34875Y11875
X35175Y12725
X35363Y14037
X34175Y14875
X34175Y12875
X36675Y10875
X37175Y10375
X35775Y8475
X34175Y6875
X34175Y5375
X40575Y10675
X40830Y10999
X41275Y11375
X41623Y10759
X42075Y11875
X42375Y12725
X41375Y12875
X42563Y14037
X41375Y14875
X43375Y15375
X44375Y13375
X43875Y10875
X44375Y10375
X42975Y8475
X41375Y6875
X41375Y5375
X47775Y10675
X48030Y10999
X48475Y11375
X48823Y10759
X49275Y11875
X49575Y12725
X49763Y14037
X48575Y14875
X48575Y12875
X50575Y15375
X51575Y13375
X51075Y10875
X51575Y10375
X50175Y8475
X48575Y6875
X48575Y5375
X50575Y17375
X48575Y22575
X48575Y24075
X50175Y25675
X51575Y27575
X51075Y28075
X49275Y29075
X49575Y29925
X49763Y31237
X48575Y32075
X48575Y30075
X48475Y28575
X48030Y28199
X47775Y27875
X48823Y27959
X51575Y30575
X50575Y32575
X50575Y34575
X48575Y39775
X48575Y41275
X50175Y42875
X51575Y44775
X51075Y45275
X49275Y46275
X49575Y47125
X49763Y48437
X48575Y49275
X48575Y47275
X48475Y45775
X48030Y45399
X47775Y45075
X48823Y45159
X51575Y47775
X50575Y49775
X50575Y51775
X48575Y56975
X48575Y58475
X50175Y60075
X51575Y61975
X51075Y62475
X49275Y63475
X49575Y64325
X49763Y65637
X48575Y66475
X48575Y64475
X48475Y62975
X48030Y62599
X47775Y62275
X48823Y62359
X51575Y64975
X50575Y66975
X50575Y68975
X44375Y64975
X42563Y65637
X42375Y64325
X42075Y63475
X41275Y62975
X40830Y62599
X40575Y62275
X41623Y62359
X41375Y64475
X41375Y66475
X43375Y66975
X43375Y68975
X43875Y62475
X44375Y61975
X42975Y60075
X41375Y58475
X41375Y56975
X43375Y51775
X43375Y49775
X42563Y48437
X42375Y47125
X42075Y46275
X41275Y45775
X40830Y45399
X40575Y45075
X41623Y45159
X41375Y47275
X41375Y49275
X44375Y47775
X43875Y45275
X44375Y44775
X42975Y42875
X41375Y41275
X41375Y39775
X43375Y34575
X43375Y32575
X42563Y31237
X42375Y29925
X42075Y29075
X41275Y28575
X40830Y28199
X40575Y27875
X41623Y27959
X41375Y30075
X41375Y32075
X44375Y30575
X43875Y28075
X44375Y27575
X42975Y25675
X41375Y24075
X41375Y22575
X43375Y17375
X37175Y13375
X36175Y15375
X36175Y17375
X34175Y22575
X34175Y24075
X35775Y25675
X37175Y27575
X36675Y28075
X34875Y29075
X35175Y29925
X35363Y31237
X34175Y32075
X34175Y30075
X34075Y28575
X33630Y28199
X33375Y27875
X34423Y27959
X37175Y30575
X36175Y32575
X36175Y34575
X34175Y39775
X34175Y41275
X35775Y42875
X37175Y44775
X36675Y45275
X34875Y46275
X35175Y47125
X35363Y48437
X34175Y49275
X34175Y47275
X34075Y45775
X33630Y45399
X33375Y45075
X34423Y45159
X37175Y47775
X36175Y49775
X36175Y51775
X34175Y56975
X34175Y58475
X35775Y60075
X37175Y61975
X36675Y62475
X34875Y63475
X35175Y64325
X35363Y65637
X34175Y66475
X34175Y64475
X34075Y62975
X33630Y62599
X33375Y62275
X34423Y62359
X37175Y64975
X36175Y66975
X36175Y68975
X29975Y64975
X28163Y65637
X27975Y64325
X27675Y63475
X26875Y62975
X26430Y62599
X26175Y62275
X27223Y62359
X26975Y64475
X26975Y66475
X28975Y66975
X28975Y68975
X29475Y62475
X29975Y61975
X28575Y60075
X26975Y58475
X26975Y56975
X28975Y51775
X28975Y49775
X28163Y48437
X27975Y47125
X27675Y46275
X26875Y45775
X26430Y45399
X26175Y45075
X27223Y45159
X26975Y47275
X26975Y49275
X29975Y47775
X29475Y45275
X29975Y44775
X28575Y42875
X26975Y41275
X26975Y39775
X28975Y34575
X28975Y32575
X28163Y31237
X27975Y29925
X27675Y29075
X26875Y28575
X26430Y28199
X26175Y27875
X27223Y27959
X26975Y30075
X26975Y32075
X29975Y30575
X29475Y28075
X29975Y27575
X28575Y25675
X26975Y24075
X26975Y22575
X28975Y17375
X21775Y17375
X19775Y22575
X19775Y24075
X21375Y25675
X22775Y27575
X22275Y28075
X20475Y29075
X20775Y29925
X19775Y30075
X19675Y28575
X19230Y28199
X18975Y27875
X20023Y27959
X20963Y31237
X19775Y32075
X21775Y32575
X22775Y30575
X21775Y34575
X19775Y39775
X19775Y41275
X21375Y42875
X22775Y44775
X22275Y45275
X20475Y46275
X20775Y47125
X19775Y47275
X19675Y45775
X19230Y45399
X18975Y45075
X20023Y45159
X20963Y48437
X19775Y49275
X21775Y49775
X21775Y51775
X22775Y47775
X19775Y56975
X19775Y58475
X21375Y60075
X22775Y61975
X22275Y62475
X20475Y63475
X20775Y64325
X19775Y64475
X19675Y62975
X19230Y62599
X18975Y62275
X20023Y62359
X20963Y65637
X19775Y66475
X21775Y66975
X21775Y68975
X22775Y64975
T02
X23775Y64975
X23775Y63975
X23775Y62975
X23775Y61975
X23775Y60975
X23775Y59975
X23775Y58975
X23775Y57975
X23775Y56975
X23775Y55975
X24975Y55975
X24975Y56975
X24975Y57975
X24975Y58975
X24975Y59975
X24975Y60975
X24975Y61975
X24975Y62975
X24975Y63975
X24975Y64975
X24975Y65975
X24975Y66975
X24975Y67975
X24975Y68975
X24975Y69975
X23775Y69975
X23775Y68975
X23775Y67975
X23775Y66975
X23775Y65975
X17775Y65975
X17775Y66975
X17775Y67975
X17775Y68975
X17775Y69975
X16575Y69975
X16575Y68975
X16575Y67975
X16575Y66975
X16575Y65975
X16575Y64975
X16575Y63975
X16575Y62975
X16575Y61975
X16575Y60975
X16575Y59975
X16575Y58975
X16575Y57975
X16575Y56975
X16575Y55975
X17775Y55975
X17775Y56975
X17775Y57975
X17775Y58975
X17775Y59975
X17775Y60975
X17775Y61975
X17775Y62975
X17775Y63975
X17775Y64975
X10575Y64975
X10575Y63975
X10575Y62975
X10575Y61975
X10575Y60975
X10575Y59975
X10575Y58975
X10575Y57975
X10575Y56975
X10575Y55975
X9375Y55975
X9375Y56975
X9375Y57975
X9375Y58975
X9375Y59975
X9375Y60975
X9375Y61975
X9375Y62975
X9375Y63975
X9375Y64975
X9375Y65975
X9375Y66975
X9375Y67975
X9375Y68975
X9375Y69975
X10575Y69975
X10575Y68975
X10575Y67975
X10575Y66975
X10575Y65975
X3375Y65975
X3375Y66975
X3375Y67975
X3375Y68975
X3375Y69975
X3375Y64975
X3375Y63975
X3375Y62975
X3375Y61975
X3375Y60975
X3375Y59975
X3375Y58975
X3375Y57975
X3375Y56975
X3375Y55975
X3375Y52775
X3375Y51775
X3375Y50775
X3375Y49775
X3375Y48775
X3375Y47775
X3375Y46775
X3375Y45775
X3375Y44775
X3375Y43775
X3375Y42775
X3375Y41775
X3375Y40775
X3375Y39775
X3375Y38775
X3375Y35575
X3375Y34575
X3375Y33575
X3375Y32575
X3375Y31575
X3375Y30575
X3375Y29575
X3375Y28575
X3375Y27575
X3375Y26575
X3375Y25575
X3375Y24575
X3375Y23575
X3375Y22575
X3375Y21575
X3375Y18375
X3375Y17375
X3375Y16375
X3375Y15375
X3375Y14375
X3375Y13375
X3375Y12375
X3375Y11375
X3375Y10375
X3375Y9375
X3375Y8375
X3375Y7375
X3375Y6375
X3375Y5375
X3375Y4375
X9375Y4375
X9375Y5375
X9375Y6375
X9375Y7375
X9375Y8375
X9375Y9375
X9375Y10375
X9375Y11375
X9375Y12375
X9375Y13375
X9375Y14375
X9375Y15375
X9375Y16375
X9375Y17375
X9375Y18375
X10575Y18375
X10575Y17375
X10575Y16375
X10575Y15375
X10575Y14375
X10575Y13375
X10575Y12375
X10575Y11375
X10575Y10375
X10575Y9375
X10575Y8375
X10575Y7375
X10575Y6375
X10575Y5375
X10575Y4375
X16575Y4375
X16575Y5375
X16575Y6375
X16575Y7375
X16575Y8375
X16575Y9375
X16575Y10375
X16575Y11375
X16575Y12375
X16575Y13375
X16575Y14375
X16575Y15375
X16575Y16375
X16575Y17375
X16575Y18375
X17775Y18375
X17775Y17375
X17775Y16375
X17775Y15375
X17775Y14375
X17775Y13375
X17775Y12375
X17775Y11375
X17775Y10375
X17775Y9375
X17775Y8375
X17775Y7375
X17775Y6375
X17775Y5375
X17775Y4375
X23775Y4375
X23775Y5375
X23775Y6375
X23775Y7375
X23775Y8375
X23775Y9375
X23775Y10375
X23775Y11375
X23775Y12375
X23775Y13375
X23775Y14375
X23775Y15375
X23775Y16375
X23775Y17375
X23775Y18375
X24975Y18375
X24975Y17375
X24975Y16375
X24975Y15375
X24975Y14375
X24975Y13375
X24975Y12375
X24975Y11375
X24975Y10375
X24975Y9375
X24975Y8375
X24975Y7375
X24975Y6375
X24975Y5375
X24975Y4375
X30975Y4375
X30975Y5375
X30975Y6375
X30975Y7375
X30975Y8375
X30975Y9375
X30975Y10375
X30975Y11375
X30975Y12375
X30975Y13375
X30975Y14375
X30975Y15375
X30975Y16375
X30975Y17375
X30975Y18375
X32175Y18375
X32175Y17375
X32175Y16375
X32175Y15375
X32175Y14375
X32175Y13375
X32175Y12375
X32175Y11375
X32175Y10375
X32175Y9375
X32175Y8375
X32175Y7375
X32175Y6375
X32175Y5375
X32175Y4375
X38175Y4375
X38175Y5375
X38175Y6375
X38175Y7375
X38175Y8375
X38175Y9375
X38175Y10375
X38175Y11375
X38175Y12375
X38175Y13375
X38175Y14375
X38175Y15375
X38175Y16375
X38175Y17375
X38175Y18375
X39375Y18375
X39375Y17375
X39375Y16375
X39375Y15375
X39375Y14375
X39375Y13375
X39375Y12375
X39375Y11375
X39375Y10375
X39375Y9375
X39375Y8375
X39375Y7375
X39375Y6375
X39375Y5375
X39375Y4375
X45375Y4375
X45375Y5375
X45375Y6375
X45375Y7375
X45375Y8375
X45375Y9375
X45375Y10375
X45375Y11375
X45375Y12375
X45375Y13375
X45375Y14375
X45375Y15375
X45375Y16375
X45375Y17375
X45375Y18375
X46575Y18375
X46575Y17375
X46575Y16375
X46575Y15375
X46575Y14375
X46575Y13375
X46575Y12375
X46575Y11375
X46575Y10375
X46575Y9375
X46575Y8375
X46575Y7375
X46575Y6375
X46575Y5375
X46575Y4375
X52575Y4375
X52575Y5375
X52575Y6375
X52575Y7375
X52575Y8375
X52575Y9375
X52575Y10375
X52575Y11375
X52575Y12375
X52575Y13375
X52575Y14375
X52575Y15375
X52575Y16375
X52575Y17375
X52575Y18375
X52575Y21575
X52575Y22575
X52575Y23575
X52575Y24575
X52575Y25575
X52575Y26575
X52575Y27575
X52575Y28575
X52575Y29575
X52575Y30575
X52575Y31575
X52575Y32575
X52575Y33575
X52575Y34575
X52575Y35575
X52575Y38775
X52575Y39775
X52575Y40775
X52575Y41775
X52575Y42775
X52575Y43775
X52575Y44775
X52575Y45775
X52575Y46775
X52575Y47775
X52575Y48775
X52575Y49775
X52575Y50775
X52575Y51775
X52575Y52775
X52575Y55975
X52575Y56975
X52575Y57975
X52575Y58975
X52575Y59975
X52575Y60975
X52575Y61975
X52575Y62975
X52575Y63975
X52575Y64975
X52575Y65975
X52575Y66975
X52575Y67975
X52575Y68975
X52575Y69975
X46575Y69975
X46575Y68975
X46575Y67975
X46575Y66975
X46575Y65975
X46575Y64975
X46575Y63975
X46575Y62975
X46575Y61975
X46575Y60975
X46575Y59975
X46575Y58975
X46575Y57975
X46575Y56975
X46575Y55975
X45375Y55975
X45375Y56975
X45375Y57975
X45375Y58975
X45375Y59975
X45375Y60975
X45375Y61975
X45375Y62975
X45375Y63975
X45375Y64975
X45375Y65975
X45375Y66975
X45375Y67975
X45375Y68975
X45375Y69975
X39375Y69975
X39375Y68975
X39375Y67975
X39375Y66975
X39375Y65975
X39375Y64975
X39375Y63975
X39375Y62975
X39375Y61975
X39375Y60975
X39375Y59975
X39375Y58975
X39375Y57975
X39375Y56975
X39375Y55975
X38175Y55975
X38175Y56975
X38175Y57975
X38175Y58975
X38175Y59975
X38175Y60975
X38175Y61975
X38175Y62975
X38175Y63975
X38175Y64975
X38175Y65975
X38175Y66975
X38175Y67975
X38175Y68975
X38175Y69975
X32175Y69975
X32175Y68975
X32175Y67975
X32175Y66975
X32175Y65975
X32175Y64975
X32175Y63975
X32175Y62975
X32175Y61975
X32175Y60975
X32175Y59975
X32175Y58975
X32175Y57975
X32175Y56975
X32175Y55975
X30975Y55975
X30975Y56975
X30975Y57975
X30975Y58975
X30975Y59975
X30975Y60975
X30975Y61975
X30975Y62975
X30975Y63975
X30975Y64975
X30975Y65975
X30975Y66975
X30975Y67975
X30975Y68975
X30975Y69975
X30975Y52775
X30975Y51775
X30975Y50775
X30975Y49775
X30975Y48775
X30975Y47775
X30975Y46775
X30975Y45775
X30975Y44775
X30975Y43775
X30975Y42775
X30975Y41775
X30975Y40775
X30975Y39775
X30975Y38775
X32175Y38775
X32175Y39775
X32175Y40775
X32175Y41775
X32175Y42775
X32175Y43775
X32175Y44775
X32175Y45775
X32175Y46775
X32175Y47775
X32175Y48775
X32175Y49775
X32175Y50775
X32175Y51775
X32175Y52775
X38175Y52775
X38175Y51775
X38175Y50775
X38175Y49775
X38175Y48775
X38175Y47775
X38175Y46775
X38175Y45775
X38175Y44775
X38175Y43775
X38175Y42775
X38175Y41775
X38175Y40775
X38175Y39775
X38175Y38775
X39375Y38775
X39375Y39775
X39375Y40775
X39375Y41775
X39375Y42775
X39375Y43775
X39375Y44775
X39375Y45775
X39375Y46775
X39375Y47775
X39375Y48775
X39375Y49775
X39375Y50775
X39375Y51775
X39375Y52775
X45375Y52775
X45375Y51775
X45375Y50775
X45375Y49775
X45375Y48775
X45375Y47775
X45375Y46775
X45375Y45775
X45375Y44775
X45375Y43775
X45375Y42775
X45375Y41775
X45375Y40775
X45375Y39775
X45375Y38775
X46575Y38775
X46575Y39775
X46575Y40775
X46575Y41775
X46575Y42775
X46575Y43775
X46575Y44775
X46575Y45775
X46575Y46775
X46575Y47775
X46575Y48775
X46575Y49775
X46575Y50775
X46575Y51775
X46575Y52775
X46575Y35575
X46575Y34575
X46575Y33575
X46575Y32575
X46575Y31575
X46575Y30575
X46575Y29575
X46575Y28575
X46575Y27575
X46575Y26575
X46575Y25575
X46575Y24575
X46575Y23575
X46575Y22575
X46575Y21575
X45375Y21575
X45375Y22575
X45375Y23575
X45375Y24575
X45375Y25575
X45375Y26575
X45375Y27575
X45375Y28575
X45375Y29575
X45375Y30575
X45375Y31575
X45375Y32575
X45375Y33575
X45375Y34575
X45375Y35575
X39375Y35575
X39375Y34575
X39375Y33575
X39375Y32575
X39375Y31575
X39375Y30575
X39375Y29575
X39375Y28575
X39375Y27575
X39375Y26575
X39375Y25575
X39375Y24575
X39375Y23575
X39375Y22575
X39375Y21575
X38175Y21575
X38175Y22575
X38175Y23575
X38175Y24575
X38175Y25575
X38175Y26575
X38175Y27575
X38175Y28575
X38175Y29575
X38175Y30575
X38175Y31575
X38175Y32575
X38175Y33575
X38175Y34575
X38175Y35575
X32175Y35575
X32175Y34575
X32175Y33575
X32175Y32575
X32175Y31575
X32175Y30575
X32175Y29575
X32175Y28575
X32175Y27575
X32175Y26575
X32175Y25575
X32175Y24575
X32175Y23575
X32175Y22575
X32175Y21575
X30975Y21575
X30975Y22575
X30975Y23575
X30975Y24575
X30975Y25575
X30975Y26575
X30975Y27575
X30975Y28575
X30975Y29575
X30975Y30575
X30975Y31575
X30975Y32575
X30975Y33575
X30975Y34575
X30975Y35575
X24975Y35575
X24975Y34575
X24975Y33575
X24975Y32575
X24975Y31575
X24975Y30575
X24975Y29575
X24975Y28575
X24975Y27575
X24975Y26575
X24975Y25575
X24975Y24575
X24975Y23575
X24975Y22575
X24975Y21575
X23775Y21575
X23775Y22575
X23775Y23575
X23775Y24575
X23775Y25575
X23775Y26575
X23775Y27575
X23775Y28575
X23775Y29575
X23775Y30575
X23775Y31575
X23775Y32575
X23775Y33575
X23775Y34575
X23775Y35575
X23775Y38775
X23775Y39775
X23775Y40775
X23775Y41775
X23775Y42775
X23775Y43775
X23775Y44775
X23775Y45775
X23775Y46775
X23775Y47775
X23775Y48775
X23775Y49775
X23775Y50775
X23775Y51775
X23775Y52775
X24975Y52775
X24975Y51775
X24975Y50775
X24975Y49775
X24975Y48775
X24975Y47775
X24975Y46775
X24975Y45775
X24975Y44775
X24975Y43775
X24975Y42775
X24975Y41775
X24975Y40775
X24975Y39775
X24975Y38775
X17775Y38775
X17775Y39775
X17775Y40775
X17775Y41775
X17775Y42775
X17775Y43775
X17775Y44775
X17775Y45775
X17775Y46775
X17775Y47775
X17775Y48775
X17775Y49775
X17775Y50775
X17775Y51775
X17775Y52775
X16575Y52775
X16575Y51775
X16575Y50775
X16575Y49775
X16575Y48775
X16575Y47775
X16575Y46775
X16575Y45775
X16575Y44775
X16575Y43775
X16575Y42775
X16575Y41775
X16575Y40775
X16575Y39775
X16575Y38775
X16575Y35575
X16575Y34575
X16575Y33575
X16575Y32575
X16575Y31575
X16575Y30575
X16575Y29575
X16575Y28575
X16575Y27575
X16575Y26575
X16575Y25575
X16575Y24575
X16575Y23575
X16575Y22575
X16575Y21575
X17775Y21575
X17775Y22575
X17775Y23575
X17775Y24575
X17775Y25575
X17775Y26575
X17775Y27575
X17775Y28575
X17775Y29575
X17775Y30575
X17775Y31575
X17775Y32575
X17775Y33575
X17775Y34575
X17775Y35575
X10575Y35575
X10575Y34575
X10575Y33575
X10575Y32575
X10575Y31575
X10575Y30575
X10575Y29575
X10575Y28575
X10575Y27575
X10575Y26575
X10575Y25575
X10575Y24575
X10575Y23575
X10575Y22575
X10575Y21575
X9375Y21575
X9375Y22575
X9375Y23575
X9375Y24575
X9375Y25575
X9375Y26575
X9375Y27575
X9375Y28575
X9375Y29575
X9375Y30575
X9375Y31575
X9375Y32575
X9375Y33575
X9375Y34575
X9375Y35575
X9375Y38775
X9375Y39775
X9375Y40775
X9375Y41775
X9375Y42775
X9375Y43775
X9375Y44775
X9375Y45775
X9375Y46775
X9375Y47775
X9375Y48775
X9375Y49775
X9375Y50775
X9375Y51775
X9375Y52775
X10575Y52775
X10575Y51775
X10575Y50775
X10575Y49775
X10575Y48775
X10575Y47775
X10575Y46775
X10575Y45775
X10575Y44775
X10575Y43775
X10575Y42775
X10575Y41775
X10575Y40775
X10575Y39775
X10575Y38775
T03
X3375Y3375
X9375Y3375
X10575Y3375
X16575Y3375
X17775Y3375
X23775Y3375
X24975Y3375
X30975Y3375
X32175Y3375
X38175Y3375
X39375Y3375
X45375Y3375
X46575Y3375
X52575Y3375
X52575Y19375
X52575Y20575
X46575Y20575
X46575Y19375
X45375Y19375
X45375Y20575
X39375Y20575
X39375Y19375
X38175Y19375
X38175Y20575
X32175Y20575
X32175Y19375
X30975Y19375
X30975Y20575
X24975Y20575
X24975Y19375
X23775Y19375
X23775Y20575
X17775Y20575
X17775Y19375
X16575Y19375
X16575Y20575
X10575Y20575
X10575Y19375
X9375Y19375
X9375Y20575
X3375Y20575
X3375Y19375
X3375Y36575
X3375Y37775
X9375Y37775
X9375Y36575
X10575Y36575
X10575Y37775
X16575Y37775
X16575Y36575
X17775Y36575
X17775Y37775
X23775Y37775
X23775Y36575
X24975Y36575
X24975Y37775
X30975Y37775
X30975Y36575
X32175Y36575
X32175Y37775
X38175Y37775
X38175Y36575
X39375Y36575
X39375Y37775
X45375Y37775
X45375Y36575
X46575Y36575
X46575Y37775
X52575Y37775
X52575Y36575
X52575Y53775
X52575Y54975
X46575Y54975
X46575Y53775
X45375Y53775
X45375Y54975
X39375Y54975
X39375Y53775
X38175Y53775
X38175Y54975
X32175Y54975
X32175Y53775
X30975Y53775
X30975Y54975
X24975Y54975
X24975Y53775
X23775Y53775
X23775Y54975
X17775Y54975
X17775Y53775
X16575Y53775
X16575Y54975
X10575Y54975
X10575Y53775
X9375Y53775
X9375Y54975
X3375Y54975
X3375Y53775
X3375Y70975
X9375Y70975
X10575Y70975
X16575Y70975
X17775Y70975
X23775Y70975
X24975Y70975
X30975Y70975
X32175Y70975
X38175Y70975
X39375Y70975
X45375Y70975
X46575Y70975
X52575Y70975
M30
