G75*
%MOIN*%
%OFA0B0*%
%FSLAX25Y25*%
%IPPOS*%
%LPD*%
%AMOC8*
5,1,8,0,0,1.08239X$1,22.5*
%
%ADD10C,0.01500*%
%ADD11C,0.01100*%
D10*
X0001750Y0027750D02*
X0582750Y0027750D01*
X0531750Y0001750D02*
X0531750Y0766750D01*
X0582750Y0715750D02*
X0001750Y0715750D01*
X0027750Y0766750D02*
X0027750Y0001750D01*
X0099750Y0001750D02*
X0099750Y0766750D01*
X0171750Y0766750D02*
X0171750Y0001750D01*
X0243750Y0001750D02*
X0243750Y0766750D01*
X0315750Y0766750D02*
X0315750Y0001750D01*
X0387750Y0001750D02*
X0387750Y0766750D01*
X0459750Y0766750D02*
X0459750Y0001750D01*
X0582750Y0199750D02*
X0001750Y0199750D01*
X0001750Y0371750D02*
X0582750Y0371750D01*
X0582750Y0543750D02*
X0001750Y0543750D01*
D11*
X0011852Y0772800D02*
X0013163Y0776733D01*
X0010541Y0776733D02*
X0011852Y0772800D01*
X0015834Y0775094D02*
X0019768Y0775094D01*
X0023136Y0775094D02*
X0024774Y0774439D01*
X0024775Y0774439D02*
X0024827Y0774416D01*
X0024878Y0774389D01*
X0024927Y0774359D01*
X0024974Y0774326D01*
X0025019Y0774290D01*
X0025061Y0774250D01*
X0025100Y0774208D01*
X0025136Y0774164D01*
X0025169Y0774117D01*
X0025199Y0774067D01*
X0025226Y0774016D01*
X0025249Y0773964D01*
X0025268Y0773910D01*
X0025284Y0773854D01*
X0025296Y0773798D01*
X0025304Y0773741D01*
X0025308Y0773684D01*
X0025309Y0773626D01*
X0025305Y0773569D01*
X0025298Y0773512D01*
X0025286Y0773455D01*
X0025271Y0773400D01*
X0025253Y0773345D01*
X0025230Y0773292D01*
X0025204Y0773241D01*
X0025175Y0773192D01*
X0025142Y0773144D01*
X0025106Y0773099D01*
X0025068Y0773057D01*
X0025026Y0773017D01*
X0024982Y0772980D01*
X0024935Y0772946D01*
X0024887Y0772915D01*
X0024836Y0772888D01*
X0024784Y0772864D01*
X0024730Y0772844D01*
X0024675Y0772828D01*
X0024619Y0772815D01*
X0024562Y0772806D01*
X0024504Y0772801D01*
X0024447Y0772800D01*
X0024938Y0776405D02*
X0024831Y0776451D01*
X0024722Y0776494D01*
X0024612Y0776534D01*
X0024500Y0776570D01*
X0024388Y0776602D01*
X0024274Y0776631D01*
X0024160Y0776657D01*
X0024045Y0776678D01*
X0023930Y0776697D01*
X0023813Y0776711D01*
X0023697Y0776722D01*
X0023580Y0776729D01*
X0023463Y0776733D01*
X0023463Y0776734D02*
X0023406Y0776733D01*
X0023348Y0776728D01*
X0023291Y0776719D01*
X0023235Y0776706D01*
X0023180Y0776690D01*
X0023126Y0776670D01*
X0023074Y0776646D01*
X0023023Y0776619D01*
X0022975Y0776588D01*
X0022928Y0776554D01*
X0022884Y0776517D01*
X0022842Y0776477D01*
X0022804Y0776435D01*
X0022768Y0776390D01*
X0022735Y0776342D01*
X0022706Y0776293D01*
X0022680Y0776242D01*
X0022657Y0776189D01*
X0022639Y0776134D01*
X0022624Y0776079D01*
X0022612Y0776022D01*
X0022605Y0775965D01*
X0022601Y0775908D01*
X0022602Y0775850D01*
X0022606Y0775793D01*
X0022614Y0775736D01*
X0022626Y0775680D01*
X0022642Y0775624D01*
X0022661Y0775570D01*
X0022684Y0775518D01*
X0022711Y0775467D01*
X0022741Y0775417D01*
X0022774Y0775370D01*
X0022810Y0775326D01*
X0022849Y0775284D01*
X0022891Y0775244D01*
X0022936Y0775208D01*
X0022983Y0775175D01*
X0023032Y0775145D01*
X0023083Y0775118D01*
X0023135Y0775095D01*
X0022644Y0773128D02*
X0022778Y0773082D01*
X0022913Y0773039D01*
X0023049Y0773000D01*
X0023186Y0772964D01*
X0023323Y0772932D01*
X0023462Y0772903D01*
X0023601Y0772877D01*
X0023741Y0772856D01*
X0023882Y0772837D01*
X0024022Y0772823D01*
X0024164Y0772812D01*
X0024305Y0772804D01*
X0024447Y0772801D01*
X0027988Y0773783D02*
X0027988Y0775750D01*
X0027990Y0775812D01*
X0027996Y0775873D01*
X0028005Y0775934D01*
X0028019Y0775994D01*
X0028036Y0776054D01*
X0028057Y0776112D01*
X0028082Y0776169D01*
X0028110Y0776224D01*
X0028141Y0776277D01*
X0028176Y0776328D01*
X0028214Y0776377D01*
X0028254Y0776423D01*
X0028298Y0776467D01*
X0028344Y0776507D01*
X0028393Y0776545D01*
X0028444Y0776580D01*
X0028497Y0776611D01*
X0028552Y0776639D01*
X0028609Y0776664D01*
X0028667Y0776685D01*
X0028727Y0776702D01*
X0028787Y0776716D01*
X0028848Y0776725D01*
X0028909Y0776731D01*
X0028971Y0776733D01*
X0030282Y0776733D01*
X0032695Y0775422D02*
X0032695Y0774111D01*
X0032696Y0774111D02*
X0032698Y0774040D01*
X0032704Y0773969D01*
X0032713Y0773899D01*
X0032727Y0773829D01*
X0032744Y0773760D01*
X0032765Y0773692D01*
X0032789Y0773626D01*
X0032817Y0773561D01*
X0032849Y0773497D01*
X0032884Y0773435D01*
X0032922Y0773375D01*
X0032963Y0773318D01*
X0033008Y0773262D01*
X0033055Y0773209D01*
X0033105Y0773159D01*
X0033158Y0773112D01*
X0033214Y0773067D01*
X0033271Y0773026D01*
X0033331Y0772988D01*
X0033393Y0772953D01*
X0033457Y0772921D01*
X0033522Y0772893D01*
X0033588Y0772869D01*
X0033656Y0772848D01*
X0033725Y0772831D01*
X0033795Y0772817D01*
X0033865Y0772808D01*
X0033936Y0772802D01*
X0034007Y0772800D01*
X0034078Y0772802D01*
X0034149Y0772808D01*
X0034219Y0772817D01*
X0034289Y0772831D01*
X0034358Y0772848D01*
X0034426Y0772869D01*
X0034492Y0772893D01*
X0034557Y0772921D01*
X0034621Y0772953D01*
X0034683Y0772988D01*
X0034743Y0773026D01*
X0034800Y0773067D01*
X0034856Y0773112D01*
X0034909Y0773159D01*
X0034959Y0773209D01*
X0035006Y0773262D01*
X0035051Y0773318D01*
X0035092Y0773375D01*
X0035130Y0773435D01*
X0035165Y0773497D01*
X0035197Y0773561D01*
X0035225Y0773626D01*
X0035249Y0773692D01*
X0035270Y0773760D01*
X0035287Y0773829D01*
X0035301Y0773899D01*
X0035310Y0773969D01*
X0035316Y0774040D01*
X0035318Y0774111D01*
X0035318Y0775422D01*
X0035316Y0775493D01*
X0035310Y0775564D01*
X0035301Y0775634D01*
X0035287Y0775704D01*
X0035270Y0775773D01*
X0035249Y0775841D01*
X0035225Y0775907D01*
X0035197Y0775972D01*
X0035165Y0776036D01*
X0035130Y0776098D01*
X0035092Y0776158D01*
X0035051Y0776215D01*
X0035006Y0776271D01*
X0034959Y0776324D01*
X0034909Y0776374D01*
X0034856Y0776421D01*
X0034800Y0776466D01*
X0034743Y0776507D01*
X0034683Y0776545D01*
X0034621Y0776580D01*
X0034557Y0776612D01*
X0034492Y0776640D01*
X0034426Y0776664D01*
X0034358Y0776685D01*
X0034289Y0776702D01*
X0034219Y0776716D01*
X0034149Y0776725D01*
X0034078Y0776731D01*
X0034007Y0776733D01*
X0033936Y0776731D01*
X0033865Y0776725D01*
X0033795Y0776716D01*
X0033725Y0776702D01*
X0033656Y0776685D01*
X0033588Y0776664D01*
X0033522Y0776640D01*
X0033457Y0776612D01*
X0033393Y0776580D01*
X0033331Y0776545D01*
X0033271Y0776507D01*
X0033214Y0776466D01*
X0033158Y0776421D01*
X0033105Y0776374D01*
X0033055Y0776324D01*
X0033008Y0776271D01*
X0032963Y0776215D01*
X0032922Y0776158D01*
X0032884Y0776098D01*
X0032849Y0776036D01*
X0032817Y0775972D01*
X0032789Y0775907D01*
X0032765Y0775841D01*
X0032744Y0775773D01*
X0032727Y0775704D01*
X0032713Y0775634D01*
X0032704Y0775564D01*
X0032698Y0775493D01*
X0032696Y0775422D01*
X0030282Y0772800D02*
X0028971Y0772800D01*
X0028909Y0772802D01*
X0028848Y0772808D01*
X0028787Y0772817D01*
X0028727Y0772831D01*
X0028667Y0772848D01*
X0028609Y0772869D01*
X0028552Y0772894D01*
X0028497Y0772922D01*
X0028444Y0772953D01*
X0028393Y0772988D01*
X0028344Y0773026D01*
X0028298Y0773066D01*
X0028254Y0773110D01*
X0028214Y0773156D01*
X0028176Y0773205D01*
X0028141Y0773256D01*
X0028110Y0773309D01*
X0028082Y0773364D01*
X0028057Y0773421D01*
X0028036Y0773479D01*
X0028019Y0773539D01*
X0028005Y0773599D01*
X0027996Y0773660D01*
X0027990Y0773721D01*
X0027988Y0773783D01*
X0038284Y0772800D02*
X0038284Y0776733D01*
X0040251Y0776733D01*
X0040251Y0776078D01*
X0042337Y0775422D02*
X0042337Y0773783D01*
X0042339Y0773721D01*
X0042345Y0773660D01*
X0042354Y0773599D01*
X0042368Y0773539D01*
X0042385Y0773479D01*
X0042406Y0773421D01*
X0042431Y0773364D01*
X0042459Y0773309D01*
X0042490Y0773256D01*
X0042525Y0773205D01*
X0042563Y0773156D01*
X0042603Y0773110D01*
X0042647Y0773066D01*
X0042693Y0773026D01*
X0042742Y0772988D01*
X0042793Y0772953D01*
X0042846Y0772922D01*
X0042901Y0772894D01*
X0042958Y0772869D01*
X0043016Y0772848D01*
X0043076Y0772831D01*
X0043136Y0772817D01*
X0043197Y0772808D01*
X0043258Y0772802D01*
X0043320Y0772800D01*
X0044959Y0772800D01*
X0044959Y0774767D02*
X0042337Y0774767D01*
X0042337Y0775422D02*
X0042339Y0775493D01*
X0042345Y0775564D01*
X0042354Y0775634D01*
X0042368Y0775704D01*
X0042385Y0775773D01*
X0042406Y0775841D01*
X0042430Y0775907D01*
X0042458Y0775972D01*
X0042490Y0776036D01*
X0042525Y0776098D01*
X0042563Y0776158D01*
X0042604Y0776215D01*
X0042649Y0776271D01*
X0042696Y0776324D01*
X0042746Y0776374D01*
X0042799Y0776421D01*
X0042855Y0776466D01*
X0042912Y0776507D01*
X0042972Y0776545D01*
X0043034Y0776580D01*
X0043098Y0776612D01*
X0043163Y0776640D01*
X0043229Y0776664D01*
X0043297Y0776685D01*
X0043366Y0776702D01*
X0043436Y0776716D01*
X0043506Y0776725D01*
X0043577Y0776731D01*
X0043648Y0776733D01*
X0043719Y0776731D01*
X0043790Y0776725D01*
X0043860Y0776716D01*
X0043930Y0776702D01*
X0043999Y0776685D01*
X0044067Y0776664D01*
X0044133Y0776640D01*
X0044198Y0776612D01*
X0044262Y0776580D01*
X0044324Y0776545D01*
X0044384Y0776507D01*
X0044441Y0776466D01*
X0044497Y0776421D01*
X0044550Y0776374D01*
X0044600Y0776324D01*
X0044647Y0776271D01*
X0044692Y0776215D01*
X0044733Y0776158D01*
X0044771Y0776098D01*
X0044806Y0776036D01*
X0044838Y0775972D01*
X0044866Y0775907D01*
X0044890Y0775841D01*
X0044911Y0775773D01*
X0044928Y0775704D01*
X0044942Y0775634D01*
X0044951Y0775564D01*
X0044957Y0775493D01*
X0044959Y0775422D01*
X0044959Y0774767D01*
X0082541Y0776733D02*
X0083852Y0772800D01*
X0085163Y0776733D01*
X0087834Y0775094D02*
X0091768Y0775094D01*
X0095136Y0775094D02*
X0096774Y0774439D01*
X0096775Y0774439D02*
X0096827Y0774416D01*
X0096878Y0774389D01*
X0096927Y0774359D01*
X0096974Y0774326D01*
X0097019Y0774290D01*
X0097061Y0774250D01*
X0097100Y0774208D01*
X0097136Y0774164D01*
X0097169Y0774117D01*
X0097199Y0774067D01*
X0097226Y0774016D01*
X0097249Y0773964D01*
X0097268Y0773910D01*
X0097284Y0773854D01*
X0097296Y0773798D01*
X0097304Y0773741D01*
X0097308Y0773684D01*
X0097309Y0773626D01*
X0097305Y0773569D01*
X0097298Y0773512D01*
X0097286Y0773455D01*
X0097271Y0773400D01*
X0097253Y0773345D01*
X0097230Y0773292D01*
X0097204Y0773241D01*
X0097175Y0773192D01*
X0097142Y0773144D01*
X0097106Y0773099D01*
X0097068Y0773057D01*
X0097026Y0773017D01*
X0096982Y0772980D01*
X0096935Y0772946D01*
X0096887Y0772915D01*
X0096836Y0772888D01*
X0096784Y0772864D01*
X0096730Y0772844D01*
X0096675Y0772828D01*
X0096619Y0772815D01*
X0096562Y0772806D01*
X0096504Y0772801D01*
X0096447Y0772800D01*
X0096938Y0776405D02*
X0096831Y0776451D01*
X0096722Y0776494D01*
X0096612Y0776534D01*
X0096500Y0776570D01*
X0096388Y0776602D01*
X0096274Y0776631D01*
X0096160Y0776657D01*
X0096045Y0776678D01*
X0095930Y0776697D01*
X0095813Y0776711D01*
X0095697Y0776722D01*
X0095580Y0776729D01*
X0095463Y0776733D01*
X0095463Y0776734D02*
X0095406Y0776733D01*
X0095348Y0776728D01*
X0095291Y0776719D01*
X0095235Y0776706D01*
X0095180Y0776690D01*
X0095126Y0776670D01*
X0095074Y0776646D01*
X0095023Y0776619D01*
X0094975Y0776588D01*
X0094928Y0776554D01*
X0094884Y0776517D01*
X0094842Y0776477D01*
X0094804Y0776435D01*
X0094768Y0776390D01*
X0094735Y0776342D01*
X0094706Y0776293D01*
X0094680Y0776242D01*
X0094657Y0776189D01*
X0094639Y0776134D01*
X0094624Y0776079D01*
X0094612Y0776022D01*
X0094605Y0775965D01*
X0094601Y0775908D01*
X0094602Y0775850D01*
X0094606Y0775793D01*
X0094614Y0775736D01*
X0094626Y0775680D01*
X0094642Y0775624D01*
X0094661Y0775570D01*
X0094684Y0775518D01*
X0094711Y0775467D01*
X0094741Y0775417D01*
X0094774Y0775370D01*
X0094810Y0775326D01*
X0094849Y0775284D01*
X0094891Y0775244D01*
X0094936Y0775208D01*
X0094983Y0775175D01*
X0095032Y0775145D01*
X0095083Y0775118D01*
X0095135Y0775095D01*
X0094644Y0773128D02*
X0094778Y0773082D01*
X0094913Y0773039D01*
X0095049Y0773000D01*
X0095186Y0772964D01*
X0095323Y0772932D01*
X0095462Y0772903D01*
X0095601Y0772877D01*
X0095741Y0772856D01*
X0095882Y0772837D01*
X0096022Y0772823D01*
X0096164Y0772812D01*
X0096305Y0772804D01*
X0096447Y0772801D01*
X0099988Y0773783D02*
X0099988Y0775750D01*
X0099990Y0775812D01*
X0099996Y0775873D01*
X0100005Y0775934D01*
X0100019Y0775994D01*
X0100036Y0776054D01*
X0100057Y0776112D01*
X0100082Y0776169D01*
X0100110Y0776224D01*
X0100141Y0776277D01*
X0100176Y0776328D01*
X0100214Y0776377D01*
X0100254Y0776423D01*
X0100298Y0776467D01*
X0100344Y0776507D01*
X0100393Y0776545D01*
X0100444Y0776580D01*
X0100497Y0776611D01*
X0100552Y0776639D01*
X0100609Y0776664D01*
X0100667Y0776685D01*
X0100727Y0776702D01*
X0100787Y0776716D01*
X0100848Y0776725D01*
X0100909Y0776731D01*
X0100971Y0776733D01*
X0102282Y0776733D01*
X0104695Y0775422D02*
X0104695Y0774111D01*
X0104696Y0774111D02*
X0104698Y0774040D01*
X0104704Y0773969D01*
X0104713Y0773899D01*
X0104727Y0773829D01*
X0104744Y0773760D01*
X0104765Y0773692D01*
X0104789Y0773626D01*
X0104817Y0773561D01*
X0104849Y0773497D01*
X0104884Y0773435D01*
X0104922Y0773375D01*
X0104963Y0773318D01*
X0105008Y0773262D01*
X0105055Y0773209D01*
X0105105Y0773159D01*
X0105158Y0773112D01*
X0105214Y0773067D01*
X0105271Y0773026D01*
X0105331Y0772988D01*
X0105393Y0772953D01*
X0105457Y0772921D01*
X0105522Y0772893D01*
X0105588Y0772869D01*
X0105656Y0772848D01*
X0105725Y0772831D01*
X0105795Y0772817D01*
X0105865Y0772808D01*
X0105936Y0772802D01*
X0106007Y0772800D01*
X0106078Y0772802D01*
X0106149Y0772808D01*
X0106219Y0772817D01*
X0106289Y0772831D01*
X0106358Y0772848D01*
X0106426Y0772869D01*
X0106492Y0772893D01*
X0106557Y0772921D01*
X0106621Y0772953D01*
X0106683Y0772988D01*
X0106743Y0773026D01*
X0106800Y0773067D01*
X0106856Y0773112D01*
X0106909Y0773159D01*
X0106959Y0773209D01*
X0107006Y0773262D01*
X0107051Y0773318D01*
X0107092Y0773375D01*
X0107130Y0773435D01*
X0107165Y0773497D01*
X0107197Y0773561D01*
X0107225Y0773626D01*
X0107249Y0773692D01*
X0107270Y0773760D01*
X0107287Y0773829D01*
X0107301Y0773899D01*
X0107310Y0773969D01*
X0107316Y0774040D01*
X0107318Y0774111D01*
X0107318Y0775422D01*
X0107316Y0775493D01*
X0107310Y0775564D01*
X0107301Y0775634D01*
X0107287Y0775704D01*
X0107270Y0775773D01*
X0107249Y0775841D01*
X0107225Y0775907D01*
X0107197Y0775972D01*
X0107165Y0776036D01*
X0107130Y0776098D01*
X0107092Y0776158D01*
X0107051Y0776215D01*
X0107006Y0776271D01*
X0106959Y0776324D01*
X0106909Y0776374D01*
X0106856Y0776421D01*
X0106800Y0776466D01*
X0106743Y0776507D01*
X0106683Y0776545D01*
X0106621Y0776580D01*
X0106557Y0776612D01*
X0106492Y0776640D01*
X0106426Y0776664D01*
X0106358Y0776685D01*
X0106289Y0776702D01*
X0106219Y0776716D01*
X0106149Y0776725D01*
X0106078Y0776731D01*
X0106007Y0776733D01*
X0105936Y0776731D01*
X0105865Y0776725D01*
X0105795Y0776716D01*
X0105725Y0776702D01*
X0105656Y0776685D01*
X0105588Y0776664D01*
X0105522Y0776640D01*
X0105457Y0776612D01*
X0105393Y0776580D01*
X0105331Y0776545D01*
X0105271Y0776507D01*
X0105214Y0776466D01*
X0105158Y0776421D01*
X0105105Y0776374D01*
X0105055Y0776324D01*
X0105008Y0776271D01*
X0104963Y0776215D01*
X0104922Y0776158D01*
X0104884Y0776098D01*
X0104849Y0776036D01*
X0104817Y0775972D01*
X0104789Y0775907D01*
X0104765Y0775841D01*
X0104744Y0775773D01*
X0104727Y0775704D01*
X0104713Y0775634D01*
X0104704Y0775564D01*
X0104698Y0775493D01*
X0104696Y0775422D01*
X0102282Y0772800D02*
X0100971Y0772800D01*
X0100909Y0772802D01*
X0100848Y0772808D01*
X0100787Y0772817D01*
X0100727Y0772831D01*
X0100667Y0772848D01*
X0100609Y0772869D01*
X0100552Y0772894D01*
X0100497Y0772922D01*
X0100444Y0772953D01*
X0100393Y0772988D01*
X0100344Y0773026D01*
X0100298Y0773066D01*
X0100254Y0773110D01*
X0100214Y0773156D01*
X0100176Y0773205D01*
X0100141Y0773256D01*
X0100110Y0773309D01*
X0100082Y0773364D01*
X0100057Y0773421D01*
X0100036Y0773479D01*
X0100019Y0773539D01*
X0100005Y0773599D01*
X0099996Y0773660D01*
X0099990Y0773721D01*
X0099988Y0773783D01*
X0110284Y0772800D02*
X0110284Y0776733D01*
X0112251Y0776733D01*
X0112251Y0776078D01*
X0114337Y0775422D02*
X0114337Y0773783D01*
X0114339Y0773721D01*
X0114345Y0773660D01*
X0114354Y0773599D01*
X0114368Y0773539D01*
X0114385Y0773479D01*
X0114406Y0773421D01*
X0114431Y0773364D01*
X0114459Y0773309D01*
X0114490Y0773256D01*
X0114525Y0773205D01*
X0114563Y0773156D01*
X0114603Y0773110D01*
X0114647Y0773066D01*
X0114693Y0773026D01*
X0114742Y0772988D01*
X0114793Y0772953D01*
X0114846Y0772922D01*
X0114901Y0772894D01*
X0114958Y0772869D01*
X0115016Y0772848D01*
X0115076Y0772831D01*
X0115136Y0772817D01*
X0115197Y0772808D01*
X0115258Y0772802D01*
X0115320Y0772800D01*
X0116959Y0772800D01*
X0116959Y0774767D02*
X0114337Y0774767D01*
X0114337Y0775422D02*
X0114339Y0775493D01*
X0114345Y0775564D01*
X0114354Y0775634D01*
X0114368Y0775704D01*
X0114385Y0775773D01*
X0114406Y0775841D01*
X0114430Y0775907D01*
X0114458Y0775972D01*
X0114490Y0776036D01*
X0114525Y0776098D01*
X0114563Y0776158D01*
X0114604Y0776215D01*
X0114649Y0776271D01*
X0114696Y0776324D01*
X0114746Y0776374D01*
X0114799Y0776421D01*
X0114855Y0776466D01*
X0114912Y0776507D01*
X0114972Y0776545D01*
X0115034Y0776580D01*
X0115098Y0776612D01*
X0115163Y0776640D01*
X0115229Y0776664D01*
X0115297Y0776685D01*
X0115366Y0776702D01*
X0115436Y0776716D01*
X0115506Y0776725D01*
X0115577Y0776731D01*
X0115648Y0776733D01*
X0115719Y0776731D01*
X0115790Y0776725D01*
X0115860Y0776716D01*
X0115930Y0776702D01*
X0115999Y0776685D01*
X0116067Y0776664D01*
X0116133Y0776640D01*
X0116198Y0776612D01*
X0116262Y0776580D01*
X0116324Y0776545D01*
X0116384Y0776507D01*
X0116441Y0776466D01*
X0116497Y0776421D01*
X0116550Y0776374D01*
X0116600Y0776324D01*
X0116647Y0776271D01*
X0116692Y0776215D01*
X0116733Y0776158D01*
X0116771Y0776098D01*
X0116806Y0776036D01*
X0116838Y0775972D01*
X0116866Y0775907D01*
X0116890Y0775841D01*
X0116911Y0775773D01*
X0116928Y0775704D01*
X0116942Y0775634D01*
X0116951Y0775564D01*
X0116957Y0775493D01*
X0116959Y0775422D01*
X0116959Y0774767D01*
X0154541Y0776733D02*
X0155852Y0772800D01*
X0157163Y0776733D01*
X0159834Y0775094D02*
X0163768Y0775094D01*
X0167136Y0775094D02*
X0168774Y0774439D01*
X0168775Y0774439D02*
X0168827Y0774416D01*
X0168878Y0774389D01*
X0168927Y0774359D01*
X0168974Y0774326D01*
X0169019Y0774290D01*
X0169061Y0774250D01*
X0169100Y0774208D01*
X0169136Y0774164D01*
X0169169Y0774117D01*
X0169199Y0774067D01*
X0169226Y0774016D01*
X0169249Y0773964D01*
X0169268Y0773910D01*
X0169284Y0773854D01*
X0169296Y0773798D01*
X0169304Y0773741D01*
X0169308Y0773684D01*
X0169309Y0773626D01*
X0169305Y0773569D01*
X0169298Y0773512D01*
X0169286Y0773455D01*
X0169271Y0773400D01*
X0169253Y0773345D01*
X0169230Y0773292D01*
X0169204Y0773241D01*
X0169175Y0773192D01*
X0169142Y0773144D01*
X0169106Y0773099D01*
X0169068Y0773057D01*
X0169026Y0773017D01*
X0168982Y0772980D01*
X0168935Y0772946D01*
X0168887Y0772915D01*
X0168836Y0772888D01*
X0168784Y0772864D01*
X0168730Y0772844D01*
X0168675Y0772828D01*
X0168619Y0772815D01*
X0168562Y0772806D01*
X0168504Y0772801D01*
X0168447Y0772800D01*
X0168938Y0776405D02*
X0168831Y0776451D01*
X0168722Y0776494D01*
X0168612Y0776534D01*
X0168500Y0776570D01*
X0168388Y0776602D01*
X0168274Y0776631D01*
X0168160Y0776657D01*
X0168045Y0776678D01*
X0167930Y0776697D01*
X0167813Y0776711D01*
X0167697Y0776722D01*
X0167580Y0776729D01*
X0167463Y0776733D01*
X0167463Y0776734D02*
X0167406Y0776733D01*
X0167348Y0776728D01*
X0167291Y0776719D01*
X0167235Y0776706D01*
X0167180Y0776690D01*
X0167126Y0776670D01*
X0167074Y0776646D01*
X0167023Y0776619D01*
X0166975Y0776588D01*
X0166928Y0776554D01*
X0166884Y0776517D01*
X0166842Y0776477D01*
X0166804Y0776435D01*
X0166768Y0776390D01*
X0166735Y0776342D01*
X0166706Y0776293D01*
X0166680Y0776242D01*
X0166657Y0776189D01*
X0166639Y0776134D01*
X0166624Y0776079D01*
X0166612Y0776022D01*
X0166605Y0775965D01*
X0166601Y0775908D01*
X0166602Y0775850D01*
X0166606Y0775793D01*
X0166614Y0775736D01*
X0166626Y0775680D01*
X0166642Y0775624D01*
X0166661Y0775570D01*
X0166684Y0775518D01*
X0166711Y0775467D01*
X0166741Y0775417D01*
X0166774Y0775370D01*
X0166810Y0775326D01*
X0166849Y0775284D01*
X0166891Y0775244D01*
X0166936Y0775208D01*
X0166983Y0775175D01*
X0167032Y0775145D01*
X0167083Y0775118D01*
X0167135Y0775095D01*
X0166644Y0773128D02*
X0166778Y0773082D01*
X0166913Y0773039D01*
X0167049Y0773000D01*
X0167186Y0772964D01*
X0167323Y0772932D01*
X0167462Y0772903D01*
X0167601Y0772877D01*
X0167741Y0772856D01*
X0167882Y0772837D01*
X0168022Y0772823D01*
X0168164Y0772812D01*
X0168305Y0772804D01*
X0168447Y0772801D01*
X0171988Y0773783D02*
X0171988Y0775750D01*
X0171990Y0775812D01*
X0171996Y0775873D01*
X0172005Y0775934D01*
X0172019Y0775994D01*
X0172036Y0776054D01*
X0172057Y0776112D01*
X0172082Y0776169D01*
X0172110Y0776224D01*
X0172141Y0776277D01*
X0172176Y0776328D01*
X0172214Y0776377D01*
X0172254Y0776423D01*
X0172298Y0776467D01*
X0172344Y0776507D01*
X0172393Y0776545D01*
X0172444Y0776580D01*
X0172497Y0776611D01*
X0172552Y0776639D01*
X0172609Y0776664D01*
X0172667Y0776685D01*
X0172727Y0776702D01*
X0172787Y0776716D01*
X0172848Y0776725D01*
X0172909Y0776731D01*
X0172971Y0776733D01*
X0174282Y0776733D01*
X0176695Y0775422D02*
X0176695Y0774111D01*
X0176696Y0774111D02*
X0176698Y0774040D01*
X0176704Y0773969D01*
X0176713Y0773899D01*
X0176727Y0773829D01*
X0176744Y0773760D01*
X0176765Y0773692D01*
X0176789Y0773626D01*
X0176817Y0773561D01*
X0176849Y0773497D01*
X0176884Y0773435D01*
X0176922Y0773375D01*
X0176963Y0773318D01*
X0177008Y0773262D01*
X0177055Y0773209D01*
X0177105Y0773159D01*
X0177158Y0773112D01*
X0177214Y0773067D01*
X0177271Y0773026D01*
X0177331Y0772988D01*
X0177393Y0772953D01*
X0177457Y0772921D01*
X0177522Y0772893D01*
X0177588Y0772869D01*
X0177656Y0772848D01*
X0177725Y0772831D01*
X0177795Y0772817D01*
X0177865Y0772808D01*
X0177936Y0772802D01*
X0178007Y0772800D01*
X0178078Y0772802D01*
X0178149Y0772808D01*
X0178219Y0772817D01*
X0178289Y0772831D01*
X0178358Y0772848D01*
X0178426Y0772869D01*
X0178492Y0772893D01*
X0178557Y0772921D01*
X0178621Y0772953D01*
X0178683Y0772988D01*
X0178743Y0773026D01*
X0178800Y0773067D01*
X0178856Y0773112D01*
X0178909Y0773159D01*
X0178959Y0773209D01*
X0179006Y0773262D01*
X0179051Y0773318D01*
X0179092Y0773375D01*
X0179130Y0773435D01*
X0179165Y0773497D01*
X0179197Y0773561D01*
X0179225Y0773626D01*
X0179249Y0773692D01*
X0179270Y0773760D01*
X0179287Y0773829D01*
X0179301Y0773899D01*
X0179310Y0773969D01*
X0179316Y0774040D01*
X0179318Y0774111D01*
X0179318Y0775422D01*
X0179316Y0775493D01*
X0179310Y0775564D01*
X0179301Y0775634D01*
X0179287Y0775704D01*
X0179270Y0775773D01*
X0179249Y0775841D01*
X0179225Y0775907D01*
X0179197Y0775972D01*
X0179165Y0776036D01*
X0179130Y0776098D01*
X0179092Y0776158D01*
X0179051Y0776215D01*
X0179006Y0776271D01*
X0178959Y0776324D01*
X0178909Y0776374D01*
X0178856Y0776421D01*
X0178800Y0776466D01*
X0178743Y0776507D01*
X0178683Y0776545D01*
X0178621Y0776580D01*
X0178557Y0776612D01*
X0178492Y0776640D01*
X0178426Y0776664D01*
X0178358Y0776685D01*
X0178289Y0776702D01*
X0178219Y0776716D01*
X0178149Y0776725D01*
X0178078Y0776731D01*
X0178007Y0776733D01*
X0177936Y0776731D01*
X0177865Y0776725D01*
X0177795Y0776716D01*
X0177725Y0776702D01*
X0177656Y0776685D01*
X0177588Y0776664D01*
X0177522Y0776640D01*
X0177457Y0776612D01*
X0177393Y0776580D01*
X0177331Y0776545D01*
X0177271Y0776507D01*
X0177214Y0776466D01*
X0177158Y0776421D01*
X0177105Y0776374D01*
X0177055Y0776324D01*
X0177008Y0776271D01*
X0176963Y0776215D01*
X0176922Y0776158D01*
X0176884Y0776098D01*
X0176849Y0776036D01*
X0176817Y0775972D01*
X0176789Y0775907D01*
X0176765Y0775841D01*
X0176744Y0775773D01*
X0176727Y0775704D01*
X0176713Y0775634D01*
X0176704Y0775564D01*
X0176698Y0775493D01*
X0176696Y0775422D01*
X0174282Y0772800D02*
X0172971Y0772800D01*
X0172909Y0772802D01*
X0172848Y0772808D01*
X0172787Y0772817D01*
X0172727Y0772831D01*
X0172667Y0772848D01*
X0172609Y0772869D01*
X0172552Y0772894D01*
X0172497Y0772922D01*
X0172444Y0772953D01*
X0172393Y0772988D01*
X0172344Y0773026D01*
X0172298Y0773066D01*
X0172254Y0773110D01*
X0172214Y0773156D01*
X0172176Y0773205D01*
X0172141Y0773256D01*
X0172110Y0773309D01*
X0172082Y0773364D01*
X0172057Y0773421D01*
X0172036Y0773479D01*
X0172019Y0773539D01*
X0172005Y0773599D01*
X0171996Y0773660D01*
X0171990Y0773721D01*
X0171988Y0773783D01*
X0182284Y0772800D02*
X0182284Y0776733D01*
X0184251Y0776733D01*
X0184251Y0776078D01*
X0186337Y0775422D02*
X0186337Y0773783D01*
X0186339Y0773721D01*
X0186345Y0773660D01*
X0186354Y0773599D01*
X0186368Y0773539D01*
X0186385Y0773479D01*
X0186406Y0773421D01*
X0186431Y0773364D01*
X0186459Y0773309D01*
X0186490Y0773256D01*
X0186525Y0773205D01*
X0186563Y0773156D01*
X0186603Y0773110D01*
X0186647Y0773066D01*
X0186693Y0773026D01*
X0186742Y0772988D01*
X0186793Y0772953D01*
X0186846Y0772922D01*
X0186901Y0772894D01*
X0186958Y0772869D01*
X0187016Y0772848D01*
X0187076Y0772831D01*
X0187136Y0772817D01*
X0187197Y0772808D01*
X0187258Y0772802D01*
X0187320Y0772800D01*
X0188959Y0772800D01*
X0188959Y0774767D02*
X0186337Y0774767D01*
X0186337Y0775422D02*
X0186339Y0775493D01*
X0186345Y0775564D01*
X0186354Y0775634D01*
X0186368Y0775704D01*
X0186385Y0775773D01*
X0186406Y0775841D01*
X0186430Y0775907D01*
X0186458Y0775972D01*
X0186490Y0776036D01*
X0186525Y0776098D01*
X0186563Y0776158D01*
X0186604Y0776215D01*
X0186649Y0776271D01*
X0186696Y0776324D01*
X0186746Y0776374D01*
X0186799Y0776421D01*
X0186855Y0776466D01*
X0186912Y0776507D01*
X0186972Y0776545D01*
X0187034Y0776580D01*
X0187098Y0776612D01*
X0187163Y0776640D01*
X0187229Y0776664D01*
X0187297Y0776685D01*
X0187366Y0776702D01*
X0187436Y0776716D01*
X0187506Y0776725D01*
X0187577Y0776731D01*
X0187648Y0776733D01*
X0187719Y0776731D01*
X0187790Y0776725D01*
X0187860Y0776716D01*
X0187930Y0776702D01*
X0187999Y0776685D01*
X0188067Y0776664D01*
X0188133Y0776640D01*
X0188198Y0776612D01*
X0188262Y0776580D01*
X0188324Y0776545D01*
X0188384Y0776507D01*
X0188441Y0776466D01*
X0188497Y0776421D01*
X0188550Y0776374D01*
X0188600Y0776324D01*
X0188647Y0776271D01*
X0188692Y0776215D01*
X0188733Y0776158D01*
X0188771Y0776098D01*
X0188806Y0776036D01*
X0188838Y0775972D01*
X0188866Y0775907D01*
X0188890Y0775841D01*
X0188911Y0775773D01*
X0188928Y0775704D01*
X0188942Y0775634D01*
X0188951Y0775564D01*
X0188957Y0775493D01*
X0188959Y0775422D01*
X0188959Y0774767D01*
X0226541Y0776733D02*
X0227852Y0772800D01*
X0229163Y0776733D01*
X0231834Y0775094D02*
X0235768Y0775094D01*
X0239136Y0775094D02*
X0240774Y0774439D01*
X0240775Y0774439D02*
X0240827Y0774416D01*
X0240878Y0774389D01*
X0240927Y0774359D01*
X0240974Y0774326D01*
X0241019Y0774290D01*
X0241061Y0774250D01*
X0241100Y0774208D01*
X0241136Y0774164D01*
X0241169Y0774117D01*
X0241199Y0774067D01*
X0241226Y0774016D01*
X0241249Y0773964D01*
X0241268Y0773910D01*
X0241284Y0773854D01*
X0241296Y0773798D01*
X0241304Y0773741D01*
X0241308Y0773684D01*
X0241309Y0773626D01*
X0241305Y0773569D01*
X0241298Y0773512D01*
X0241286Y0773455D01*
X0241271Y0773400D01*
X0241253Y0773345D01*
X0241230Y0773292D01*
X0241204Y0773241D01*
X0241175Y0773192D01*
X0241142Y0773144D01*
X0241106Y0773099D01*
X0241068Y0773057D01*
X0241026Y0773017D01*
X0240982Y0772980D01*
X0240935Y0772946D01*
X0240887Y0772915D01*
X0240836Y0772888D01*
X0240784Y0772864D01*
X0240730Y0772844D01*
X0240675Y0772828D01*
X0240619Y0772815D01*
X0240562Y0772806D01*
X0240504Y0772801D01*
X0240447Y0772800D01*
X0240938Y0776405D02*
X0240831Y0776451D01*
X0240722Y0776494D01*
X0240612Y0776534D01*
X0240500Y0776570D01*
X0240388Y0776602D01*
X0240274Y0776631D01*
X0240160Y0776657D01*
X0240045Y0776678D01*
X0239930Y0776697D01*
X0239813Y0776711D01*
X0239697Y0776722D01*
X0239580Y0776729D01*
X0239463Y0776733D01*
X0239463Y0776734D02*
X0239406Y0776733D01*
X0239348Y0776728D01*
X0239291Y0776719D01*
X0239235Y0776706D01*
X0239180Y0776690D01*
X0239126Y0776670D01*
X0239074Y0776646D01*
X0239023Y0776619D01*
X0238975Y0776588D01*
X0238928Y0776554D01*
X0238884Y0776517D01*
X0238842Y0776477D01*
X0238804Y0776435D01*
X0238768Y0776390D01*
X0238735Y0776342D01*
X0238706Y0776293D01*
X0238680Y0776242D01*
X0238657Y0776189D01*
X0238639Y0776134D01*
X0238624Y0776079D01*
X0238612Y0776022D01*
X0238605Y0775965D01*
X0238601Y0775908D01*
X0238602Y0775850D01*
X0238606Y0775793D01*
X0238614Y0775736D01*
X0238626Y0775680D01*
X0238642Y0775624D01*
X0238661Y0775570D01*
X0238684Y0775518D01*
X0238711Y0775467D01*
X0238741Y0775417D01*
X0238774Y0775370D01*
X0238810Y0775326D01*
X0238849Y0775284D01*
X0238891Y0775244D01*
X0238936Y0775208D01*
X0238983Y0775175D01*
X0239032Y0775145D01*
X0239083Y0775118D01*
X0239135Y0775095D01*
X0238644Y0773128D02*
X0238778Y0773082D01*
X0238913Y0773039D01*
X0239049Y0773000D01*
X0239186Y0772964D01*
X0239323Y0772932D01*
X0239462Y0772903D01*
X0239601Y0772877D01*
X0239741Y0772856D01*
X0239882Y0772837D01*
X0240022Y0772823D01*
X0240164Y0772812D01*
X0240305Y0772804D01*
X0240447Y0772801D01*
X0243988Y0773783D02*
X0243988Y0775750D01*
X0243990Y0775812D01*
X0243996Y0775873D01*
X0244005Y0775934D01*
X0244019Y0775994D01*
X0244036Y0776054D01*
X0244057Y0776112D01*
X0244082Y0776169D01*
X0244110Y0776224D01*
X0244141Y0776277D01*
X0244176Y0776328D01*
X0244214Y0776377D01*
X0244254Y0776423D01*
X0244298Y0776467D01*
X0244344Y0776507D01*
X0244393Y0776545D01*
X0244444Y0776580D01*
X0244497Y0776611D01*
X0244552Y0776639D01*
X0244609Y0776664D01*
X0244667Y0776685D01*
X0244727Y0776702D01*
X0244787Y0776716D01*
X0244848Y0776725D01*
X0244909Y0776731D01*
X0244971Y0776733D01*
X0246282Y0776733D01*
X0248695Y0775422D02*
X0248695Y0774111D01*
X0248696Y0774111D02*
X0248698Y0774040D01*
X0248704Y0773969D01*
X0248713Y0773899D01*
X0248727Y0773829D01*
X0248744Y0773760D01*
X0248765Y0773692D01*
X0248789Y0773626D01*
X0248817Y0773561D01*
X0248849Y0773497D01*
X0248884Y0773435D01*
X0248922Y0773375D01*
X0248963Y0773318D01*
X0249008Y0773262D01*
X0249055Y0773209D01*
X0249105Y0773159D01*
X0249158Y0773112D01*
X0249214Y0773067D01*
X0249271Y0773026D01*
X0249331Y0772988D01*
X0249393Y0772953D01*
X0249457Y0772921D01*
X0249522Y0772893D01*
X0249588Y0772869D01*
X0249656Y0772848D01*
X0249725Y0772831D01*
X0249795Y0772817D01*
X0249865Y0772808D01*
X0249936Y0772802D01*
X0250007Y0772800D01*
X0250078Y0772802D01*
X0250149Y0772808D01*
X0250219Y0772817D01*
X0250289Y0772831D01*
X0250358Y0772848D01*
X0250426Y0772869D01*
X0250492Y0772893D01*
X0250557Y0772921D01*
X0250621Y0772953D01*
X0250683Y0772988D01*
X0250743Y0773026D01*
X0250800Y0773067D01*
X0250856Y0773112D01*
X0250909Y0773159D01*
X0250959Y0773209D01*
X0251006Y0773262D01*
X0251051Y0773318D01*
X0251092Y0773375D01*
X0251130Y0773435D01*
X0251165Y0773497D01*
X0251197Y0773561D01*
X0251225Y0773626D01*
X0251249Y0773692D01*
X0251270Y0773760D01*
X0251287Y0773829D01*
X0251301Y0773899D01*
X0251310Y0773969D01*
X0251316Y0774040D01*
X0251318Y0774111D01*
X0251318Y0775422D01*
X0251316Y0775493D01*
X0251310Y0775564D01*
X0251301Y0775634D01*
X0251287Y0775704D01*
X0251270Y0775773D01*
X0251249Y0775841D01*
X0251225Y0775907D01*
X0251197Y0775972D01*
X0251165Y0776036D01*
X0251130Y0776098D01*
X0251092Y0776158D01*
X0251051Y0776215D01*
X0251006Y0776271D01*
X0250959Y0776324D01*
X0250909Y0776374D01*
X0250856Y0776421D01*
X0250800Y0776466D01*
X0250743Y0776507D01*
X0250683Y0776545D01*
X0250621Y0776580D01*
X0250557Y0776612D01*
X0250492Y0776640D01*
X0250426Y0776664D01*
X0250358Y0776685D01*
X0250289Y0776702D01*
X0250219Y0776716D01*
X0250149Y0776725D01*
X0250078Y0776731D01*
X0250007Y0776733D01*
X0249936Y0776731D01*
X0249865Y0776725D01*
X0249795Y0776716D01*
X0249725Y0776702D01*
X0249656Y0776685D01*
X0249588Y0776664D01*
X0249522Y0776640D01*
X0249457Y0776612D01*
X0249393Y0776580D01*
X0249331Y0776545D01*
X0249271Y0776507D01*
X0249214Y0776466D01*
X0249158Y0776421D01*
X0249105Y0776374D01*
X0249055Y0776324D01*
X0249008Y0776271D01*
X0248963Y0776215D01*
X0248922Y0776158D01*
X0248884Y0776098D01*
X0248849Y0776036D01*
X0248817Y0775972D01*
X0248789Y0775907D01*
X0248765Y0775841D01*
X0248744Y0775773D01*
X0248727Y0775704D01*
X0248713Y0775634D01*
X0248704Y0775564D01*
X0248698Y0775493D01*
X0248696Y0775422D01*
X0246282Y0772800D02*
X0244971Y0772800D01*
X0244909Y0772802D01*
X0244848Y0772808D01*
X0244787Y0772817D01*
X0244727Y0772831D01*
X0244667Y0772848D01*
X0244609Y0772869D01*
X0244552Y0772894D01*
X0244497Y0772922D01*
X0244444Y0772953D01*
X0244393Y0772988D01*
X0244344Y0773026D01*
X0244298Y0773066D01*
X0244254Y0773110D01*
X0244214Y0773156D01*
X0244176Y0773205D01*
X0244141Y0773256D01*
X0244110Y0773309D01*
X0244082Y0773364D01*
X0244057Y0773421D01*
X0244036Y0773479D01*
X0244019Y0773539D01*
X0244005Y0773599D01*
X0243996Y0773660D01*
X0243990Y0773721D01*
X0243988Y0773783D01*
X0254284Y0772800D02*
X0254284Y0776733D01*
X0256251Y0776733D01*
X0256251Y0776078D01*
X0258337Y0775422D02*
X0258337Y0773783D01*
X0258339Y0773721D01*
X0258345Y0773660D01*
X0258354Y0773599D01*
X0258368Y0773539D01*
X0258385Y0773479D01*
X0258406Y0773421D01*
X0258431Y0773364D01*
X0258459Y0773309D01*
X0258490Y0773256D01*
X0258525Y0773205D01*
X0258563Y0773156D01*
X0258603Y0773110D01*
X0258647Y0773066D01*
X0258693Y0773026D01*
X0258742Y0772988D01*
X0258793Y0772953D01*
X0258846Y0772922D01*
X0258901Y0772894D01*
X0258958Y0772869D01*
X0259016Y0772848D01*
X0259076Y0772831D01*
X0259136Y0772817D01*
X0259197Y0772808D01*
X0259258Y0772802D01*
X0259320Y0772800D01*
X0260959Y0772800D01*
X0260959Y0774767D02*
X0258337Y0774767D01*
X0258337Y0775422D02*
X0258339Y0775493D01*
X0258345Y0775564D01*
X0258354Y0775634D01*
X0258368Y0775704D01*
X0258385Y0775773D01*
X0258406Y0775841D01*
X0258430Y0775907D01*
X0258458Y0775972D01*
X0258490Y0776036D01*
X0258525Y0776098D01*
X0258563Y0776158D01*
X0258604Y0776215D01*
X0258649Y0776271D01*
X0258696Y0776324D01*
X0258746Y0776374D01*
X0258799Y0776421D01*
X0258855Y0776466D01*
X0258912Y0776507D01*
X0258972Y0776545D01*
X0259034Y0776580D01*
X0259098Y0776612D01*
X0259163Y0776640D01*
X0259229Y0776664D01*
X0259297Y0776685D01*
X0259366Y0776702D01*
X0259436Y0776716D01*
X0259506Y0776725D01*
X0259577Y0776731D01*
X0259648Y0776733D01*
X0259719Y0776731D01*
X0259790Y0776725D01*
X0259860Y0776716D01*
X0259930Y0776702D01*
X0259999Y0776685D01*
X0260067Y0776664D01*
X0260133Y0776640D01*
X0260198Y0776612D01*
X0260262Y0776580D01*
X0260324Y0776545D01*
X0260384Y0776507D01*
X0260441Y0776466D01*
X0260497Y0776421D01*
X0260550Y0776374D01*
X0260600Y0776324D01*
X0260647Y0776271D01*
X0260692Y0776215D01*
X0260733Y0776158D01*
X0260771Y0776098D01*
X0260806Y0776036D01*
X0260838Y0775972D01*
X0260866Y0775907D01*
X0260890Y0775841D01*
X0260911Y0775773D01*
X0260928Y0775704D01*
X0260942Y0775634D01*
X0260951Y0775564D01*
X0260957Y0775493D01*
X0260959Y0775422D01*
X0260959Y0774767D01*
X0298541Y0776733D02*
X0299852Y0772800D01*
X0301163Y0776733D01*
X0303834Y0775094D02*
X0307768Y0775094D01*
X0311136Y0775094D02*
X0312774Y0774439D01*
X0312775Y0774439D02*
X0312827Y0774416D01*
X0312878Y0774389D01*
X0312927Y0774359D01*
X0312974Y0774326D01*
X0313019Y0774290D01*
X0313061Y0774250D01*
X0313100Y0774208D01*
X0313136Y0774164D01*
X0313169Y0774117D01*
X0313199Y0774067D01*
X0313226Y0774016D01*
X0313249Y0773964D01*
X0313268Y0773910D01*
X0313284Y0773854D01*
X0313296Y0773798D01*
X0313304Y0773741D01*
X0313308Y0773684D01*
X0313309Y0773626D01*
X0313305Y0773569D01*
X0313298Y0773512D01*
X0313286Y0773455D01*
X0313271Y0773400D01*
X0313253Y0773345D01*
X0313230Y0773292D01*
X0313204Y0773241D01*
X0313175Y0773192D01*
X0313142Y0773144D01*
X0313106Y0773099D01*
X0313068Y0773057D01*
X0313026Y0773017D01*
X0312982Y0772980D01*
X0312935Y0772946D01*
X0312887Y0772915D01*
X0312836Y0772888D01*
X0312784Y0772864D01*
X0312730Y0772844D01*
X0312675Y0772828D01*
X0312619Y0772815D01*
X0312562Y0772806D01*
X0312504Y0772801D01*
X0312447Y0772800D01*
X0312938Y0776405D02*
X0312831Y0776451D01*
X0312722Y0776494D01*
X0312612Y0776534D01*
X0312500Y0776570D01*
X0312388Y0776602D01*
X0312274Y0776631D01*
X0312160Y0776657D01*
X0312045Y0776678D01*
X0311930Y0776697D01*
X0311813Y0776711D01*
X0311697Y0776722D01*
X0311580Y0776729D01*
X0311463Y0776733D01*
X0311463Y0776734D02*
X0311406Y0776733D01*
X0311348Y0776728D01*
X0311291Y0776719D01*
X0311235Y0776706D01*
X0311180Y0776690D01*
X0311126Y0776670D01*
X0311074Y0776646D01*
X0311023Y0776619D01*
X0310975Y0776588D01*
X0310928Y0776554D01*
X0310884Y0776517D01*
X0310842Y0776477D01*
X0310804Y0776435D01*
X0310768Y0776390D01*
X0310735Y0776342D01*
X0310706Y0776293D01*
X0310680Y0776242D01*
X0310657Y0776189D01*
X0310639Y0776134D01*
X0310624Y0776079D01*
X0310612Y0776022D01*
X0310605Y0775965D01*
X0310601Y0775908D01*
X0310602Y0775850D01*
X0310606Y0775793D01*
X0310614Y0775736D01*
X0310626Y0775680D01*
X0310642Y0775624D01*
X0310661Y0775570D01*
X0310684Y0775518D01*
X0310711Y0775467D01*
X0310741Y0775417D01*
X0310774Y0775370D01*
X0310810Y0775326D01*
X0310849Y0775284D01*
X0310891Y0775244D01*
X0310936Y0775208D01*
X0310983Y0775175D01*
X0311032Y0775145D01*
X0311083Y0775118D01*
X0311135Y0775095D01*
X0310644Y0773128D02*
X0310778Y0773082D01*
X0310913Y0773039D01*
X0311049Y0773000D01*
X0311186Y0772964D01*
X0311323Y0772932D01*
X0311462Y0772903D01*
X0311601Y0772877D01*
X0311741Y0772856D01*
X0311882Y0772837D01*
X0312022Y0772823D01*
X0312164Y0772812D01*
X0312305Y0772804D01*
X0312447Y0772801D01*
X0315988Y0773783D02*
X0315988Y0775750D01*
X0315990Y0775812D01*
X0315996Y0775873D01*
X0316005Y0775934D01*
X0316019Y0775994D01*
X0316036Y0776054D01*
X0316057Y0776112D01*
X0316082Y0776169D01*
X0316110Y0776224D01*
X0316141Y0776277D01*
X0316176Y0776328D01*
X0316214Y0776377D01*
X0316254Y0776423D01*
X0316298Y0776467D01*
X0316344Y0776507D01*
X0316393Y0776545D01*
X0316444Y0776580D01*
X0316497Y0776611D01*
X0316552Y0776639D01*
X0316609Y0776664D01*
X0316667Y0776685D01*
X0316727Y0776702D01*
X0316787Y0776716D01*
X0316848Y0776725D01*
X0316909Y0776731D01*
X0316971Y0776733D01*
X0318282Y0776733D01*
X0320695Y0775422D02*
X0320695Y0774111D01*
X0320696Y0774111D02*
X0320698Y0774040D01*
X0320704Y0773969D01*
X0320713Y0773899D01*
X0320727Y0773829D01*
X0320744Y0773760D01*
X0320765Y0773692D01*
X0320789Y0773626D01*
X0320817Y0773561D01*
X0320849Y0773497D01*
X0320884Y0773435D01*
X0320922Y0773375D01*
X0320963Y0773318D01*
X0321008Y0773262D01*
X0321055Y0773209D01*
X0321105Y0773159D01*
X0321158Y0773112D01*
X0321214Y0773067D01*
X0321271Y0773026D01*
X0321331Y0772988D01*
X0321393Y0772953D01*
X0321457Y0772921D01*
X0321522Y0772893D01*
X0321588Y0772869D01*
X0321656Y0772848D01*
X0321725Y0772831D01*
X0321795Y0772817D01*
X0321865Y0772808D01*
X0321936Y0772802D01*
X0322007Y0772800D01*
X0322078Y0772802D01*
X0322149Y0772808D01*
X0322219Y0772817D01*
X0322289Y0772831D01*
X0322358Y0772848D01*
X0322426Y0772869D01*
X0322492Y0772893D01*
X0322557Y0772921D01*
X0322621Y0772953D01*
X0322683Y0772988D01*
X0322743Y0773026D01*
X0322800Y0773067D01*
X0322856Y0773112D01*
X0322909Y0773159D01*
X0322959Y0773209D01*
X0323006Y0773262D01*
X0323051Y0773318D01*
X0323092Y0773375D01*
X0323130Y0773435D01*
X0323165Y0773497D01*
X0323197Y0773561D01*
X0323225Y0773626D01*
X0323249Y0773692D01*
X0323270Y0773760D01*
X0323287Y0773829D01*
X0323301Y0773899D01*
X0323310Y0773969D01*
X0323316Y0774040D01*
X0323318Y0774111D01*
X0323318Y0775422D01*
X0323316Y0775493D01*
X0323310Y0775564D01*
X0323301Y0775634D01*
X0323287Y0775704D01*
X0323270Y0775773D01*
X0323249Y0775841D01*
X0323225Y0775907D01*
X0323197Y0775972D01*
X0323165Y0776036D01*
X0323130Y0776098D01*
X0323092Y0776158D01*
X0323051Y0776215D01*
X0323006Y0776271D01*
X0322959Y0776324D01*
X0322909Y0776374D01*
X0322856Y0776421D01*
X0322800Y0776466D01*
X0322743Y0776507D01*
X0322683Y0776545D01*
X0322621Y0776580D01*
X0322557Y0776612D01*
X0322492Y0776640D01*
X0322426Y0776664D01*
X0322358Y0776685D01*
X0322289Y0776702D01*
X0322219Y0776716D01*
X0322149Y0776725D01*
X0322078Y0776731D01*
X0322007Y0776733D01*
X0321936Y0776731D01*
X0321865Y0776725D01*
X0321795Y0776716D01*
X0321725Y0776702D01*
X0321656Y0776685D01*
X0321588Y0776664D01*
X0321522Y0776640D01*
X0321457Y0776612D01*
X0321393Y0776580D01*
X0321331Y0776545D01*
X0321271Y0776507D01*
X0321214Y0776466D01*
X0321158Y0776421D01*
X0321105Y0776374D01*
X0321055Y0776324D01*
X0321008Y0776271D01*
X0320963Y0776215D01*
X0320922Y0776158D01*
X0320884Y0776098D01*
X0320849Y0776036D01*
X0320817Y0775972D01*
X0320789Y0775907D01*
X0320765Y0775841D01*
X0320744Y0775773D01*
X0320727Y0775704D01*
X0320713Y0775634D01*
X0320704Y0775564D01*
X0320698Y0775493D01*
X0320696Y0775422D01*
X0318282Y0772800D02*
X0316971Y0772800D01*
X0316909Y0772802D01*
X0316848Y0772808D01*
X0316787Y0772817D01*
X0316727Y0772831D01*
X0316667Y0772848D01*
X0316609Y0772869D01*
X0316552Y0772894D01*
X0316497Y0772922D01*
X0316444Y0772953D01*
X0316393Y0772988D01*
X0316344Y0773026D01*
X0316298Y0773066D01*
X0316254Y0773110D01*
X0316214Y0773156D01*
X0316176Y0773205D01*
X0316141Y0773256D01*
X0316110Y0773309D01*
X0316082Y0773364D01*
X0316057Y0773421D01*
X0316036Y0773479D01*
X0316019Y0773539D01*
X0316005Y0773599D01*
X0315996Y0773660D01*
X0315990Y0773721D01*
X0315988Y0773783D01*
X0326284Y0772800D02*
X0326284Y0776733D01*
X0328251Y0776733D01*
X0328251Y0776078D01*
X0330337Y0775422D02*
X0330337Y0773783D01*
X0330339Y0773721D01*
X0330345Y0773660D01*
X0330354Y0773599D01*
X0330368Y0773539D01*
X0330385Y0773479D01*
X0330406Y0773421D01*
X0330431Y0773364D01*
X0330459Y0773309D01*
X0330490Y0773256D01*
X0330525Y0773205D01*
X0330563Y0773156D01*
X0330603Y0773110D01*
X0330647Y0773066D01*
X0330693Y0773026D01*
X0330742Y0772988D01*
X0330793Y0772953D01*
X0330846Y0772922D01*
X0330901Y0772894D01*
X0330958Y0772869D01*
X0331016Y0772848D01*
X0331076Y0772831D01*
X0331136Y0772817D01*
X0331197Y0772808D01*
X0331258Y0772802D01*
X0331320Y0772800D01*
X0332959Y0772800D01*
X0332959Y0774767D02*
X0330337Y0774767D01*
X0330337Y0775422D02*
X0330339Y0775493D01*
X0330345Y0775564D01*
X0330354Y0775634D01*
X0330368Y0775704D01*
X0330385Y0775773D01*
X0330406Y0775841D01*
X0330430Y0775907D01*
X0330458Y0775972D01*
X0330490Y0776036D01*
X0330525Y0776098D01*
X0330563Y0776158D01*
X0330604Y0776215D01*
X0330649Y0776271D01*
X0330696Y0776324D01*
X0330746Y0776374D01*
X0330799Y0776421D01*
X0330855Y0776466D01*
X0330912Y0776507D01*
X0330972Y0776545D01*
X0331034Y0776580D01*
X0331098Y0776612D01*
X0331163Y0776640D01*
X0331229Y0776664D01*
X0331297Y0776685D01*
X0331366Y0776702D01*
X0331436Y0776716D01*
X0331506Y0776725D01*
X0331577Y0776731D01*
X0331648Y0776733D01*
X0331719Y0776731D01*
X0331790Y0776725D01*
X0331860Y0776716D01*
X0331930Y0776702D01*
X0331999Y0776685D01*
X0332067Y0776664D01*
X0332133Y0776640D01*
X0332198Y0776612D01*
X0332262Y0776580D01*
X0332324Y0776545D01*
X0332384Y0776507D01*
X0332441Y0776466D01*
X0332497Y0776421D01*
X0332550Y0776374D01*
X0332600Y0776324D01*
X0332647Y0776271D01*
X0332692Y0776215D01*
X0332733Y0776158D01*
X0332771Y0776098D01*
X0332806Y0776036D01*
X0332838Y0775972D01*
X0332866Y0775907D01*
X0332890Y0775841D01*
X0332911Y0775773D01*
X0332928Y0775704D01*
X0332942Y0775634D01*
X0332951Y0775564D01*
X0332957Y0775493D01*
X0332959Y0775422D01*
X0332959Y0774767D01*
X0370541Y0776733D02*
X0371852Y0772800D01*
X0373163Y0776733D01*
X0375834Y0775094D02*
X0379768Y0775094D01*
X0383136Y0775094D02*
X0384774Y0774439D01*
X0384775Y0774439D02*
X0384827Y0774416D01*
X0384878Y0774389D01*
X0384927Y0774359D01*
X0384974Y0774326D01*
X0385019Y0774290D01*
X0385061Y0774250D01*
X0385100Y0774208D01*
X0385136Y0774164D01*
X0385169Y0774117D01*
X0385199Y0774067D01*
X0385226Y0774016D01*
X0385249Y0773964D01*
X0385268Y0773910D01*
X0385284Y0773854D01*
X0385296Y0773798D01*
X0385304Y0773741D01*
X0385308Y0773684D01*
X0385309Y0773626D01*
X0385305Y0773569D01*
X0385298Y0773512D01*
X0385286Y0773455D01*
X0385271Y0773400D01*
X0385253Y0773345D01*
X0385230Y0773292D01*
X0385204Y0773241D01*
X0385175Y0773192D01*
X0385142Y0773144D01*
X0385106Y0773099D01*
X0385068Y0773057D01*
X0385026Y0773017D01*
X0384982Y0772980D01*
X0384935Y0772946D01*
X0384887Y0772915D01*
X0384836Y0772888D01*
X0384784Y0772864D01*
X0384730Y0772844D01*
X0384675Y0772828D01*
X0384619Y0772815D01*
X0384562Y0772806D01*
X0384504Y0772801D01*
X0384447Y0772800D01*
X0384938Y0776405D02*
X0384831Y0776451D01*
X0384722Y0776494D01*
X0384612Y0776534D01*
X0384500Y0776570D01*
X0384388Y0776602D01*
X0384274Y0776631D01*
X0384160Y0776657D01*
X0384045Y0776678D01*
X0383930Y0776697D01*
X0383813Y0776711D01*
X0383697Y0776722D01*
X0383580Y0776729D01*
X0383463Y0776733D01*
X0383463Y0776734D02*
X0383406Y0776733D01*
X0383348Y0776728D01*
X0383291Y0776719D01*
X0383235Y0776706D01*
X0383180Y0776690D01*
X0383126Y0776670D01*
X0383074Y0776646D01*
X0383023Y0776619D01*
X0382975Y0776588D01*
X0382928Y0776554D01*
X0382884Y0776517D01*
X0382842Y0776477D01*
X0382804Y0776435D01*
X0382768Y0776390D01*
X0382735Y0776342D01*
X0382706Y0776293D01*
X0382680Y0776242D01*
X0382657Y0776189D01*
X0382639Y0776134D01*
X0382624Y0776079D01*
X0382612Y0776022D01*
X0382605Y0775965D01*
X0382601Y0775908D01*
X0382602Y0775850D01*
X0382606Y0775793D01*
X0382614Y0775736D01*
X0382626Y0775680D01*
X0382642Y0775624D01*
X0382661Y0775570D01*
X0382684Y0775518D01*
X0382711Y0775467D01*
X0382741Y0775417D01*
X0382774Y0775370D01*
X0382810Y0775326D01*
X0382849Y0775284D01*
X0382891Y0775244D01*
X0382936Y0775208D01*
X0382983Y0775175D01*
X0383032Y0775145D01*
X0383083Y0775118D01*
X0383135Y0775095D01*
X0382644Y0773128D02*
X0382778Y0773082D01*
X0382913Y0773039D01*
X0383049Y0773000D01*
X0383186Y0772964D01*
X0383323Y0772932D01*
X0383462Y0772903D01*
X0383601Y0772877D01*
X0383741Y0772856D01*
X0383882Y0772837D01*
X0384022Y0772823D01*
X0384164Y0772812D01*
X0384305Y0772804D01*
X0384447Y0772801D01*
X0387988Y0773783D02*
X0387988Y0775750D01*
X0387990Y0775812D01*
X0387996Y0775873D01*
X0388005Y0775934D01*
X0388019Y0775994D01*
X0388036Y0776054D01*
X0388057Y0776112D01*
X0388082Y0776169D01*
X0388110Y0776224D01*
X0388141Y0776277D01*
X0388176Y0776328D01*
X0388214Y0776377D01*
X0388254Y0776423D01*
X0388298Y0776467D01*
X0388344Y0776507D01*
X0388393Y0776545D01*
X0388444Y0776580D01*
X0388497Y0776611D01*
X0388552Y0776639D01*
X0388609Y0776664D01*
X0388667Y0776685D01*
X0388727Y0776702D01*
X0388787Y0776716D01*
X0388848Y0776725D01*
X0388909Y0776731D01*
X0388971Y0776733D01*
X0390282Y0776733D01*
X0392695Y0775422D02*
X0392695Y0774111D01*
X0392696Y0774111D02*
X0392698Y0774040D01*
X0392704Y0773969D01*
X0392713Y0773899D01*
X0392727Y0773829D01*
X0392744Y0773760D01*
X0392765Y0773692D01*
X0392789Y0773626D01*
X0392817Y0773561D01*
X0392849Y0773497D01*
X0392884Y0773435D01*
X0392922Y0773375D01*
X0392963Y0773318D01*
X0393008Y0773262D01*
X0393055Y0773209D01*
X0393105Y0773159D01*
X0393158Y0773112D01*
X0393214Y0773067D01*
X0393271Y0773026D01*
X0393331Y0772988D01*
X0393393Y0772953D01*
X0393457Y0772921D01*
X0393522Y0772893D01*
X0393588Y0772869D01*
X0393656Y0772848D01*
X0393725Y0772831D01*
X0393795Y0772817D01*
X0393865Y0772808D01*
X0393936Y0772802D01*
X0394007Y0772800D01*
X0394078Y0772802D01*
X0394149Y0772808D01*
X0394219Y0772817D01*
X0394289Y0772831D01*
X0394358Y0772848D01*
X0394426Y0772869D01*
X0394492Y0772893D01*
X0394557Y0772921D01*
X0394621Y0772953D01*
X0394683Y0772988D01*
X0394743Y0773026D01*
X0394800Y0773067D01*
X0394856Y0773112D01*
X0394909Y0773159D01*
X0394959Y0773209D01*
X0395006Y0773262D01*
X0395051Y0773318D01*
X0395092Y0773375D01*
X0395130Y0773435D01*
X0395165Y0773497D01*
X0395197Y0773561D01*
X0395225Y0773626D01*
X0395249Y0773692D01*
X0395270Y0773760D01*
X0395287Y0773829D01*
X0395301Y0773899D01*
X0395310Y0773969D01*
X0395316Y0774040D01*
X0395318Y0774111D01*
X0395318Y0775422D01*
X0395316Y0775493D01*
X0395310Y0775564D01*
X0395301Y0775634D01*
X0395287Y0775704D01*
X0395270Y0775773D01*
X0395249Y0775841D01*
X0395225Y0775907D01*
X0395197Y0775972D01*
X0395165Y0776036D01*
X0395130Y0776098D01*
X0395092Y0776158D01*
X0395051Y0776215D01*
X0395006Y0776271D01*
X0394959Y0776324D01*
X0394909Y0776374D01*
X0394856Y0776421D01*
X0394800Y0776466D01*
X0394743Y0776507D01*
X0394683Y0776545D01*
X0394621Y0776580D01*
X0394557Y0776612D01*
X0394492Y0776640D01*
X0394426Y0776664D01*
X0394358Y0776685D01*
X0394289Y0776702D01*
X0394219Y0776716D01*
X0394149Y0776725D01*
X0394078Y0776731D01*
X0394007Y0776733D01*
X0393936Y0776731D01*
X0393865Y0776725D01*
X0393795Y0776716D01*
X0393725Y0776702D01*
X0393656Y0776685D01*
X0393588Y0776664D01*
X0393522Y0776640D01*
X0393457Y0776612D01*
X0393393Y0776580D01*
X0393331Y0776545D01*
X0393271Y0776507D01*
X0393214Y0776466D01*
X0393158Y0776421D01*
X0393105Y0776374D01*
X0393055Y0776324D01*
X0393008Y0776271D01*
X0392963Y0776215D01*
X0392922Y0776158D01*
X0392884Y0776098D01*
X0392849Y0776036D01*
X0392817Y0775972D01*
X0392789Y0775907D01*
X0392765Y0775841D01*
X0392744Y0775773D01*
X0392727Y0775704D01*
X0392713Y0775634D01*
X0392704Y0775564D01*
X0392698Y0775493D01*
X0392696Y0775422D01*
X0390282Y0772800D02*
X0388971Y0772800D01*
X0388909Y0772802D01*
X0388848Y0772808D01*
X0388787Y0772817D01*
X0388727Y0772831D01*
X0388667Y0772848D01*
X0388609Y0772869D01*
X0388552Y0772894D01*
X0388497Y0772922D01*
X0388444Y0772953D01*
X0388393Y0772988D01*
X0388344Y0773026D01*
X0388298Y0773066D01*
X0388254Y0773110D01*
X0388214Y0773156D01*
X0388176Y0773205D01*
X0388141Y0773256D01*
X0388110Y0773309D01*
X0388082Y0773364D01*
X0388057Y0773421D01*
X0388036Y0773479D01*
X0388019Y0773539D01*
X0388005Y0773599D01*
X0387996Y0773660D01*
X0387990Y0773721D01*
X0387988Y0773783D01*
X0398284Y0772800D02*
X0398284Y0776733D01*
X0400251Y0776733D01*
X0400251Y0776078D01*
X0402337Y0775422D02*
X0402337Y0773783D01*
X0402339Y0773721D01*
X0402345Y0773660D01*
X0402354Y0773599D01*
X0402368Y0773539D01*
X0402385Y0773479D01*
X0402406Y0773421D01*
X0402431Y0773364D01*
X0402459Y0773309D01*
X0402490Y0773256D01*
X0402525Y0773205D01*
X0402563Y0773156D01*
X0402603Y0773110D01*
X0402647Y0773066D01*
X0402693Y0773026D01*
X0402742Y0772988D01*
X0402793Y0772953D01*
X0402846Y0772922D01*
X0402901Y0772894D01*
X0402958Y0772869D01*
X0403016Y0772848D01*
X0403076Y0772831D01*
X0403136Y0772817D01*
X0403197Y0772808D01*
X0403258Y0772802D01*
X0403320Y0772800D01*
X0404959Y0772800D01*
X0404959Y0774767D02*
X0402337Y0774767D01*
X0402337Y0775422D02*
X0402339Y0775493D01*
X0402345Y0775564D01*
X0402354Y0775634D01*
X0402368Y0775704D01*
X0402385Y0775773D01*
X0402406Y0775841D01*
X0402430Y0775907D01*
X0402458Y0775972D01*
X0402490Y0776036D01*
X0402525Y0776098D01*
X0402563Y0776158D01*
X0402604Y0776215D01*
X0402649Y0776271D01*
X0402696Y0776324D01*
X0402746Y0776374D01*
X0402799Y0776421D01*
X0402855Y0776466D01*
X0402912Y0776507D01*
X0402972Y0776545D01*
X0403034Y0776580D01*
X0403098Y0776612D01*
X0403163Y0776640D01*
X0403229Y0776664D01*
X0403297Y0776685D01*
X0403366Y0776702D01*
X0403436Y0776716D01*
X0403506Y0776725D01*
X0403577Y0776731D01*
X0403648Y0776733D01*
X0403719Y0776731D01*
X0403790Y0776725D01*
X0403860Y0776716D01*
X0403930Y0776702D01*
X0403999Y0776685D01*
X0404067Y0776664D01*
X0404133Y0776640D01*
X0404198Y0776612D01*
X0404262Y0776580D01*
X0404324Y0776545D01*
X0404384Y0776507D01*
X0404441Y0776466D01*
X0404497Y0776421D01*
X0404550Y0776374D01*
X0404600Y0776324D01*
X0404647Y0776271D01*
X0404692Y0776215D01*
X0404733Y0776158D01*
X0404771Y0776098D01*
X0404806Y0776036D01*
X0404838Y0775972D01*
X0404866Y0775907D01*
X0404890Y0775841D01*
X0404911Y0775773D01*
X0404928Y0775704D01*
X0404942Y0775634D01*
X0404951Y0775564D01*
X0404957Y0775493D01*
X0404959Y0775422D01*
X0404959Y0774767D01*
X0442541Y0776733D02*
X0443852Y0772800D01*
X0445163Y0776733D01*
X0447834Y0775094D02*
X0451768Y0775094D01*
X0455136Y0775094D02*
X0456774Y0774439D01*
X0456775Y0774439D02*
X0456827Y0774416D01*
X0456878Y0774389D01*
X0456927Y0774359D01*
X0456974Y0774326D01*
X0457019Y0774290D01*
X0457061Y0774250D01*
X0457100Y0774208D01*
X0457136Y0774164D01*
X0457169Y0774117D01*
X0457199Y0774067D01*
X0457226Y0774016D01*
X0457249Y0773964D01*
X0457268Y0773910D01*
X0457284Y0773854D01*
X0457296Y0773798D01*
X0457304Y0773741D01*
X0457308Y0773684D01*
X0457309Y0773626D01*
X0457305Y0773569D01*
X0457298Y0773512D01*
X0457286Y0773455D01*
X0457271Y0773400D01*
X0457253Y0773345D01*
X0457230Y0773292D01*
X0457204Y0773241D01*
X0457175Y0773192D01*
X0457142Y0773144D01*
X0457106Y0773099D01*
X0457068Y0773057D01*
X0457026Y0773017D01*
X0456982Y0772980D01*
X0456935Y0772946D01*
X0456887Y0772915D01*
X0456836Y0772888D01*
X0456784Y0772864D01*
X0456730Y0772844D01*
X0456675Y0772828D01*
X0456619Y0772815D01*
X0456562Y0772806D01*
X0456504Y0772801D01*
X0456447Y0772800D01*
X0456938Y0776405D02*
X0456831Y0776451D01*
X0456722Y0776494D01*
X0456612Y0776534D01*
X0456500Y0776570D01*
X0456388Y0776602D01*
X0456274Y0776631D01*
X0456160Y0776657D01*
X0456045Y0776678D01*
X0455930Y0776697D01*
X0455813Y0776711D01*
X0455697Y0776722D01*
X0455580Y0776729D01*
X0455463Y0776733D01*
X0455463Y0776734D02*
X0455406Y0776733D01*
X0455348Y0776728D01*
X0455291Y0776719D01*
X0455235Y0776706D01*
X0455180Y0776690D01*
X0455126Y0776670D01*
X0455074Y0776646D01*
X0455023Y0776619D01*
X0454975Y0776588D01*
X0454928Y0776554D01*
X0454884Y0776517D01*
X0454842Y0776477D01*
X0454804Y0776435D01*
X0454768Y0776390D01*
X0454735Y0776342D01*
X0454706Y0776293D01*
X0454680Y0776242D01*
X0454657Y0776189D01*
X0454639Y0776134D01*
X0454624Y0776079D01*
X0454612Y0776022D01*
X0454605Y0775965D01*
X0454601Y0775908D01*
X0454602Y0775850D01*
X0454606Y0775793D01*
X0454614Y0775736D01*
X0454626Y0775680D01*
X0454642Y0775624D01*
X0454661Y0775570D01*
X0454684Y0775518D01*
X0454711Y0775467D01*
X0454741Y0775417D01*
X0454774Y0775370D01*
X0454810Y0775326D01*
X0454849Y0775284D01*
X0454891Y0775244D01*
X0454936Y0775208D01*
X0454983Y0775175D01*
X0455032Y0775145D01*
X0455083Y0775118D01*
X0455135Y0775095D01*
X0454644Y0773128D02*
X0454778Y0773082D01*
X0454913Y0773039D01*
X0455049Y0773000D01*
X0455186Y0772964D01*
X0455323Y0772932D01*
X0455462Y0772903D01*
X0455601Y0772877D01*
X0455741Y0772856D01*
X0455882Y0772837D01*
X0456022Y0772823D01*
X0456164Y0772812D01*
X0456305Y0772804D01*
X0456447Y0772801D01*
X0459988Y0773783D02*
X0459988Y0775750D01*
X0459990Y0775812D01*
X0459996Y0775873D01*
X0460005Y0775934D01*
X0460019Y0775994D01*
X0460036Y0776054D01*
X0460057Y0776112D01*
X0460082Y0776169D01*
X0460110Y0776224D01*
X0460141Y0776277D01*
X0460176Y0776328D01*
X0460214Y0776377D01*
X0460254Y0776423D01*
X0460298Y0776467D01*
X0460344Y0776507D01*
X0460393Y0776545D01*
X0460444Y0776580D01*
X0460497Y0776611D01*
X0460552Y0776639D01*
X0460609Y0776664D01*
X0460667Y0776685D01*
X0460727Y0776702D01*
X0460787Y0776716D01*
X0460848Y0776725D01*
X0460909Y0776731D01*
X0460971Y0776733D01*
X0462282Y0776733D01*
X0464695Y0775422D02*
X0464695Y0774111D01*
X0464696Y0774111D02*
X0464698Y0774040D01*
X0464704Y0773969D01*
X0464713Y0773899D01*
X0464727Y0773829D01*
X0464744Y0773760D01*
X0464765Y0773692D01*
X0464789Y0773626D01*
X0464817Y0773561D01*
X0464849Y0773497D01*
X0464884Y0773435D01*
X0464922Y0773375D01*
X0464963Y0773318D01*
X0465008Y0773262D01*
X0465055Y0773209D01*
X0465105Y0773159D01*
X0465158Y0773112D01*
X0465214Y0773067D01*
X0465271Y0773026D01*
X0465331Y0772988D01*
X0465393Y0772953D01*
X0465457Y0772921D01*
X0465522Y0772893D01*
X0465588Y0772869D01*
X0465656Y0772848D01*
X0465725Y0772831D01*
X0465795Y0772817D01*
X0465865Y0772808D01*
X0465936Y0772802D01*
X0466007Y0772800D01*
X0466078Y0772802D01*
X0466149Y0772808D01*
X0466219Y0772817D01*
X0466289Y0772831D01*
X0466358Y0772848D01*
X0466426Y0772869D01*
X0466492Y0772893D01*
X0466557Y0772921D01*
X0466621Y0772953D01*
X0466683Y0772988D01*
X0466743Y0773026D01*
X0466800Y0773067D01*
X0466856Y0773112D01*
X0466909Y0773159D01*
X0466959Y0773209D01*
X0467006Y0773262D01*
X0467051Y0773318D01*
X0467092Y0773375D01*
X0467130Y0773435D01*
X0467165Y0773497D01*
X0467197Y0773561D01*
X0467225Y0773626D01*
X0467249Y0773692D01*
X0467270Y0773760D01*
X0467287Y0773829D01*
X0467301Y0773899D01*
X0467310Y0773969D01*
X0467316Y0774040D01*
X0467318Y0774111D01*
X0467318Y0775422D01*
X0467316Y0775493D01*
X0467310Y0775564D01*
X0467301Y0775634D01*
X0467287Y0775704D01*
X0467270Y0775773D01*
X0467249Y0775841D01*
X0467225Y0775907D01*
X0467197Y0775972D01*
X0467165Y0776036D01*
X0467130Y0776098D01*
X0467092Y0776158D01*
X0467051Y0776215D01*
X0467006Y0776271D01*
X0466959Y0776324D01*
X0466909Y0776374D01*
X0466856Y0776421D01*
X0466800Y0776466D01*
X0466743Y0776507D01*
X0466683Y0776545D01*
X0466621Y0776580D01*
X0466557Y0776612D01*
X0466492Y0776640D01*
X0466426Y0776664D01*
X0466358Y0776685D01*
X0466289Y0776702D01*
X0466219Y0776716D01*
X0466149Y0776725D01*
X0466078Y0776731D01*
X0466007Y0776733D01*
X0465936Y0776731D01*
X0465865Y0776725D01*
X0465795Y0776716D01*
X0465725Y0776702D01*
X0465656Y0776685D01*
X0465588Y0776664D01*
X0465522Y0776640D01*
X0465457Y0776612D01*
X0465393Y0776580D01*
X0465331Y0776545D01*
X0465271Y0776507D01*
X0465214Y0776466D01*
X0465158Y0776421D01*
X0465105Y0776374D01*
X0465055Y0776324D01*
X0465008Y0776271D01*
X0464963Y0776215D01*
X0464922Y0776158D01*
X0464884Y0776098D01*
X0464849Y0776036D01*
X0464817Y0775972D01*
X0464789Y0775907D01*
X0464765Y0775841D01*
X0464744Y0775773D01*
X0464727Y0775704D01*
X0464713Y0775634D01*
X0464704Y0775564D01*
X0464698Y0775493D01*
X0464696Y0775422D01*
X0462282Y0772800D02*
X0460971Y0772800D01*
X0460909Y0772802D01*
X0460848Y0772808D01*
X0460787Y0772817D01*
X0460727Y0772831D01*
X0460667Y0772848D01*
X0460609Y0772869D01*
X0460552Y0772894D01*
X0460497Y0772922D01*
X0460444Y0772953D01*
X0460393Y0772988D01*
X0460344Y0773026D01*
X0460298Y0773066D01*
X0460254Y0773110D01*
X0460214Y0773156D01*
X0460176Y0773205D01*
X0460141Y0773256D01*
X0460110Y0773309D01*
X0460082Y0773364D01*
X0460057Y0773421D01*
X0460036Y0773479D01*
X0460019Y0773539D01*
X0460005Y0773599D01*
X0459996Y0773660D01*
X0459990Y0773721D01*
X0459988Y0773783D01*
X0470284Y0772800D02*
X0470284Y0776733D01*
X0472251Y0776733D01*
X0472251Y0776078D01*
X0474337Y0775422D02*
X0474337Y0773783D01*
X0474339Y0773721D01*
X0474345Y0773660D01*
X0474354Y0773599D01*
X0474368Y0773539D01*
X0474385Y0773479D01*
X0474406Y0773421D01*
X0474431Y0773364D01*
X0474459Y0773309D01*
X0474490Y0773256D01*
X0474525Y0773205D01*
X0474563Y0773156D01*
X0474603Y0773110D01*
X0474647Y0773066D01*
X0474693Y0773026D01*
X0474742Y0772988D01*
X0474793Y0772953D01*
X0474846Y0772922D01*
X0474901Y0772894D01*
X0474958Y0772869D01*
X0475016Y0772848D01*
X0475076Y0772831D01*
X0475136Y0772817D01*
X0475197Y0772808D01*
X0475258Y0772802D01*
X0475320Y0772800D01*
X0476959Y0772800D01*
X0476959Y0774767D02*
X0474337Y0774767D01*
X0474337Y0775422D02*
X0474339Y0775493D01*
X0474345Y0775564D01*
X0474354Y0775634D01*
X0474368Y0775704D01*
X0474385Y0775773D01*
X0474406Y0775841D01*
X0474430Y0775907D01*
X0474458Y0775972D01*
X0474490Y0776036D01*
X0474525Y0776098D01*
X0474563Y0776158D01*
X0474604Y0776215D01*
X0474649Y0776271D01*
X0474696Y0776324D01*
X0474746Y0776374D01*
X0474799Y0776421D01*
X0474855Y0776466D01*
X0474912Y0776507D01*
X0474972Y0776545D01*
X0475034Y0776580D01*
X0475098Y0776612D01*
X0475163Y0776640D01*
X0475229Y0776664D01*
X0475297Y0776685D01*
X0475366Y0776702D01*
X0475436Y0776716D01*
X0475506Y0776725D01*
X0475577Y0776731D01*
X0475648Y0776733D01*
X0475719Y0776731D01*
X0475790Y0776725D01*
X0475860Y0776716D01*
X0475930Y0776702D01*
X0475999Y0776685D01*
X0476067Y0776664D01*
X0476133Y0776640D01*
X0476198Y0776612D01*
X0476262Y0776580D01*
X0476324Y0776545D01*
X0476384Y0776507D01*
X0476441Y0776466D01*
X0476497Y0776421D01*
X0476550Y0776374D01*
X0476600Y0776324D01*
X0476647Y0776271D01*
X0476692Y0776215D01*
X0476733Y0776158D01*
X0476771Y0776098D01*
X0476806Y0776036D01*
X0476838Y0775972D01*
X0476866Y0775907D01*
X0476890Y0775841D01*
X0476911Y0775773D01*
X0476928Y0775704D01*
X0476942Y0775634D01*
X0476951Y0775564D01*
X0476957Y0775493D01*
X0476959Y0775422D01*
X0476959Y0774767D01*
X0514541Y0776733D02*
X0515852Y0772800D01*
X0517163Y0776733D01*
X0519834Y0775094D02*
X0523768Y0775094D01*
X0527136Y0775094D02*
X0528774Y0774439D01*
X0528775Y0774439D02*
X0528827Y0774416D01*
X0528878Y0774389D01*
X0528927Y0774359D01*
X0528974Y0774326D01*
X0529019Y0774290D01*
X0529061Y0774250D01*
X0529100Y0774208D01*
X0529136Y0774164D01*
X0529169Y0774117D01*
X0529199Y0774067D01*
X0529226Y0774016D01*
X0529249Y0773964D01*
X0529268Y0773910D01*
X0529284Y0773854D01*
X0529296Y0773798D01*
X0529304Y0773741D01*
X0529308Y0773684D01*
X0529309Y0773626D01*
X0529305Y0773569D01*
X0529298Y0773512D01*
X0529286Y0773455D01*
X0529271Y0773400D01*
X0529253Y0773345D01*
X0529230Y0773292D01*
X0529204Y0773241D01*
X0529175Y0773192D01*
X0529142Y0773144D01*
X0529106Y0773099D01*
X0529068Y0773057D01*
X0529026Y0773017D01*
X0528982Y0772980D01*
X0528935Y0772946D01*
X0528887Y0772915D01*
X0528836Y0772888D01*
X0528784Y0772864D01*
X0528730Y0772844D01*
X0528675Y0772828D01*
X0528619Y0772815D01*
X0528562Y0772806D01*
X0528504Y0772801D01*
X0528447Y0772800D01*
X0528938Y0776405D02*
X0528831Y0776451D01*
X0528722Y0776494D01*
X0528612Y0776534D01*
X0528500Y0776570D01*
X0528388Y0776602D01*
X0528274Y0776631D01*
X0528160Y0776657D01*
X0528045Y0776678D01*
X0527930Y0776697D01*
X0527813Y0776711D01*
X0527697Y0776722D01*
X0527580Y0776729D01*
X0527463Y0776733D01*
X0527463Y0776734D02*
X0527406Y0776733D01*
X0527348Y0776728D01*
X0527291Y0776719D01*
X0527235Y0776706D01*
X0527180Y0776690D01*
X0527126Y0776670D01*
X0527074Y0776646D01*
X0527023Y0776619D01*
X0526975Y0776588D01*
X0526928Y0776554D01*
X0526884Y0776517D01*
X0526842Y0776477D01*
X0526804Y0776435D01*
X0526768Y0776390D01*
X0526735Y0776342D01*
X0526706Y0776293D01*
X0526680Y0776242D01*
X0526657Y0776189D01*
X0526639Y0776134D01*
X0526624Y0776079D01*
X0526612Y0776022D01*
X0526605Y0775965D01*
X0526601Y0775908D01*
X0526602Y0775850D01*
X0526606Y0775793D01*
X0526614Y0775736D01*
X0526626Y0775680D01*
X0526642Y0775624D01*
X0526661Y0775570D01*
X0526684Y0775518D01*
X0526711Y0775467D01*
X0526741Y0775417D01*
X0526774Y0775370D01*
X0526810Y0775326D01*
X0526849Y0775284D01*
X0526891Y0775244D01*
X0526936Y0775208D01*
X0526983Y0775175D01*
X0527032Y0775145D01*
X0527083Y0775118D01*
X0527135Y0775095D01*
X0526644Y0773128D02*
X0526778Y0773082D01*
X0526913Y0773039D01*
X0527049Y0773000D01*
X0527186Y0772964D01*
X0527323Y0772932D01*
X0527462Y0772903D01*
X0527601Y0772877D01*
X0527741Y0772856D01*
X0527882Y0772837D01*
X0528022Y0772823D01*
X0528164Y0772812D01*
X0528305Y0772804D01*
X0528447Y0772801D01*
X0531988Y0773783D02*
X0531988Y0775750D01*
X0531990Y0775812D01*
X0531996Y0775873D01*
X0532005Y0775934D01*
X0532019Y0775994D01*
X0532036Y0776054D01*
X0532057Y0776112D01*
X0532082Y0776169D01*
X0532110Y0776224D01*
X0532141Y0776277D01*
X0532176Y0776328D01*
X0532214Y0776377D01*
X0532254Y0776423D01*
X0532298Y0776467D01*
X0532344Y0776507D01*
X0532393Y0776545D01*
X0532444Y0776580D01*
X0532497Y0776611D01*
X0532552Y0776639D01*
X0532609Y0776664D01*
X0532667Y0776685D01*
X0532727Y0776702D01*
X0532787Y0776716D01*
X0532848Y0776725D01*
X0532909Y0776731D01*
X0532971Y0776733D01*
X0534282Y0776733D01*
X0536695Y0775422D02*
X0536695Y0774111D01*
X0536696Y0774111D02*
X0536698Y0774040D01*
X0536704Y0773969D01*
X0536713Y0773899D01*
X0536727Y0773829D01*
X0536744Y0773760D01*
X0536765Y0773692D01*
X0536789Y0773626D01*
X0536817Y0773561D01*
X0536849Y0773497D01*
X0536884Y0773435D01*
X0536922Y0773375D01*
X0536963Y0773318D01*
X0537008Y0773262D01*
X0537055Y0773209D01*
X0537105Y0773159D01*
X0537158Y0773112D01*
X0537214Y0773067D01*
X0537271Y0773026D01*
X0537331Y0772988D01*
X0537393Y0772953D01*
X0537457Y0772921D01*
X0537522Y0772893D01*
X0537588Y0772869D01*
X0537656Y0772848D01*
X0537725Y0772831D01*
X0537795Y0772817D01*
X0537865Y0772808D01*
X0537936Y0772802D01*
X0538007Y0772800D01*
X0538078Y0772802D01*
X0538149Y0772808D01*
X0538219Y0772817D01*
X0538289Y0772831D01*
X0538358Y0772848D01*
X0538426Y0772869D01*
X0538492Y0772893D01*
X0538557Y0772921D01*
X0538621Y0772953D01*
X0538683Y0772988D01*
X0538743Y0773026D01*
X0538800Y0773067D01*
X0538856Y0773112D01*
X0538909Y0773159D01*
X0538959Y0773209D01*
X0539006Y0773262D01*
X0539051Y0773318D01*
X0539092Y0773375D01*
X0539130Y0773435D01*
X0539165Y0773497D01*
X0539197Y0773561D01*
X0539225Y0773626D01*
X0539249Y0773692D01*
X0539270Y0773760D01*
X0539287Y0773829D01*
X0539301Y0773899D01*
X0539310Y0773969D01*
X0539316Y0774040D01*
X0539318Y0774111D01*
X0539318Y0775422D01*
X0539316Y0775493D01*
X0539310Y0775564D01*
X0539301Y0775634D01*
X0539287Y0775704D01*
X0539270Y0775773D01*
X0539249Y0775841D01*
X0539225Y0775907D01*
X0539197Y0775972D01*
X0539165Y0776036D01*
X0539130Y0776098D01*
X0539092Y0776158D01*
X0539051Y0776215D01*
X0539006Y0776271D01*
X0538959Y0776324D01*
X0538909Y0776374D01*
X0538856Y0776421D01*
X0538800Y0776466D01*
X0538743Y0776507D01*
X0538683Y0776545D01*
X0538621Y0776580D01*
X0538557Y0776612D01*
X0538492Y0776640D01*
X0538426Y0776664D01*
X0538358Y0776685D01*
X0538289Y0776702D01*
X0538219Y0776716D01*
X0538149Y0776725D01*
X0538078Y0776731D01*
X0538007Y0776733D01*
X0537936Y0776731D01*
X0537865Y0776725D01*
X0537795Y0776716D01*
X0537725Y0776702D01*
X0537656Y0776685D01*
X0537588Y0776664D01*
X0537522Y0776640D01*
X0537457Y0776612D01*
X0537393Y0776580D01*
X0537331Y0776545D01*
X0537271Y0776507D01*
X0537214Y0776466D01*
X0537158Y0776421D01*
X0537105Y0776374D01*
X0537055Y0776324D01*
X0537008Y0776271D01*
X0536963Y0776215D01*
X0536922Y0776158D01*
X0536884Y0776098D01*
X0536849Y0776036D01*
X0536817Y0775972D01*
X0536789Y0775907D01*
X0536765Y0775841D01*
X0536744Y0775773D01*
X0536727Y0775704D01*
X0536713Y0775634D01*
X0536704Y0775564D01*
X0536698Y0775493D01*
X0536696Y0775422D01*
X0534282Y0772800D02*
X0532971Y0772800D01*
X0532909Y0772802D01*
X0532848Y0772808D01*
X0532787Y0772817D01*
X0532727Y0772831D01*
X0532667Y0772848D01*
X0532609Y0772869D01*
X0532552Y0772894D01*
X0532497Y0772922D01*
X0532444Y0772953D01*
X0532393Y0772988D01*
X0532344Y0773026D01*
X0532298Y0773066D01*
X0532254Y0773110D01*
X0532214Y0773156D01*
X0532176Y0773205D01*
X0532141Y0773256D01*
X0532110Y0773309D01*
X0532082Y0773364D01*
X0532057Y0773421D01*
X0532036Y0773479D01*
X0532019Y0773539D01*
X0532005Y0773599D01*
X0531996Y0773660D01*
X0531990Y0773721D01*
X0531988Y0773783D01*
X0542284Y0772800D02*
X0542284Y0776733D01*
X0544251Y0776733D01*
X0544251Y0776078D01*
X0546337Y0775422D02*
X0546337Y0773783D01*
X0546339Y0773721D01*
X0546345Y0773660D01*
X0546354Y0773599D01*
X0546368Y0773539D01*
X0546385Y0773479D01*
X0546406Y0773421D01*
X0546431Y0773364D01*
X0546459Y0773309D01*
X0546490Y0773256D01*
X0546525Y0773205D01*
X0546563Y0773156D01*
X0546603Y0773110D01*
X0546647Y0773066D01*
X0546693Y0773026D01*
X0546742Y0772988D01*
X0546793Y0772953D01*
X0546846Y0772922D01*
X0546901Y0772894D01*
X0546958Y0772869D01*
X0547016Y0772848D01*
X0547076Y0772831D01*
X0547136Y0772817D01*
X0547197Y0772808D01*
X0547258Y0772802D01*
X0547320Y0772800D01*
X0548959Y0772800D01*
X0548959Y0774767D02*
X0546337Y0774767D01*
X0546337Y0775422D02*
X0546339Y0775493D01*
X0546345Y0775564D01*
X0546354Y0775634D01*
X0546368Y0775704D01*
X0546385Y0775773D01*
X0546406Y0775841D01*
X0546430Y0775907D01*
X0546458Y0775972D01*
X0546490Y0776036D01*
X0546525Y0776098D01*
X0546563Y0776158D01*
X0546604Y0776215D01*
X0546649Y0776271D01*
X0546696Y0776324D01*
X0546746Y0776374D01*
X0546799Y0776421D01*
X0546855Y0776466D01*
X0546912Y0776507D01*
X0546972Y0776545D01*
X0547034Y0776580D01*
X0547098Y0776612D01*
X0547163Y0776640D01*
X0547229Y0776664D01*
X0547297Y0776685D01*
X0547366Y0776702D01*
X0547436Y0776716D01*
X0547506Y0776725D01*
X0547577Y0776731D01*
X0547648Y0776733D01*
X0547719Y0776731D01*
X0547790Y0776725D01*
X0547860Y0776716D01*
X0547930Y0776702D01*
X0547999Y0776685D01*
X0548067Y0776664D01*
X0548133Y0776640D01*
X0548198Y0776612D01*
X0548262Y0776580D01*
X0548324Y0776545D01*
X0548384Y0776507D01*
X0548441Y0776466D01*
X0548497Y0776421D01*
X0548550Y0776374D01*
X0548600Y0776324D01*
X0548647Y0776271D01*
X0548692Y0776215D01*
X0548733Y0776158D01*
X0548771Y0776098D01*
X0548806Y0776036D01*
X0548838Y0775972D01*
X0548866Y0775907D01*
X0548890Y0775841D01*
X0548911Y0775773D01*
X0548928Y0775704D01*
X0548942Y0775634D01*
X0548951Y0775564D01*
X0548957Y0775493D01*
X0548959Y0775422D01*
X0548959Y0774767D01*
X0595541Y0716733D02*
X0596852Y0712800D01*
X0598163Y0716733D01*
X0600834Y0715094D02*
X0604768Y0715094D01*
X0608136Y0715094D02*
X0609774Y0714439D01*
X0609775Y0714439D02*
X0609827Y0714416D01*
X0609878Y0714389D01*
X0609927Y0714359D01*
X0609974Y0714326D01*
X0610019Y0714290D01*
X0610061Y0714250D01*
X0610100Y0714208D01*
X0610136Y0714164D01*
X0610169Y0714117D01*
X0610199Y0714067D01*
X0610226Y0714016D01*
X0610249Y0713964D01*
X0610268Y0713910D01*
X0610284Y0713854D01*
X0610296Y0713798D01*
X0610304Y0713741D01*
X0610308Y0713684D01*
X0610309Y0713626D01*
X0610305Y0713569D01*
X0610298Y0713512D01*
X0610286Y0713455D01*
X0610271Y0713400D01*
X0610253Y0713345D01*
X0610230Y0713292D01*
X0610204Y0713241D01*
X0610175Y0713192D01*
X0610142Y0713144D01*
X0610106Y0713099D01*
X0610068Y0713057D01*
X0610026Y0713017D01*
X0609982Y0712980D01*
X0609935Y0712946D01*
X0609887Y0712915D01*
X0609836Y0712888D01*
X0609784Y0712864D01*
X0609730Y0712844D01*
X0609675Y0712828D01*
X0609619Y0712815D01*
X0609562Y0712806D01*
X0609504Y0712801D01*
X0609447Y0712800D01*
X0609938Y0716405D02*
X0609831Y0716451D01*
X0609722Y0716494D01*
X0609612Y0716534D01*
X0609500Y0716570D01*
X0609388Y0716602D01*
X0609274Y0716631D01*
X0609160Y0716657D01*
X0609045Y0716678D01*
X0608930Y0716697D01*
X0608813Y0716711D01*
X0608697Y0716722D01*
X0608580Y0716729D01*
X0608463Y0716733D01*
X0608463Y0716734D02*
X0608406Y0716733D01*
X0608348Y0716728D01*
X0608291Y0716719D01*
X0608235Y0716706D01*
X0608180Y0716690D01*
X0608126Y0716670D01*
X0608074Y0716646D01*
X0608023Y0716619D01*
X0607975Y0716588D01*
X0607928Y0716554D01*
X0607884Y0716517D01*
X0607842Y0716477D01*
X0607804Y0716435D01*
X0607768Y0716390D01*
X0607735Y0716342D01*
X0607706Y0716293D01*
X0607680Y0716242D01*
X0607657Y0716189D01*
X0607639Y0716134D01*
X0607624Y0716079D01*
X0607612Y0716022D01*
X0607605Y0715965D01*
X0607601Y0715908D01*
X0607602Y0715850D01*
X0607606Y0715793D01*
X0607614Y0715736D01*
X0607626Y0715680D01*
X0607642Y0715624D01*
X0607661Y0715570D01*
X0607684Y0715518D01*
X0607711Y0715467D01*
X0607741Y0715417D01*
X0607774Y0715370D01*
X0607810Y0715326D01*
X0607849Y0715284D01*
X0607891Y0715244D01*
X0607936Y0715208D01*
X0607983Y0715175D01*
X0608032Y0715145D01*
X0608083Y0715118D01*
X0608135Y0715095D01*
X0607644Y0713128D02*
X0607778Y0713082D01*
X0607913Y0713039D01*
X0608049Y0713000D01*
X0608186Y0712964D01*
X0608323Y0712932D01*
X0608462Y0712903D01*
X0608601Y0712877D01*
X0608741Y0712856D01*
X0608882Y0712837D01*
X0609022Y0712823D01*
X0609164Y0712812D01*
X0609305Y0712804D01*
X0609447Y0712801D01*
X0612988Y0713783D02*
X0612988Y0715750D01*
X0612990Y0715812D01*
X0612996Y0715873D01*
X0613005Y0715934D01*
X0613019Y0715994D01*
X0613036Y0716054D01*
X0613057Y0716112D01*
X0613082Y0716169D01*
X0613110Y0716224D01*
X0613141Y0716277D01*
X0613176Y0716328D01*
X0613214Y0716377D01*
X0613254Y0716423D01*
X0613298Y0716467D01*
X0613344Y0716507D01*
X0613393Y0716545D01*
X0613444Y0716580D01*
X0613497Y0716611D01*
X0613552Y0716639D01*
X0613609Y0716664D01*
X0613667Y0716685D01*
X0613727Y0716702D01*
X0613787Y0716716D01*
X0613848Y0716725D01*
X0613909Y0716731D01*
X0613971Y0716733D01*
X0615282Y0716733D01*
X0617695Y0715422D02*
X0617695Y0714111D01*
X0617696Y0714111D02*
X0617698Y0714040D01*
X0617704Y0713969D01*
X0617713Y0713899D01*
X0617727Y0713829D01*
X0617744Y0713760D01*
X0617765Y0713692D01*
X0617789Y0713626D01*
X0617817Y0713561D01*
X0617849Y0713497D01*
X0617884Y0713435D01*
X0617922Y0713375D01*
X0617963Y0713318D01*
X0618008Y0713262D01*
X0618055Y0713209D01*
X0618105Y0713159D01*
X0618158Y0713112D01*
X0618214Y0713067D01*
X0618271Y0713026D01*
X0618331Y0712988D01*
X0618393Y0712953D01*
X0618457Y0712921D01*
X0618522Y0712893D01*
X0618588Y0712869D01*
X0618656Y0712848D01*
X0618725Y0712831D01*
X0618795Y0712817D01*
X0618865Y0712808D01*
X0618936Y0712802D01*
X0619007Y0712800D01*
X0619078Y0712802D01*
X0619149Y0712808D01*
X0619219Y0712817D01*
X0619289Y0712831D01*
X0619358Y0712848D01*
X0619426Y0712869D01*
X0619492Y0712893D01*
X0619557Y0712921D01*
X0619621Y0712953D01*
X0619683Y0712988D01*
X0619743Y0713026D01*
X0619800Y0713067D01*
X0619856Y0713112D01*
X0619909Y0713159D01*
X0619959Y0713209D01*
X0620006Y0713262D01*
X0620051Y0713318D01*
X0620092Y0713375D01*
X0620130Y0713435D01*
X0620165Y0713497D01*
X0620197Y0713561D01*
X0620225Y0713626D01*
X0620249Y0713692D01*
X0620270Y0713760D01*
X0620287Y0713829D01*
X0620301Y0713899D01*
X0620310Y0713969D01*
X0620316Y0714040D01*
X0620318Y0714111D01*
X0620318Y0715422D01*
X0620316Y0715493D01*
X0620310Y0715564D01*
X0620301Y0715634D01*
X0620287Y0715704D01*
X0620270Y0715773D01*
X0620249Y0715841D01*
X0620225Y0715907D01*
X0620197Y0715972D01*
X0620165Y0716036D01*
X0620130Y0716098D01*
X0620092Y0716158D01*
X0620051Y0716215D01*
X0620006Y0716271D01*
X0619959Y0716324D01*
X0619909Y0716374D01*
X0619856Y0716421D01*
X0619800Y0716466D01*
X0619743Y0716507D01*
X0619683Y0716545D01*
X0619621Y0716580D01*
X0619557Y0716612D01*
X0619492Y0716640D01*
X0619426Y0716664D01*
X0619358Y0716685D01*
X0619289Y0716702D01*
X0619219Y0716716D01*
X0619149Y0716725D01*
X0619078Y0716731D01*
X0619007Y0716733D01*
X0618936Y0716731D01*
X0618865Y0716725D01*
X0618795Y0716716D01*
X0618725Y0716702D01*
X0618656Y0716685D01*
X0618588Y0716664D01*
X0618522Y0716640D01*
X0618457Y0716612D01*
X0618393Y0716580D01*
X0618331Y0716545D01*
X0618271Y0716507D01*
X0618214Y0716466D01*
X0618158Y0716421D01*
X0618105Y0716374D01*
X0618055Y0716324D01*
X0618008Y0716271D01*
X0617963Y0716215D01*
X0617922Y0716158D01*
X0617884Y0716098D01*
X0617849Y0716036D01*
X0617817Y0715972D01*
X0617789Y0715907D01*
X0617765Y0715841D01*
X0617744Y0715773D01*
X0617727Y0715704D01*
X0617713Y0715634D01*
X0617704Y0715564D01*
X0617698Y0715493D01*
X0617696Y0715422D01*
X0615282Y0712800D02*
X0613971Y0712800D01*
X0613909Y0712802D01*
X0613848Y0712808D01*
X0613787Y0712817D01*
X0613727Y0712831D01*
X0613667Y0712848D01*
X0613609Y0712869D01*
X0613552Y0712894D01*
X0613497Y0712922D01*
X0613444Y0712953D01*
X0613393Y0712988D01*
X0613344Y0713026D01*
X0613298Y0713066D01*
X0613254Y0713110D01*
X0613214Y0713156D01*
X0613176Y0713205D01*
X0613141Y0713256D01*
X0613110Y0713309D01*
X0613082Y0713364D01*
X0613057Y0713421D01*
X0613036Y0713479D01*
X0613019Y0713539D01*
X0613005Y0713599D01*
X0612996Y0713660D01*
X0612990Y0713721D01*
X0612988Y0713783D01*
X0623284Y0712800D02*
X0623284Y0716733D01*
X0625251Y0716733D01*
X0625251Y0716078D01*
X0627337Y0715422D02*
X0627337Y0713783D01*
X0627339Y0713721D01*
X0627345Y0713660D01*
X0627354Y0713599D01*
X0627368Y0713539D01*
X0627385Y0713479D01*
X0627406Y0713421D01*
X0627431Y0713364D01*
X0627459Y0713309D01*
X0627490Y0713256D01*
X0627525Y0713205D01*
X0627563Y0713156D01*
X0627603Y0713110D01*
X0627647Y0713066D01*
X0627693Y0713026D01*
X0627742Y0712988D01*
X0627793Y0712953D01*
X0627846Y0712922D01*
X0627901Y0712894D01*
X0627958Y0712869D01*
X0628016Y0712848D01*
X0628076Y0712831D01*
X0628136Y0712817D01*
X0628197Y0712808D01*
X0628258Y0712802D01*
X0628320Y0712800D01*
X0629959Y0712800D01*
X0629959Y0714767D02*
X0627337Y0714767D01*
X0627337Y0715422D02*
X0627339Y0715493D01*
X0627345Y0715564D01*
X0627354Y0715634D01*
X0627368Y0715704D01*
X0627385Y0715773D01*
X0627406Y0715841D01*
X0627430Y0715907D01*
X0627458Y0715972D01*
X0627490Y0716036D01*
X0627525Y0716098D01*
X0627563Y0716158D01*
X0627604Y0716215D01*
X0627649Y0716271D01*
X0627696Y0716324D01*
X0627746Y0716374D01*
X0627799Y0716421D01*
X0627855Y0716466D01*
X0627912Y0716507D01*
X0627972Y0716545D01*
X0628034Y0716580D01*
X0628098Y0716612D01*
X0628163Y0716640D01*
X0628229Y0716664D01*
X0628297Y0716685D01*
X0628366Y0716702D01*
X0628436Y0716716D01*
X0628506Y0716725D01*
X0628577Y0716731D01*
X0628648Y0716733D01*
X0628719Y0716731D01*
X0628790Y0716725D01*
X0628860Y0716716D01*
X0628930Y0716702D01*
X0628999Y0716685D01*
X0629067Y0716664D01*
X0629133Y0716640D01*
X0629198Y0716612D01*
X0629262Y0716580D01*
X0629324Y0716545D01*
X0629384Y0716507D01*
X0629441Y0716466D01*
X0629497Y0716421D01*
X0629550Y0716374D01*
X0629600Y0716324D01*
X0629647Y0716271D01*
X0629692Y0716215D01*
X0629733Y0716158D01*
X0629771Y0716098D01*
X0629806Y0716036D01*
X0629838Y0715972D01*
X0629866Y0715907D01*
X0629890Y0715841D01*
X0629911Y0715773D01*
X0629928Y0715704D01*
X0629942Y0715634D01*
X0629951Y0715564D01*
X0629957Y0715493D01*
X0629959Y0715422D01*
X0629959Y0714767D01*
X0607644Y0541128D02*
X0607778Y0541082D01*
X0607913Y0541039D01*
X0608049Y0541000D01*
X0608186Y0540964D01*
X0608323Y0540932D01*
X0608462Y0540903D01*
X0608601Y0540877D01*
X0608741Y0540856D01*
X0608882Y0540837D01*
X0609022Y0540823D01*
X0609164Y0540812D01*
X0609305Y0540804D01*
X0609447Y0540801D01*
X0609447Y0540800D02*
X0609504Y0540801D01*
X0609562Y0540806D01*
X0609619Y0540815D01*
X0609675Y0540828D01*
X0609730Y0540844D01*
X0609784Y0540864D01*
X0609836Y0540888D01*
X0609887Y0540915D01*
X0609935Y0540946D01*
X0609982Y0540980D01*
X0610026Y0541017D01*
X0610068Y0541057D01*
X0610106Y0541099D01*
X0610142Y0541144D01*
X0610175Y0541192D01*
X0610204Y0541241D01*
X0610230Y0541292D01*
X0610253Y0541345D01*
X0610271Y0541400D01*
X0610286Y0541455D01*
X0610298Y0541512D01*
X0610305Y0541569D01*
X0610309Y0541626D01*
X0610308Y0541684D01*
X0610304Y0541741D01*
X0610296Y0541798D01*
X0610284Y0541854D01*
X0610268Y0541910D01*
X0610249Y0541964D01*
X0610226Y0542016D01*
X0610199Y0542067D01*
X0610169Y0542117D01*
X0610136Y0542164D01*
X0610100Y0542208D01*
X0610061Y0542250D01*
X0610019Y0542290D01*
X0609974Y0542326D01*
X0609927Y0542359D01*
X0609878Y0542389D01*
X0609827Y0542416D01*
X0609775Y0542439D01*
X0609774Y0542439D02*
X0608136Y0543094D01*
X0608135Y0543095D02*
X0608083Y0543118D01*
X0608032Y0543145D01*
X0607983Y0543175D01*
X0607936Y0543208D01*
X0607891Y0543244D01*
X0607849Y0543284D01*
X0607810Y0543326D01*
X0607774Y0543370D01*
X0607741Y0543417D01*
X0607711Y0543467D01*
X0607684Y0543518D01*
X0607661Y0543570D01*
X0607642Y0543624D01*
X0607626Y0543680D01*
X0607614Y0543736D01*
X0607606Y0543793D01*
X0607602Y0543850D01*
X0607601Y0543908D01*
X0607605Y0543965D01*
X0607612Y0544022D01*
X0607624Y0544079D01*
X0607639Y0544134D01*
X0607657Y0544189D01*
X0607680Y0544242D01*
X0607706Y0544293D01*
X0607735Y0544342D01*
X0607768Y0544390D01*
X0607804Y0544435D01*
X0607842Y0544477D01*
X0607884Y0544517D01*
X0607928Y0544554D01*
X0607975Y0544588D01*
X0608023Y0544619D01*
X0608074Y0544646D01*
X0608126Y0544670D01*
X0608180Y0544690D01*
X0608235Y0544706D01*
X0608291Y0544719D01*
X0608348Y0544728D01*
X0608406Y0544733D01*
X0608463Y0544734D01*
X0608463Y0544733D02*
X0608580Y0544729D01*
X0608697Y0544722D01*
X0608813Y0544711D01*
X0608930Y0544697D01*
X0609045Y0544678D01*
X0609160Y0544657D01*
X0609274Y0544631D01*
X0609388Y0544602D01*
X0609500Y0544570D01*
X0609612Y0544534D01*
X0609722Y0544494D01*
X0609831Y0544451D01*
X0609938Y0544405D01*
X0612988Y0543750D02*
X0612988Y0541783D01*
X0612990Y0541721D01*
X0612996Y0541660D01*
X0613005Y0541599D01*
X0613019Y0541539D01*
X0613036Y0541479D01*
X0613057Y0541421D01*
X0613082Y0541364D01*
X0613110Y0541309D01*
X0613141Y0541256D01*
X0613176Y0541205D01*
X0613214Y0541156D01*
X0613254Y0541110D01*
X0613298Y0541066D01*
X0613344Y0541026D01*
X0613393Y0540988D01*
X0613444Y0540953D01*
X0613497Y0540922D01*
X0613552Y0540894D01*
X0613609Y0540869D01*
X0613667Y0540848D01*
X0613727Y0540831D01*
X0613787Y0540817D01*
X0613848Y0540808D01*
X0613909Y0540802D01*
X0613971Y0540800D01*
X0615282Y0540800D01*
X0617695Y0542111D02*
X0617695Y0543422D01*
X0617696Y0543422D02*
X0617698Y0543493D01*
X0617704Y0543564D01*
X0617713Y0543634D01*
X0617727Y0543704D01*
X0617744Y0543773D01*
X0617765Y0543841D01*
X0617789Y0543907D01*
X0617817Y0543972D01*
X0617849Y0544036D01*
X0617884Y0544098D01*
X0617922Y0544158D01*
X0617963Y0544215D01*
X0618008Y0544271D01*
X0618055Y0544324D01*
X0618105Y0544374D01*
X0618158Y0544421D01*
X0618214Y0544466D01*
X0618271Y0544507D01*
X0618331Y0544545D01*
X0618393Y0544580D01*
X0618457Y0544612D01*
X0618522Y0544640D01*
X0618588Y0544664D01*
X0618656Y0544685D01*
X0618725Y0544702D01*
X0618795Y0544716D01*
X0618865Y0544725D01*
X0618936Y0544731D01*
X0619007Y0544733D01*
X0619078Y0544731D01*
X0619149Y0544725D01*
X0619219Y0544716D01*
X0619289Y0544702D01*
X0619358Y0544685D01*
X0619426Y0544664D01*
X0619492Y0544640D01*
X0619557Y0544612D01*
X0619621Y0544580D01*
X0619683Y0544545D01*
X0619743Y0544507D01*
X0619800Y0544466D01*
X0619856Y0544421D01*
X0619909Y0544374D01*
X0619959Y0544324D01*
X0620006Y0544271D01*
X0620051Y0544215D01*
X0620092Y0544158D01*
X0620130Y0544098D01*
X0620165Y0544036D01*
X0620197Y0543972D01*
X0620225Y0543907D01*
X0620249Y0543841D01*
X0620270Y0543773D01*
X0620287Y0543704D01*
X0620301Y0543634D01*
X0620310Y0543564D01*
X0620316Y0543493D01*
X0620318Y0543422D01*
X0620318Y0542111D01*
X0620316Y0542040D01*
X0620310Y0541969D01*
X0620301Y0541899D01*
X0620287Y0541829D01*
X0620270Y0541760D01*
X0620249Y0541692D01*
X0620225Y0541626D01*
X0620197Y0541561D01*
X0620165Y0541497D01*
X0620130Y0541435D01*
X0620092Y0541375D01*
X0620051Y0541318D01*
X0620006Y0541262D01*
X0619959Y0541209D01*
X0619909Y0541159D01*
X0619856Y0541112D01*
X0619800Y0541067D01*
X0619743Y0541026D01*
X0619683Y0540988D01*
X0619621Y0540953D01*
X0619557Y0540921D01*
X0619492Y0540893D01*
X0619426Y0540869D01*
X0619358Y0540848D01*
X0619289Y0540831D01*
X0619219Y0540817D01*
X0619149Y0540808D01*
X0619078Y0540802D01*
X0619007Y0540800D01*
X0618936Y0540802D01*
X0618865Y0540808D01*
X0618795Y0540817D01*
X0618725Y0540831D01*
X0618656Y0540848D01*
X0618588Y0540869D01*
X0618522Y0540893D01*
X0618457Y0540921D01*
X0618393Y0540953D01*
X0618331Y0540988D01*
X0618271Y0541026D01*
X0618214Y0541067D01*
X0618158Y0541112D01*
X0618105Y0541159D01*
X0618055Y0541209D01*
X0618008Y0541262D01*
X0617963Y0541318D01*
X0617922Y0541375D01*
X0617884Y0541435D01*
X0617849Y0541497D01*
X0617817Y0541561D01*
X0617789Y0541626D01*
X0617765Y0541692D01*
X0617744Y0541760D01*
X0617727Y0541829D01*
X0617713Y0541899D01*
X0617704Y0541969D01*
X0617698Y0542040D01*
X0617696Y0542111D01*
X0615282Y0544733D02*
X0613971Y0544733D01*
X0613909Y0544731D01*
X0613848Y0544725D01*
X0613787Y0544716D01*
X0613727Y0544702D01*
X0613667Y0544685D01*
X0613609Y0544664D01*
X0613552Y0544639D01*
X0613497Y0544611D01*
X0613444Y0544580D01*
X0613393Y0544545D01*
X0613344Y0544507D01*
X0613298Y0544467D01*
X0613254Y0544423D01*
X0613214Y0544377D01*
X0613176Y0544328D01*
X0613141Y0544277D01*
X0613110Y0544224D01*
X0613082Y0544169D01*
X0613057Y0544112D01*
X0613036Y0544054D01*
X0613019Y0543994D01*
X0613005Y0543934D01*
X0612996Y0543873D01*
X0612990Y0543812D01*
X0612988Y0543750D01*
X0604768Y0543094D02*
X0600834Y0543094D01*
X0598163Y0544733D02*
X0596852Y0540800D01*
X0595541Y0544733D01*
X0623284Y0544733D02*
X0625251Y0544733D01*
X0625251Y0544078D01*
X0623284Y0544733D02*
X0623284Y0540800D01*
X0627337Y0541783D02*
X0627337Y0543422D01*
X0627337Y0542767D02*
X0629959Y0542767D01*
X0629959Y0543422D01*
X0629957Y0543493D01*
X0629951Y0543564D01*
X0629942Y0543634D01*
X0629928Y0543704D01*
X0629911Y0543773D01*
X0629890Y0543841D01*
X0629866Y0543907D01*
X0629838Y0543972D01*
X0629806Y0544036D01*
X0629771Y0544098D01*
X0629733Y0544158D01*
X0629692Y0544215D01*
X0629647Y0544271D01*
X0629600Y0544324D01*
X0629550Y0544374D01*
X0629497Y0544421D01*
X0629441Y0544466D01*
X0629384Y0544507D01*
X0629324Y0544545D01*
X0629262Y0544580D01*
X0629198Y0544612D01*
X0629133Y0544640D01*
X0629067Y0544664D01*
X0628999Y0544685D01*
X0628930Y0544702D01*
X0628860Y0544716D01*
X0628790Y0544725D01*
X0628719Y0544731D01*
X0628648Y0544733D01*
X0628577Y0544731D01*
X0628506Y0544725D01*
X0628436Y0544716D01*
X0628366Y0544702D01*
X0628297Y0544685D01*
X0628229Y0544664D01*
X0628163Y0544640D01*
X0628098Y0544612D01*
X0628034Y0544580D01*
X0627972Y0544545D01*
X0627912Y0544507D01*
X0627855Y0544466D01*
X0627799Y0544421D01*
X0627746Y0544374D01*
X0627696Y0544324D01*
X0627649Y0544271D01*
X0627604Y0544215D01*
X0627563Y0544158D01*
X0627525Y0544098D01*
X0627490Y0544036D01*
X0627458Y0543972D01*
X0627430Y0543907D01*
X0627406Y0543841D01*
X0627385Y0543773D01*
X0627368Y0543704D01*
X0627354Y0543634D01*
X0627345Y0543564D01*
X0627339Y0543493D01*
X0627337Y0543422D01*
X0627337Y0541783D02*
X0627339Y0541721D01*
X0627345Y0541660D01*
X0627354Y0541599D01*
X0627368Y0541539D01*
X0627385Y0541479D01*
X0627406Y0541421D01*
X0627431Y0541364D01*
X0627459Y0541309D01*
X0627490Y0541256D01*
X0627525Y0541205D01*
X0627563Y0541156D01*
X0627603Y0541110D01*
X0627647Y0541066D01*
X0627693Y0541026D01*
X0627742Y0540988D01*
X0627793Y0540953D01*
X0627846Y0540922D01*
X0627901Y0540894D01*
X0627958Y0540869D01*
X0628016Y0540848D01*
X0628076Y0540831D01*
X0628136Y0540817D01*
X0628197Y0540808D01*
X0628258Y0540802D01*
X0628320Y0540800D01*
X0629959Y0540800D01*
X0607644Y0369128D02*
X0607778Y0369082D01*
X0607913Y0369039D01*
X0608049Y0369000D01*
X0608186Y0368964D01*
X0608323Y0368932D01*
X0608462Y0368903D01*
X0608601Y0368877D01*
X0608741Y0368856D01*
X0608882Y0368837D01*
X0609022Y0368823D01*
X0609164Y0368812D01*
X0609305Y0368804D01*
X0609447Y0368801D01*
X0609447Y0368800D02*
X0609504Y0368801D01*
X0609562Y0368806D01*
X0609619Y0368815D01*
X0609675Y0368828D01*
X0609730Y0368844D01*
X0609784Y0368864D01*
X0609836Y0368888D01*
X0609887Y0368915D01*
X0609935Y0368946D01*
X0609982Y0368980D01*
X0610026Y0369017D01*
X0610068Y0369057D01*
X0610106Y0369099D01*
X0610142Y0369144D01*
X0610175Y0369192D01*
X0610204Y0369241D01*
X0610230Y0369292D01*
X0610253Y0369345D01*
X0610271Y0369400D01*
X0610286Y0369455D01*
X0610298Y0369512D01*
X0610305Y0369569D01*
X0610309Y0369626D01*
X0610308Y0369684D01*
X0610304Y0369741D01*
X0610296Y0369798D01*
X0610284Y0369854D01*
X0610268Y0369910D01*
X0610249Y0369964D01*
X0610226Y0370016D01*
X0610199Y0370067D01*
X0610169Y0370117D01*
X0610136Y0370164D01*
X0610100Y0370208D01*
X0610061Y0370250D01*
X0610019Y0370290D01*
X0609974Y0370326D01*
X0609927Y0370359D01*
X0609878Y0370389D01*
X0609827Y0370416D01*
X0609775Y0370439D01*
X0609774Y0370439D02*
X0608136Y0371094D01*
X0608135Y0371095D02*
X0608083Y0371118D01*
X0608032Y0371145D01*
X0607983Y0371175D01*
X0607936Y0371208D01*
X0607891Y0371244D01*
X0607849Y0371284D01*
X0607810Y0371326D01*
X0607774Y0371370D01*
X0607741Y0371417D01*
X0607711Y0371467D01*
X0607684Y0371518D01*
X0607661Y0371570D01*
X0607642Y0371624D01*
X0607626Y0371680D01*
X0607614Y0371736D01*
X0607606Y0371793D01*
X0607602Y0371850D01*
X0607601Y0371908D01*
X0607605Y0371965D01*
X0607612Y0372022D01*
X0607624Y0372079D01*
X0607639Y0372134D01*
X0607657Y0372189D01*
X0607680Y0372242D01*
X0607706Y0372293D01*
X0607735Y0372342D01*
X0607768Y0372390D01*
X0607804Y0372435D01*
X0607842Y0372477D01*
X0607884Y0372517D01*
X0607928Y0372554D01*
X0607975Y0372588D01*
X0608023Y0372619D01*
X0608074Y0372646D01*
X0608126Y0372670D01*
X0608180Y0372690D01*
X0608235Y0372706D01*
X0608291Y0372719D01*
X0608348Y0372728D01*
X0608406Y0372733D01*
X0608463Y0372734D01*
X0608463Y0372733D02*
X0608580Y0372729D01*
X0608697Y0372722D01*
X0608813Y0372711D01*
X0608930Y0372697D01*
X0609045Y0372678D01*
X0609160Y0372657D01*
X0609274Y0372631D01*
X0609388Y0372602D01*
X0609500Y0372570D01*
X0609612Y0372534D01*
X0609722Y0372494D01*
X0609831Y0372451D01*
X0609938Y0372405D01*
X0612988Y0371750D02*
X0612988Y0369783D01*
X0612990Y0369721D01*
X0612996Y0369660D01*
X0613005Y0369599D01*
X0613019Y0369539D01*
X0613036Y0369479D01*
X0613057Y0369421D01*
X0613082Y0369364D01*
X0613110Y0369309D01*
X0613141Y0369256D01*
X0613176Y0369205D01*
X0613214Y0369156D01*
X0613254Y0369110D01*
X0613298Y0369066D01*
X0613344Y0369026D01*
X0613393Y0368988D01*
X0613444Y0368953D01*
X0613497Y0368922D01*
X0613552Y0368894D01*
X0613609Y0368869D01*
X0613667Y0368848D01*
X0613727Y0368831D01*
X0613787Y0368817D01*
X0613848Y0368808D01*
X0613909Y0368802D01*
X0613971Y0368800D01*
X0615282Y0368800D01*
X0617695Y0370111D02*
X0617695Y0371422D01*
X0617696Y0371422D02*
X0617698Y0371493D01*
X0617704Y0371564D01*
X0617713Y0371634D01*
X0617727Y0371704D01*
X0617744Y0371773D01*
X0617765Y0371841D01*
X0617789Y0371907D01*
X0617817Y0371972D01*
X0617849Y0372036D01*
X0617884Y0372098D01*
X0617922Y0372158D01*
X0617963Y0372215D01*
X0618008Y0372271D01*
X0618055Y0372324D01*
X0618105Y0372374D01*
X0618158Y0372421D01*
X0618214Y0372466D01*
X0618271Y0372507D01*
X0618331Y0372545D01*
X0618393Y0372580D01*
X0618457Y0372612D01*
X0618522Y0372640D01*
X0618588Y0372664D01*
X0618656Y0372685D01*
X0618725Y0372702D01*
X0618795Y0372716D01*
X0618865Y0372725D01*
X0618936Y0372731D01*
X0619007Y0372733D01*
X0619078Y0372731D01*
X0619149Y0372725D01*
X0619219Y0372716D01*
X0619289Y0372702D01*
X0619358Y0372685D01*
X0619426Y0372664D01*
X0619492Y0372640D01*
X0619557Y0372612D01*
X0619621Y0372580D01*
X0619683Y0372545D01*
X0619743Y0372507D01*
X0619800Y0372466D01*
X0619856Y0372421D01*
X0619909Y0372374D01*
X0619959Y0372324D01*
X0620006Y0372271D01*
X0620051Y0372215D01*
X0620092Y0372158D01*
X0620130Y0372098D01*
X0620165Y0372036D01*
X0620197Y0371972D01*
X0620225Y0371907D01*
X0620249Y0371841D01*
X0620270Y0371773D01*
X0620287Y0371704D01*
X0620301Y0371634D01*
X0620310Y0371564D01*
X0620316Y0371493D01*
X0620318Y0371422D01*
X0620318Y0370111D01*
X0620316Y0370040D01*
X0620310Y0369969D01*
X0620301Y0369899D01*
X0620287Y0369829D01*
X0620270Y0369760D01*
X0620249Y0369692D01*
X0620225Y0369626D01*
X0620197Y0369561D01*
X0620165Y0369497D01*
X0620130Y0369435D01*
X0620092Y0369375D01*
X0620051Y0369318D01*
X0620006Y0369262D01*
X0619959Y0369209D01*
X0619909Y0369159D01*
X0619856Y0369112D01*
X0619800Y0369067D01*
X0619743Y0369026D01*
X0619683Y0368988D01*
X0619621Y0368953D01*
X0619557Y0368921D01*
X0619492Y0368893D01*
X0619426Y0368869D01*
X0619358Y0368848D01*
X0619289Y0368831D01*
X0619219Y0368817D01*
X0619149Y0368808D01*
X0619078Y0368802D01*
X0619007Y0368800D01*
X0618936Y0368802D01*
X0618865Y0368808D01*
X0618795Y0368817D01*
X0618725Y0368831D01*
X0618656Y0368848D01*
X0618588Y0368869D01*
X0618522Y0368893D01*
X0618457Y0368921D01*
X0618393Y0368953D01*
X0618331Y0368988D01*
X0618271Y0369026D01*
X0618214Y0369067D01*
X0618158Y0369112D01*
X0618105Y0369159D01*
X0618055Y0369209D01*
X0618008Y0369262D01*
X0617963Y0369318D01*
X0617922Y0369375D01*
X0617884Y0369435D01*
X0617849Y0369497D01*
X0617817Y0369561D01*
X0617789Y0369626D01*
X0617765Y0369692D01*
X0617744Y0369760D01*
X0617727Y0369829D01*
X0617713Y0369899D01*
X0617704Y0369969D01*
X0617698Y0370040D01*
X0617696Y0370111D01*
X0615282Y0372733D02*
X0613971Y0372733D01*
X0613909Y0372731D01*
X0613848Y0372725D01*
X0613787Y0372716D01*
X0613727Y0372702D01*
X0613667Y0372685D01*
X0613609Y0372664D01*
X0613552Y0372639D01*
X0613497Y0372611D01*
X0613444Y0372580D01*
X0613393Y0372545D01*
X0613344Y0372507D01*
X0613298Y0372467D01*
X0613254Y0372423D01*
X0613214Y0372377D01*
X0613176Y0372328D01*
X0613141Y0372277D01*
X0613110Y0372224D01*
X0613082Y0372169D01*
X0613057Y0372112D01*
X0613036Y0372054D01*
X0613019Y0371994D01*
X0613005Y0371934D01*
X0612996Y0371873D01*
X0612990Y0371812D01*
X0612988Y0371750D01*
X0604768Y0371094D02*
X0600834Y0371094D01*
X0598163Y0372733D02*
X0596852Y0368800D01*
X0595541Y0372733D01*
X0623284Y0372733D02*
X0625251Y0372733D01*
X0625251Y0372078D01*
X0623284Y0372733D02*
X0623284Y0368800D01*
X0627337Y0369783D02*
X0627337Y0371422D01*
X0627337Y0370767D02*
X0629959Y0370767D01*
X0629959Y0371422D01*
X0629957Y0371493D01*
X0629951Y0371564D01*
X0629942Y0371634D01*
X0629928Y0371704D01*
X0629911Y0371773D01*
X0629890Y0371841D01*
X0629866Y0371907D01*
X0629838Y0371972D01*
X0629806Y0372036D01*
X0629771Y0372098D01*
X0629733Y0372158D01*
X0629692Y0372215D01*
X0629647Y0372271D01*
X0629600Y0372324D01*
X0629550Y0372374D01*
X0629497Y0372421D01*
X0629441Y0372466D01*
X0629384Y0372507D01*
X0629324Y0372545D01*
X0629262Y0372580D01*
X0629198Y0372612D01*
X0629133Y0372640D01*
X0629067Y0372664D01*
X0628999Y0372685D01*
X0628930Y0372702D01*
X0628860Y0372716D01*
X0628790Y0372725D01*
X0628719Y0372731D01*
X0628648Y0372733D01*
X0628577Y0372731D01*
X0628506Y0372725D01*
X0628436Y0372716D01*
X0628366Y0372702D01*
X0628297Y0372685D01*
X0628229Y0372664D01*
X0628163Y0372640D01*
X0628098Y0372612D01*
X0628034Y0372580D01*
X0627972Y0372545D01*
X0627912Y0372507D01*
X0627855Y0372466D01*
X0627799Y0372421D01*
X0627746Y0372374D01*
X0627696Y0372324D01*
X0627649Y0372271D01*
X0627604Y0372215D01*
X0627563Y0372158D01*
X0627525Y0372098D01*
X0627490Y0372036D01*
X0627458Y0371972D01*
X0627430Y0371907D01*
X0627406Y0371841D01*
X0627385Y0371773D01*
X0627368Y0371704D01*
X0627354Y0371634D01*
X0627345Y0371564D01*
X0627339Y0371493D01*
X0627337Y0371422D01*
X0627337Y0369783D02*
X0627339Y0369721D01*
X0627345Y0369660D01*
X0627354Y0369599D01*
X0627368Y0369539D01*
X0627385Y0369479D01*
X0627406Y0369421D01*
X0627431Y0369364D01*
X0627459Y0369309D01*
X0627490Y0369256D01*
X0627525Y0369205D01*
X0627563Y0369156D01*
X0627603Y0369110D01*
X0627647Y0369066D01*
X0627693Y0369026D01*
X0627742Y0368988D01*
X0627793Y0368953D01*
X0627846Y0368922D01*
X0627901Y0368894D01*
X0627958Y0368869D01*
X0628016Y0368848D01*
X0628076Y0368831D01*
X0628136Y0368817D01*
X0628197Y0368808D01*
X0628258Y0368802D01*
X0628320Y0368800D01*
X0629959Y0368800D01*
X0607644Y0197128D02*
X0607778Y0197082D01*
X0607913Y0197039D01*
X0608049Y0197000D01*
X0608186Y0196964D01*
X0608323Y0196932D01*
X0608462Y0196903D01*
X0608601Y0196877D01*
X0608741Y0196856D01*
X0608882Y0196837D01*
X0609022Y0196823D01*
X0609164Y0196812D01*
X0609305Y0196804D01*
X0609447Y0196801D01*
X0609447Y0196800D02*
X0609504Y0196801D01*
X0609562Y0196806D01*
X0609619Y0196815D01*
X0609675Y0196828D01*
X0609730Y0196844D01*
X0609784Y0196864D01*
X0609836Y0196888D01*
X0609887Y0196915D01*
X0609935Y0196946D01*
X0609982Y0196980D01*
X0610026Y0197017D01*
X0610068Y0197057D01*
X0610106Y0197099D01*
X0610142Y0197144D01*
X0610175Y0197192D01*
X0610204Y0197241D01*
X0610230Y0197292D01*
X0610253Y0197345D01*
X0610271Y0197400D01*
X0610286Y0197455D01*
X0610298Y0197512D01*
X0610305Y0197569D01*
X0610309Y0197626D01*
X0610308Y0197684D01*
X0610304Y0197741D01*
X0610296Y0197798D01*
X0610284Y0197854D01*
X0610268Y0197910D01*
X0610249Y0197964D01*
X0610226Y0198016D01*
X0610199Y0198067D01*
X0610169Y0198117D01*
X0610136Y0198164D01*
X0610100Y0198208D01*
X0610061Y0198250D01*
X0610019Y0198290D01*
X0609974Y0198326D01*
X0609927Y0198359D01*
X0609878Y0198389D01*
X0609827Y0198416D01*
X0609775Y0198439D01*
X0609774Y0198439D02*
X0608136Y0199094D01*
X0608135Y0199095D02*
X0608083Y0199118D01*
X0608032Y0199145D01*
X0607983Y0199175D01*
X0607936Y0199208D01*
X0607891Y0199244D01*
X0607849Y0199284D01*
X0607810Y0199326D01*
X0607774Y0199370D01*
X0607741Y0199417D01*
X0607711Y0199467D01*
X0607684Y0199518D01*
X0607661Y0199570D01*
X0607642Y0199624D01*
X0607626Y0199680D01*
X0607614Y0199736D01*
X0607606Y0199793D01*
X0607602Y0199850D01*
X0607601Y0199908D01*
X0607605Y0199965D01*
X0607612Y0200022D01*
X0607624Y0200079D01*
X0607639Y0200134D01*
X0607657Y0200189D01*
X0607680Y0200242D01*
X0607706Y0200293D01*
X0607735Y0200342D01*
X0607768Y0200390D01*
X0607804Y0200435D01*
X0607842Y0200477D01*
X0607884Y0200517D01*
X0607928Y0200554D01*
X0607975Y0200588D01*
X0608023Y0200619D01*
X0608074Y0200646D01*
X0608126Y0200670D01*
X0608180Y0200690D01*
X0608235Y0200706D01*
X0608291Y0200719D01*
X0608348Y0200728D01*
X0608406Y0200733D01*
X0608463Y0200734D01*
X0608463Y0200733D02*
X0608580Y0200729D01*
X0608697Y0200722D01*
X0608813Y0200711D01*
X0608930Y0200697D01*
X0609045Y0200678D01*
X0609160Y0200657D01*
X0609274Y0200631D01*
X0609388Y0200602D01*
X0609500Y0200570D01*
X0609612Y0200534D01*
X0609722Y0200494D01*
X0609831Y0200451D01*
X0609938Y0200405D01*
X0612988Y0199750D02*
X0612988Y0197783D01*
X0612990Y0197721D01*
X0612996Y0197660D01*
X0613005Y0197599D01*
X0613019Y0197539D01*
X0613036Y0197479D01*
X0613057Y0197421D01*
X0613082Y0197364D01*
X0613110Y0197309D01*
X0613141Y0197256D01*
X0613176Y0197205D01*
X0613214Y0197156D01*
X0613254Y0197110D01*
X0613298Y0197066D01*
X0613344Y0197026D01*
X0613393Y0196988D01*
X0613444Y0196953D01*
X0613497Y0196922D01*
X0613552Y0196894D01*
X0613609Y0196869D01*
X0613667Y0196848D01*
X0613727Y0196831D01*
X0613787Y0196817D01*
X0613848Y0196808D01*
X0613909Y0196802D01*
X0613971Y0196800D01*
X0615282Y0196800D01*
X0617695Y0198111D02*
X0617695Y0199422D01*
X0617696Y0199422D02*
X0617698Y0199493D01*
X0617704Y0199564D01*
X0617713Y0199634D01*
X0617727Y0199704D01*
X0617744Y0199773D01*
X0617765Y0199841D01*
X0617789Y0199907D01*
X0617817Y0199972D01*
X0617849Y0200036D01*
X0617884Y0200098D01*
X0617922Y0200158D01*
X0617963Y0200215D01*
X0618008Y0200271D01*
X0618055Y0200324D01*
X0618105Y0200374D01*
X0618158Y0200421D01*
X0618214Y0200466D01*
X0618271Y0200507D01*
X0618331Y0200545D01*
X0618393Y0200580D01*
X0618457Y0200612D01*
X0618522Y0200640D01*
X0618588Y0200664D01*
X0618656Y0200685D01*
X0618725Y0200702D01*
X0618795Y0200716D01*
X0618865Y0200725D01*
X0618936Y0200731D01*
X0619007Y0200733D01*
X0619078Y0200731D01*
X0619149Y0200725D01*
X0619219Y0200716D01*
X0619289Y0200702D01*
X0619358Y0200685D01*
X0619426Y0200664D01*
X0619492Y0200640D01*
X0619557Y0200612D01*
X0619621Y0200580D01*
X0619683Y0200545D01*
X0619743Y0200507D01*
X0619800Y0200466D01*
X0619856Y0200421D01*
X0619909Y0200374D01*
X0619959Y0200324D01*
X0620006Y0200271D01*
X0620051Y0200215D01*
X0620092Y0200158D01*
X0620130Y0200098D01*
X0620165Y0200036D01*
X0620197Y0199972D01*
X0620225Y0199907D01*
X0620249Y0199841D01*
X0620270Y0199773D01*
X0620287Y0199704D01*
X0620301Y0199634D01*
X0620310Y0199564D01*
X0620316Y0199493D01*
X0620318Y0199422D01*
X0620318Y0198111D01*
X0620316Y0198040D01*
X0620310Y0197969D01*
X0620301Y0197899D01*
X0620287Y0197829D01*
X0620270Y0197760D01*
X0620249Y0197692D01*
X0620225Y0197626D01*
X0620197Y0197561D01*
X0620165Y0197497D01*
X0620130Y0197435D01*
X0620092Y0197375D01*
X0620051Y0197318D01*
X0620006Y0197262D01*
X0619959Y0197209D01*
X0619909Y0197159D01*
X0619856Y0197112D01*
X0619800Y0197067D01*
X0619743Y0197026D01*
X0619683Y0196988D01*
X0619621Y0196953D01*
X0619557Y0196921D01*
X0619492Y0196893D01*
X0619426Y0196869D01*
X0619358Y0196848D01*
X0619289Y0196831D01*
X0619219Y0196817D01*
X0619149Y0196808D01*
X0619078Y0196802D01*
X0619007Y0196800D01*
X0618936Y0196802D01*
X0618865Y0196808D01*
X0618795Y0196817D01*
X0618725Y0196831D01*
X0618656Y0196848D01*
X0618588Y0196869D01*
X0618522Y0196893D01*
X0618457Y0196921D01*
X0618393Y0196953D01*
X0618331Y0196988D01*
X0618271Y0197026D01*
X0618214Y0197067D01*
X0618158Y0197112D01*
X0618105Y0197159D01*
X0618055Y0197209D01*
X0618008Y0197262D01*
X0617963Y0197318D01*
X0617922Y0197375D01*
X0617884Y0197435D01*
X0617849Y0197497D01*
X0617817Y0197561D01*
X0617789Y0197626D01*
X0617765Y0197692D01*
X0617744Y0197760D01*
X0617727Y0197829D01*
X0617713Y0197899D01*
X0617704Y0197969D01*
X0617698Y0198040D01*
X0617696Y0198111D01*
X0615282Y0200733D02*
X0613971Y0200733D01*
X0613909Y0200731D01*
X0613848Y0200725D01*
X0613787Y0200716D01*
X0613727Y0200702D01*
X0613667Y0200685D01*
X0613609Y0200664D01*
X0613552Y0200639D01*
X0613497Y0200611D01*
X0613444Y0200580D01*
X0613393Y0200545D01*
X0613344Y0200507D01*
X0613298Y0200467D01*
X0613254Y0200423D01*
X0613214Y0200377D01*
X0613176Y0200328D01*
X0613141Y0200277D01*
X0613110Y0200224D01*
X0613082Y0200169D01*
X0613057Y0200112D01*
X0613036Y0200054D01*
X0613019Y0199994D01*
X0613005Y0199934D01*
X0612996Y0199873D01*
X0612990Y0199812D01*
X0612988Y0199750D01*
X0604768Y0199094D02*
X0600834Y0199094D01*
X0598163Y0200733D02*
X0596852Y0196800D01*
X0595541Y0200733D01*
X0623284Y0200733D02*
X0625251Y0200733D01*
X0625251Y0200078D01*
X0623284Y0200733D02*
X0623284Y0196800D01*
X0627337Y0197783D02*
X0627337Y0199422D01*
X0627337Y0198767D02*
X0629959Y0198767D01*
X0629959Y0199422D01*
X0629957Y0199493D01*
X0629951Y0199564D01*
X0629942Y0199634D01*
X0629928Y0199704D01*
X0629911Y0199773D01*
X0629890Y0199841D01*
X0629866Y0199907D01*
X0629838Y0199972D01*
X0629806Y0200036D01*
X0629771Y0200098D01*
X0629733Y0200158D01*
X0629692Y0200215D01*
X0629647Y0200271D01*
X0629600Y0200324D01*
X0629550Y0200374D01*
X0629497Y0200421D01*
X0629441Y0200466D01*
X0629384Y0200507D01*
X0629324Y0200545D01*
X0629262Y0200580D01*
X0629198Y0200612D01*
X0629133Y0200640D01*
X0629067Y0200664D01*
X0628999Y0200685D01*
X0628930Y0200702D01*
X0628860Y0200716D01*
X0628790Y0200725D01*
X0628719Y0200731D01*
X0628648Y0200733D01*
X0628577Y0200731D01*
X0628506Y0200725D01*
X0628436Y0200716D01*
X0628366Y0200702D01*
X0628297Y0200685D01*
X0628229Y0200664D01*
X0628163Y0200640D01*
X0628098Y0200612D01*
X0628034Y0200580D01*
X0627972Y0200545D01*
X0627912Y0200507D01*
X0627855Y0200466D01*
X0627799Y0200421D01*
X0627746Y0200374D01*
X0627696Y0200324D01*
X0627649Y0200271D01*
X0627604Y0200215D01*
X0627563Y0200158D01*
X0627525Y0200098D01*
X0627490Y0200036D01*
X0627458Y0199972D01*
X0627430Y0199907D01*
X0627406Y0199841D01*
X0627385Y0199773D01*
X0627368Y0199704D01*
X0627354Y0199634D01*
X0627345Y0199564D01*
X0627339Y0199493D01*
X0627337Y0199422D01*
X0627337Y0197783D02*
X0627339Y0197721D01*
X0627345Y0197660D01*
X0627354Y0197599D01*
X0627368Y0197539D01*
X0627385Y0197479D01*
X0627406Y0197421D01*
X0627431Y0197364D01*
X0627459Y0197309D01*
X0627490Y0197256D01*
X0627525Y0197205D01*
X0627563Y0197156D01*
X0627603Y0197110D01*
X0627647Y0197066D01*
X0627693Y0197026D01*
X0627742Y0196988D01*
X0627793Y0196953D01*
X0627846Y0196922D01*
X0627901Y0196894D01*
X0627958Y0196869D01*
X0628016Y0196848D01*
X0628076Y0196831D01*
X0628136Y0196817D01*
X0628197Y0196808D01*
X0628258Y0196802D01*
X0628320Y0196800D01*
X0629959Y0196800D01*
X0607644Y0025128D02*
X0607778Y0025082D01*
X0607913Y0025039D01*
X0608049Y0025000D01*
X0608186Y0024964D01*
X0608323Y0024932D01*
X0608462Y0024903D01*
X0608601Y0024877D01*
X0608741Y0024856D01*
X0608882Y0024837D01*
X0609022Y0024823D01*
X0609164Y0024812D01*
X0609305Y0024804D01*
X0609447Y0024801D01*
X0609447Y0024800D02*
X0609504Y0024801D01*
X0609562Y0024806D01*
X0609619Y0024815D01*
X0609675Y0024828D01*
X0609730Y0024844D01*
X0609784Y0024864D01*
X0609836Y0024888D01*
X0609887Y0024915D01*
X0609935Y0024946D01*
X0609982Y0024980D01*
X0610026Y0025017D01*
X0610068Y0025057D01*
X0610106Y0025099D01*
X0610142Y0025144D01*
X0610175Y0025192D01*
X0610204Y0025241D01*
X0610230Y0025292D01*
X0610253Y0025345D01*
X0610271Y0025400D01*
X0610286Y0025455D01*
X0610298Y0025512D01*
X0610305Y0025569D01*
X0610309Y0025626D01*
X0610308Y0025684D01*
X0610304Y0025741D01*
X0610296Y0025798D01*
X0610284Y0025854D01*
X0610268Y0025910D01*
X0610249Y0025964D01*
X0610226Y0026016D01*
X0610199Y0026067D01*
X0610169Y0026117D01*
X0610136Y0026164D01*
X0610100Y0026208D01*
X0610061Y0026250D01*
X0610019Y0026290D01*
X0609974Y0026326D01*
X0609927Y0026359D01*
X0609878Y0026389D01*
X0609827Y0026416D01*
X0609775Y0026439D01*
X0609774Y0026439D02*
X0608136Y0027094D01*
X0608135Y0027095D02*
X0608083Y0027118D01*
X0608032Y0027145D01*
X0607983Y0027175D01*
X0607936Y0027208D01*
X0607891Y0027244D01*
X0607849Y0027284D01*
X0607810Y0027326D01*
X0607774Y0027370D01*
X0607741Y0027417D01*
X0607711Y0027467D01*
X0607684Y0027518D01*
X0607661Y0027570D01*
X0607642Y0027624D01*
X0607626Y0027680D01*
X0607614Y0027736D01*
X0607606Y0027793D01*
X0607602Y0027850D01*
X0607601Y0027908D01*
X0607605Y0027965D01*
X0607612Y0028022D01*
X0607624Y0028079D01*
X0607639Y0028134D01*
X0607657Y0028189D01*
X0607680Y0028242D01*
X0607706Y0028293D01*
X0607735Y0028342D01*
X0607768Y0028390D01*
X0607804Y0028435D01*
X0607842Y0028477D01*
X0607884Y0028517D01*
X0607928Y0028554D01*
X0607975Y0028588D01*
X0608023Y0028619D01*
X0608074Y0028646D01*
X0608126Y0028670D01*
X0608180Y0028690D01*
X0608235Y0028706D01*
X0608291Y0028719D01*
X0608348Y0028728D01*
X0608406Y0028733D01*
X0608463Y0028734D01*
X0608463Y0028733D02*
X0608580Y0028729D01*
X0608697Y0028722D01*
X0608813Y0028711D01*
X0608930Y0028697D01*
X0609045Y0028678D01*
X0609160Y0028657D01*
X0609274Y0028631D01*
X0609388Y0028602D01*
X0609500Y0028570D01*
X0609612Y0028534D01*
X0609722Y0028494D01*
X0609831Y0028451D01*
X0609938Y0028405D01*
X0612988Y0027750D02*
X0612988Y0025783D01*
X0612990Y0025721D01*
X0612996Y0025660D01*
X0613005Y0025599D01*
X0613019Y0025539D01*
X0613036Y0025479D01*
X0613057Y0025421D01*
X0613082Y0025364D01*
X0613110Y0025309D01*
X0613141Y0025256D01*
X0613176Y0025205D01*
X0613214Y0025156D01*
X0613254Y0025110D01*
X0613298Y0025066D01*
X0613344Y0025026D01*
X0613393Y0024988D01*
X0613444Y0024953D01*
X0613497Y0024922D01*
X0613552Y0024894D01*
X0613609Y0024869D01*
X0613667Y0024848D01*
X0613727Y0024831D01*
X0613787Y0024817D01*
X0613848Y0024808D01*
X0613909Y0024802D01*
X0613971Y0024800D01*
X0615282Y0024800D01*
X0617695Y0026111D02*
X0617695Y0027422D01*
X0617696Y0027422D02*
X0617698Y0027493D01*
X0617704Y0027564D01*
X0617713Y0027634D01*
X0617727Y0027704D01*
X0617744Y0027773D01*
X0617765Y0027841D01*
X0617789Y0027907D01*
X0617817Y0027972D01*
X0617849Y0028036D01*
X0617884Y0028098D01*
X0617922Y0028158D01*
X0617963Y0028215D01*
X0618008Y0028271D01*
X0618055Y0028324D01*
X0618105Y0028374D01*
X0618158Y0028421D01*
X0618214Y0028466D01*
X0618271Y0028507D01*
X0618331Y0028545D01*
X0618393Y0028580D01*
X0618457Y0028612D01*
X0618522Y0028640D01*
X0618588Y0028664D01*
X0618656Y0028685D01*
X0618725Y0028702D01*
X0618795Y0028716D01*
X0618865Y0028725D01*
X0618936Y0028731D01*
X0619007Y0028733D01*
X0619078Y0028731D01*
X0619149Y0028725D01*
X0619219Y0028716D01*
X0619289Y0028702D01*
X0619358Y0028685D01*
X0619426Y0028664D01*
X0619492Y0028640D01*
X0619557Y0028612D01*
X0619621Y0028580D01*
X0619683Y0028545D01*
X0619743Y0028507D01*
X0619800Y0028466D01*
X0619856Y0028421D01*
X0619909Y0028374D01*
X0619959Y0028324D01*
X0620006Y0028271D01*
X0620051Y0028215D01*
X0620092Y0028158D01*
X0620130Y0028098D01*
X0620165Y0028036D01*
X0620197Y0027972D01*
X0620225Y0027907D01*
X0620249Y0027841D01*
X0620270Y0027773D01*
X0620287Y0027704D01*
X0620301Y0027634D01*
X0620310Y0027564D01*
X0620316Y0027493D01*
X0620318Y0027422D01*
X0620318Y0026111D01*
X0620316Y0026040D01*
X0620310Y0025969D01*
X0620301Y0025899D01*
X0620287Y0025829D01*
X0620270Y0025760D01*
X0620249Y0025692D01*
X0620225Y0025626D01*
X0620197Y0025561D01*
X0620165Y0025497D01*
X0620130Y0025435D01*
X0620092Y0025375D01*
X0620051Y0025318D01*
X0620006Y0025262D01*
X0619959Y0025209D01*
X0619909Y0025159D01*
X0619856Y0025112D01*
X0619800Y0025067D01*
X0619743Y0025026D01*
X0619683Y0024988D01*
X0619621Y0024953D01*
X0619557Y0024921D01*
X0619492Y0024893D01*
X0619426Y0024869D01*
X0619358Y0024848D01*
X0619289Y0024831D01*
X0619219Y0024817D01*
X0619149Y0024808D01*
X0619078Y0024802D01*
X0619007Y0024800D01*
X0618936Y0024802D01*
X0618865Y0024808D01*
X0618795Y0024817D01*
X0618725Y0024831D01*
X0618656Y0024848D01*
X0618588Y0024869D01*
X0618522Y0024893D01*
X0618457Y0024921D01*
X0618393Y0024953D01*
X0618331Y0024988D01*
X0618271Y0025026D01*
X0618214Y0025067D01*
X0618158Y0025112D01*
X0618105Y0025159D01*
X0618055Y0025209D01*
X0618008Y0025262D01*
X0617963Y0025318D01*
X0617922Y0025375D01*
X0617884Y0025435D01*
X0617849Y0025497D01*
X0617817Y0025561D01*
X0617789Y0025626D01*
X0617765Y0025692D01*
X0617744Y0025760D01*
X0617727Y0025829D01*
X0617713Y0025899D01*
X0617704Y0025969D01*
X0617698Y0026040D01*
X0617696Y0026111D01*
X0615282Y0028733D02*
X0613971Y0028733D01*
X0613909Y0028731D01*
X0613848Y0028725D01*
X0613787Y0028716D01*
X0613727Y0028702D01*
X0613667Y0028685D01*
X0613609Y0028664D01*
X0613552Y0028639D01*
X0613497Y0028611D01*
X0613444Y0028580D01*
X0613393Y0028545D01*
X0613344Y0028507D01*
X0613298Y0028467D01*
X0613254Y0028423D01*
X0613214Y0028377D01*
X0613176Y0028328D01*
X0613141Y0028277D01*
X0613110Y0028224D01*
X0613082Y0028169D01*
X0613057Y0028112D01*
X0613036Y0028054D01*
X0613019Y0027994D01*
X0613005Y0027934D01*
X0612996Y0027873D01*
X0612990Y0027812D01*
X0612988Y0027750D01*
X0604768Y0027094D02*
X0600834Y0027094D01*
X0598163Y0028733D02*
X0596852Y0024800D01*
X0595541Y0028733D01*
X0623284Y0028733D02*
X0625251Y0028733D01*
X0625251Y0028078D01*
X0623284Y0028733D02*
X0623284Y0024800D01*
X0627337Y0025783D02*
X0627337Y0027422D01*
X0627337Y0026767D02*
X0629959Y0026767D01*
X0629959Y0027422D01*
X0629957Y0027493D01*
X0629951Y0027564D01*
X0629942Y0027634D01*
X0629928Y0027704D01*
X0629911Y0027773D01*
X0629890Y0027841D01*
X0629866Y0027907D01*
X0629838Y0027972D01*
X0629806Y0028036D01*
X0629771Y0028098D01*
X0629733Y0028158D01*
X0629692Y0028215D01*
X0629647Y0028271D01*
X0629600Y0028324D01*
X0629550Y0028374D01*
X0629497Y0028421D01*
X0629441Y0028466D01*
X0629384Y0028507D01*
X0629324Y0028545D01*
X0629262Y0028580D01*
X0629198Y0028612D01*
X0629133Y0028640D01*
X0629067Y0028664D01*
X0628999Y0028685D01*
X0628930Y0028702D01*
X0628860Y0028716D01*
X0628790Y0028725D01*
X0628719Y0028731D01*
X0628648Y0028733D01*
X0628577Y0028731D01*
X0628506Y0028725D01*
X0628436Y0028716D01*
X0628366Y0028702D01*
X0628297Y0028685D01*
X0628229Y0028664D01*
X0628163Y0028640D01*
X0628098Y0028612D01*
X0628034Y0028580D01*
X0627972Y0028545D01*
X0627912Y0028507D01*
X0627855Y0028466D01*
X0627799Y0028421D01*
X0627746Y0028374D01*
X0627696Y0028324D01*
X0627649Y0028271D01*
X0627604Y0028215D01*
X0627563Y0028158D01*
X0627525Y0028098D01*
X0627490Y0028036D01*
X0627458Y0027972D01*
X0627430Y0027907D01*
X0627406Y0027841D01*
X0627385Y0027773D01*
X0627368Y0027704D01*
X0627354Y0027634D01*
X0627345Y0027564D01*
X0627339Y0027493D01*
X0627337Y0027422D01*
X0627337Y0025783D02*
X0627339Y0025721D01*
X0627345Y0025660D01*
X0627354Y0025599D01*
X0627368Y0025539D01*
X0627385Y0025479D01*
X0627406Y0025421D01*
X0627431Y0025364D01*
X0627459Y0025309D01*
X0627490Y0025256D01*
X0627525Y0025205D01*
X0627563Y0025156D01*
X0627603Y0025110D01*
X0627647Y0025066D01*
X0627693Y0025026D01*
X0627742Y0024988D01*
X0627793Y0024953D01*
X0627846Y0024922D01*
X0627901Y0024894D01*
X0627958Y0024869D01*
X0628016Y0024848D01*
X0628076Y0024831D01*
X0628136Y0024817D01*
X0628197Y0024808D01*
X0628258Y0024802D01*
X0628320Y0024800D01*
X0629959Y0024800D01*
M02*
